<mxfile host="app.diagrams.net" agent="Mozilla/5.0 (Windows NT 10.0; Win64; x64) AppleWebKit/537.36 (KHTML, like Gecko) Chrome/137.0.0.0 Safari/537.36" version="27.0.8">
  <diagram name="Page-1" id="RcTMPw4JLW2sjZRvjjpT">
    <mxGraphModel dx="2377" dy="1305" grid="1" gridSize="10" guides="1" tooltips="1" connect="1" arrows="1" fold="1" page="1" pageScale="1" pageWidth="850" pageHeight="1100" background="none" math="0" shadow="0">
      <root>
        <mxCell id="0" />
        <mxCell id="1" parent="0" />
        <mxCell id="Qdo3hB_uDaMukJDxGay6-1" value="" style="group" parent="1" vertex="1" connectable="0">
          <mxGeometry x="40" y="20" width="1059.845" height="1620" as="geometry" />
        </mxCell>
        <mxCell id="Qdo3hB_uDaMukJDxGay6-2" value="" style="shape=image;verticalLabelPosition=bottom;verticalAlign=top;imageAspect=0;image=data:image/png,iVBORw0KGgoAAAANSUhEUgAAAgAAAAFVCAYAAACZ01cjAAAABmJLR0QA/wD/AP+gvaeTAAAaBklEQVR4nO3deZQdZZ3G8W9CSNhCWBLCEnYQZN8XQTYJyiI7jGcg0KMox+UA47ig4xxg9CAoyjbqgCIYGDdUGMERERBBZBEEFMOmsgiDsjvskNDzx5uWTtvp7ntvVf3qrfp+zqkjeMi9z73pvvXc9633LZAkSZIkSZIkSZIkSZIkSZIkSZIkSZIkSZIkSZIkSZIkSZIkSZIkSZIkSZIkSZIkSZIkSZIkSZIkSZIkSZIkSZIkSZIkSZIkSZIkSZIkSZIkSZIkSZIkSZIkSZIkSZIkSZIkSZIkSZIkSZIkSZIkSZIkSZIkSRWYEB1AktQc46IDaAGrAjsDmwIbAusDywBLA4sArwN/nX/MAe4CbgWuBp4OyCtJkrq0AXAa8ADQ3+UxF7gR+BCpMEiSpJraE7iO7k/6CzteBM4BZlT3UiRJ0mh2BG6h+BP/cEXgFGDxal6WJEkaznLAeaR5/LJP/oOPu4GtKnh9kiRpiG2Bh6j2xD/4eBU4uvRXKUmS/uYo4BXiTv6Djy8C48t9uZIk6RTiT/pDj29gCZAkqTQfJf5kv7Dj9BJftyRJrTWL6i/26/Q4rrRXL0lSC21CWoIXfYIf7XiVtCRRkiT1aDJwP/En97EeDwFLlfJOSJJqbZHoAA1zMrBPdIgOTJn/v9eEppAkKWPrk4bVo7/Vd3q8AqxVwvshSVIr/Ij4k3m3xwXFvx2SJDXfZsSfxHs55gLrFv6uSJJqa0J0gIb4SHSAHi0CvBf4WHQQSdlbBji0oMe6iLSqSqqlZanPVr+9HH8BFi34vZHUPutT3OfStIqzt4pbwvbuQGBidIgCrADsHh1CUvb6owNobCwAvTskOkCB9ooOICl7FoBMWAB6MxF4a3SIAu0ZHUCSVA0LQG+2BpaIDlGgtYHp0SEkZc0RgExYAHqzZXSAEmwSHUBS1iwAmbAA9KaJa+ctAJJ6YQHIhAWgN+tEByjBjOgAkqTyWQB608Q1ql4DIKkXjgBkwgLQmyWjA5Rg+egAkrJmAciEBaA3TVoBMMCfCUlqAT/se/NydIAS2N4l9cLPkExYAHrzfHSAEqxO2hZYkrphAciEBaA3j0cHKMGbgDuAXaODSMqSBSATFoDe3B0doCQrAVcDZ9KMGx1Jqo4FIBMWgN7MiQ5QonHAMcAVwMrBWSRJBbMA9Obn0QEqsCup6DTproeSyuMIgFrjUdIPfNOPecDJwIRi3jZJDTWD4j53mrjZWm04AtC7b0cHqMh44BPATTRzC2RJxXAEQK2xBfHfzqs+ngT2KeLNk9Q4K+MIgFrk58SflCOO2TRzN0RJ3VsJC4Ba5ADiT8ZRx83AGj2/g5KawgKg1rmO+JNx1PF/wGG9v4WSGmBFLABqmW2A14g/GUceZwOTen0jJWVtOhYAtdDHiD8JRx93Axv3+kZKytYKWADUQuOBK4k/CUcfLwLH9vheSsrTNCwAaqkZwCPEn4TrcJwDLN7b2ykpMxYAtdo6wF+IPwHX4bgH2LS3t1NSRqZiAVDL7QQ8T/wJuA7Hc8ARvb2dkjJhAZCAjYCHiD8B1+X4AbBMT++opLpbHguABMBqpP3zo0++c4FPAvcF55hDKkaSmmk5LADS3ywKXEDsyf/d87NMBv4rMEs/aZXAUV2/m5LqbFksANIC+og52f6a4dflHwQ8G5Rp4LiU9G1BUnMsgwVAWkAf1Z5cHwU+zMjL8DYCfldxrqHHfcDmY30TJdWeBUAaoo/yT6avk+5MeCRj35J3SeD8CrKNdLwEfHCMeSXV2xQsANIC+ijv5HkF8CF6uyvfLNJyvcgi8D1cJSDlzgIgDdFHsSfLs4G9Sd/gi7I+cGfBOTs9/ghsXeBrklStpbEASAvoo9gT5aol5ZwAnAjMKzhvJ8fc+RnGl/QaJZVnMhYAaQF95FEABrwTeLLgzJ0eVwMrlfw6JRVrKSwAWfAblhbmMmBb4LbADLuRNlHaITCDJDWSBUAj+QOwHXASaYVBhNWA64EzSRsqSaq3/ugAUt30kdcUwFBvAx4rKHu3x03AmmW/UEk9WQKnALLgCIDG6mrSbX2vDMywLXA7cEhgBkkjcwQgExYAdeJxYC/SlMC8oAxTgO8C5zD2zY4kVccCIA3RR95TAEPtQtpuOHJK4DZg3ZJfp6TOLIZTAFlwBEDduhbYDPhxYIYtSCXg8MAMkhbkCEAmLADqxROk3QiPA14LyjAZuBCYTVp/LCmWBUAaoo9mTQEMtQ1pG9/IKYF7SKMSkuJMxCmALDgCoKLcQtrD//LADOuRlgoeC4wLzCG1mSMAmbAAqEhPAfuSpgReDcowCTgDuARYLiiD1GYWgExYAFS0ftKufTuQdhKMsh9wB7BjYAapjSwAmbAAqCy3kq7S/05ghlWBn5HuLLhIYA5JUov10eyLAEdyBPAisRcIXgOsXPYLlcR4vAgwC44AqAqzSVMC9wdm2JU0JbBXYAapDZwCyIQFQFW5HdgS+GZghmmkVQpnkpYqSZJUuj7aOwUw1BHA88ROCdwCrF32C5VayimADDgCoAizSXsG/DYww9bAr4F3BWaQpDAWAEW5m3R733MDMywNfItUSJYIzCE1jdcBSIP04RTAwhwBPEfslMAcYOOyX6jUEvNwCqD2HAFQHcwGtgLuDMzwZuBm0jbCktR4FgDVxb3AdsBZgRkWJ20j/D1gmcAcUu6cApAG6cMpgLE6EHiG2CmBB4HtS36dUlO9hlMAtecIgOroB6Tb+t4UmGF14DrSNsL+nkiSutaHIwCdmkTatOd1YkcDrgRWLPm1Sk3yKo4A1J7fbFRnr5AuyjsAeDowx0zSNsJ7BGaQctIfHUCjswAoB/9NmhK4ITDDdOAK0ojEooE5pBxYADJgAVAu/gTsApxEmhKIMA44BrgKmBGUQZKUmT68BqAouwN/Jva6gCeBd5b9QqVMvYTXANSeIwDK0VWkjYOuD8ywPGlq4kzSxYqS3uAUQAYsAMrVI8CupCmBeUEZBqYEfgmsG5RBqiMLQAYsAMrZPNI6/ZnAY4E5tgBuAw4PzCBJHbEAqAl+Rlol8JPADJOBC0n3NVgqMIdUB44AZMACoKZ4HNgTOI60DWmUWcCtpEIitZUFIAMWADVJP+mivN2BRwNzrAfciHcWlFRjFgA10XWkb+D/E5hhMdKdBS8BlgvMIUVwBCADFgA11ZPAPqQpgVcDc+wP3A7sEJhBqpoFIAMWADXZwJTAjsAfA3OsBlyLdxZUe1gAMuCHkdrgV6SlehcHZpgAnAD8FFgpMIckARYAtcdfgUOBo0l3GYyyG3AnacWC1FSOAGTAAqC2ORd4C/D7wAzTgB/hnQXVXBaADFgA1Ea/Jk0JfCsww8A2wjcAawXmkNRSFgC11XPAYcCHiV0lsDVwE7BXYAapaI4AZMACoDbrB04HNgfuCswxMCUwG1giMIdUFAtABiwAEswBtgcuCs4xi7RiYePgHFKvLAAZsABIyfOkE/CRwAuBOTYAbsZthCWVzAIgLWg2sBXwm8AMi5O2Ef4esExgDqlbjgBkwAIg/b17gG2Bs4JzHATcQZqekHJiAciABUAa3sukYfiDgWcDc6xOurnRifj7KqlAfqBII/s+aTTg9sAMA9sI/wRYMTCHNFaOAGTAAiCN7j7SMHz0lMDupG2E3x6cQxqNBSADFgBpbF4hTQkcADwTmGMF4Me4jbDqzQKQAQuA1JlLgc2AGwMzDGwj/AtgzcAckjJmAZA69zCwE3AS8Hpgjm1I1yYcGphBGo4jABmwAEjdmUu6Mn9/4KnAHFOA7+A2wqoXC0AGLABSby4jTQn8IjjHLOAWYKPgHBJYALJgAZB69wiwK/FTAhuSSoDbCEtSjfSRWnFRx6qVptdY7QY8RrF/190cF+M2worzMMX8HE+rOnibOAIgFesaYFPgyuAcB5MuENwuOIfaySmADFgApOI9DrwDOB6YF5hjDdxGWJLC9eEUQBvtAjxK/JTAlbiNsKrzIE4B1J7fCqRyXUtaJfDj4BwzSXcW3CM4h9rBKYAMWACk8j0B7A0cB7wWmGM6biOsalgAMmABkKrRTzrx7gg8EJhjPGkb4etwG2Gp1SwAUrVuAbYGLg/OsR1plcAhwTnUTI4AZMACIFXvKWA/4FOkLYWjTAG+DZyCUwKDebvl3lkApEH6cBWA/t5WwO+JXyVwG/Cmkl9rDmaR3o89o4NkrqifaVcBqBH6sABoeEuTvolHl4DnSCfAtlqP9B70k7Z3XjY2TtbuxwIg/U0fFgCN7AjgReKLwGxgqZJfa91MBG5lwffhvNBEebsPC0Dtjevxz2+CQ2VjtSXFXnC1GvCnAh9P9bAd8C3SLn6R7gLeBfwuOEdVPkvauXGwftK+CVdVHyd791LMlNKdxF4nk7MXgZ3KfIJ3E/9tpa2HIwDNNRm4iPifsZdJdxbs9YtC3e1LuovjcO/BozgV0I17if/5bfvx3Gh/Sa4CkOrnOeBw4EjghcAck4AzgEuB5QNzlGll4GssvOSsDHyxujiN0R8dQKOzAEj1NZu0Z8Bvg3PsS9pGuNThxACLAN9k9HnmPmD/0tM0iwUgAxYAqd7uBrYFzgrOMYN0q+MTSSfOJjge2HmM/+2XgeVKzNI0FoAW8BqAuMNrANpnFm8sU4s8rgVWKfellm4H0n0ZOnnds0OS5mkO8T+nbT+8BkBqkAtJGwfdEZxj5/kZ9gnO0a3lSfsuTOjwz80CDiw+TiP1RwfQ6CwAUl7uBbYnfkpgKvBD0g2OJgVn6dS5pCmNbnwJpwLGwgKQAQuAlJ+B5XkHAs8G5hhHurPgL4F1A3N04v309i1+ReLLl1QIC4CUr0uAzYCbgnNsQbqXwOHBOUazKcUs6TsMOKiAx2kyRwAyYAGQ8vYQaXneqcR+6E4mXaNQ122ElyAt+VusoMf7CrBCQY/VRBaADFgApPy9RlrStj/wdHCWWaQ99TcLzjHUGcAGBT7eNNL1DxqeBSADFgCpOX5IOvHeEJxjPdK0RF22Ef5H4L0lPO67gINLeFypEhYAqVn+BOwCnETa3z7KwDbClxB71fyapE18yvIVYHqJj58rRwAyYAGQmmcuace+twN/jo3CfqQ9A94a8NwTge8AU0p8jqnA2SU+fq4sABmwAEjNdRVp46DrgnOsSsw2wv9OupdC2Q4BDq3geaRCWQCkZnsU2I00JTAvMMcE4ATgp6Q77JVtJvDRCp5nwJdwKmAwRwAyYAGQmm8e6dv3TOCx2CjsCtwJ7F3ic6wEXES1n29TgXMqfL66swBkwAIgtcfPSJvhXBGcYypwGWkZ3cSCH3s8cAExa/T3I60MkAUgCxYAqV2eAPYCjiPtHxBlYBvhG4B1CnzcfwH2KPDxOvUfpO2Cpdrr9G5YQz0AXFxEkIZblLRJi1QH/aRv33NIu/dFzl1vBdwMvAe4tMfH2hz4dM+JerM86b39h+Ac0YocATgbuL7Ax2uLudEBlEyh+Hs9r1rpK1BTTQUuJ/7e5f2kbYSX7PJ1TAH+UIPXMHAc1uXraIpbKO69rPs9JqQRWQBUZ+NIu/a9QvyJ827SdQqd+m4Nsg8+ngFW6eJ1NIUFQJrPAqAcbE09vkW/RCokY/WeGmQe7risg9fQNDdjAZAAC4DyMYW0e170ybOfsW0j/GbghRpkXdgxa5T8TXUTFgAJsAAoP+8DXib+BPoQsONCMi4O/LYGGUc6ngVmjPZmN9CNWABqz2WAkoZzLvAW4PfBOVYj7V9wIn//efV5YKOqA3VoCvCf0SEkxXEEQLmaDHyT+G/S/cDVvLGN8AE1yNPJ0dfJm94Av8QRAAmwAChv40gbB9VhlcAjpDX2j9cgSyfHk7Rrg6AbsADUnlMAkkbTD5xB2mjnruAsqwDfBqYF5+jU8qR9DsZFB6lIf3QAjc4CIGms5gDbAF+NDpKpmcA/RYeQBlgAJHXiJdIKgSNJy+/UmdNJFzY2nSMAGbAAVMNfBjXNbNI+/r+JDpKZpYGv0/ypAD/zMmABkNSte4BtgbOig2TmbcBR0SEkC4CkXrxM2rb3YNKmNxqb02j2VIAjABmwAEgqwvdJFwjeHh0kE0sD59PcqQALQAYsAJKKcj+wPWlKwBPA6HYjXVDZRP79Z8ACIKlIr5CmBA4k3RJXI/sCsHZ0CLWTBUBSGS4FNiNtCauFW5K0r0LTpgIcAciABUBSWR4GdgZOAl4PzlJnuwLvjw5RMAtABiwAkso0l3Qnv/2Ap2Kj1NrngHWiQ6hdLACSqnA5aUrg+uggNbUkcAHN+Ux2BCADTflhk1R/j5CufHdKYHg7AB+IDlEQC0AGLADV8JdBSgamBGYCj8VGqaVTgXWjQxTAz7wMWAAkRbiGNCVwZXSQmlmCZk0FqMb8IZMU5XFgb9K3Xr3hLcDR0SF65AhABiwAkiLNBf4SHaKGTiPvqQALQAYsAJIibQx8NjpEDS0BfANYJDpIlywAGbAASIoyEZgNTIoOUlPbA8dEh1BzWQAkRTmBdCGgFu5kYIPoEF1wBCADFgBJEXYCjo8OkYHFgPPIbyrAApABC4Ckqk0GzsfPn7HaDvjn6BBqHn8BJVXtNGCt6BCZ+QywYXSIDjgCkAELgKQq7QO8LzpEhiaR11SABSADFgBJVZlOOompO9sCH4kOMUYWgAxYAKrhL4ME5wArRIfI3EnARtEh1AwWAElVOALYLzpEA0wibRC0aHSQUfilJwMWAEllWx04KzpEg2xB/acCLAAZsABIKtMiwIXAlOggDXMCaRtlqWsWAEllOhZ4a3SIBqr7VIAjABmwAEgqy8akrWxVjs2Bj0eHWAgLQAYsAJLK4I1+qvFvwCbRIYZhAciABUBSGbzRTzUmUu+pANWYBUBS0bzRT7U2Az4RHWIIRwAyYAGQVKTJwAX42VK1fwO2jA4xiAUgA/6SSirSacCa0SFaaAJpm+WJ0UGUDwuApKJ4o59YmwKfjA4xnyMAGbAAVMNfBjXddODr0SHEvwJbRYfAz7wsWAAkFeEcYFp0CDGBtCpgseAcFoAMWAAk9cob/dTLBqSRAGlEFgBJvfBGP/V0PLB14PM7ApABC4Ckbi0CXIQ3+qmj6KkAC0AGLACSunUssGN0CC3Um0n7A0SwAGTAAiCpG5vgjX5y8DFgm+gQqicLgKRODew/741+6i9qKsARgAxYACR16kS80U9O1if9nVXJApABC4CkTuxEfe9Br4X7KF6voSEsAJLGyhv95Gs88DVg8YqezxGADPiLLGms1gfuA16KDqKurAd8qqLnsgBkwAJQDX8Z1AS/At5BGgnYCjgJuA14PTKUOnI81UwF+JmXAQuApE7NI534TyQVgRWBQ4Fzgf+Ni6UxqHoqQDVmAZDUqyeAi4GjgVVJpeB44Crg1cBcGt56wGdKfg5HADJgAZBUpNdJowOnAjOB5YB9SaMDDwXm0oKOI63oKIsFIAMWAEllegG4jDQ6sAaw9vx/vhx4OS5W640HzgeWig6iOBYASVX6I2k04J2k0YGZpNGC2yJDtdRawKdLemxHADIwITqApNZ6iXSdwFXz/30NYA9gd1IxWCYmVqscA1wK/Lzgx7UAZMARAEl18SBpdOBQYCouNaxCWVMBFoAMWAAk1ZFLDauzJt7ZsZUsAJJyMHip4SrARrjUsEgfBHYp8PEcAciABUBSjn7HgksNZwJn4VLDbg1MBUwu6PEsABmwAFTDXwapPC+QRgKOZcGlhhcDz8fFys4awGcLeiw/8zJgAZDUNANLDQ8FVsClhp34AGklhlrAZYCSmmzoUsMVSSe4fXCp4XDGkcrTxsBzPTyOIwAZcARAUpv8GZjNgksNjwduwKWGA1YHPtfjY1gAMmABkNRWA0sNTyXdInc6LjUccDTw9ugQKpcFQJKSJ3Gp4YBxwHl0P0XiCEAGLACSNLy2LzVche6nAiwAGbAASNLo2rrU8Chgzy7+nAUgAxYASercSEsNm3TyGwd8FVg2OoiKZwGQpN4MLDU8nrSqYGXgSNLowLOBuYqyCvD5Dv9Mk0pQY1kAJKlYTVxq+B46mwqwAGTAAiBJ5RlpqeGjgbm68TWcCmgUC0A1bMOSYMGlhjPIa6nhysAXx/jf+pknzbcY6ReiyGPVSl+BpLItCewOnAk8SPGfGUUd+4/htZxe4PMdPobnUxccAZCkehhpqWEv+/IX7cukfRFG4ghABiwAklRPg5caTqc+Sw1XIn3DlzQGTgFIKtKKwBHAd4FniJkKOGCEfF8o8HmcAiiJIwCSlJ86LDX8EgufCnAKIAMWAEnKW9RSw5VI90aQNAKnACRF2RD4OPBT4BWK/yw6aJjn/HyBj+8UgLJmAZBUB4OXGj5AMZ9Fj5PuhzDY5wp6bAtAiZwCkKT2GLzUcE2KWWo4DThjyP/nNQDSfI4ASKq7xUijA6cAt5IuJuzkM+ngQY91aod/1hEANdYkLACS8jJ4qeHTjP6Z9ARvTAWcMob/3gIQzCkASdJwBi81nMboSw2nAmfP/2enAKT5HAGQ1CRTgUOAc4BHWPCz6RDgZIr7rHMEQFmzAEhqssFLDR8FzsMCIAEWAEntMZU0dWABqDmvAZAkFelJ4OHoEBqdBUCSpBayAEiSiuYqgAxYACRJRbMAZMACIEkqmgUgAxYASZJayAIgSSqaIwAZmBAdoCXmkrbQLNKzBT+eJKlFxkUHkCQ1zuKkuwsW4QXg1YIeS5IkSZIkSZIkSZIkSZIkSZIkSZIkSZIkSZIkSZIkSZIkSZIkSZIkSZIkSZIkSZIkSZIkSZIkSZIkSZIkSZIkSZIkSZIkSZIkSZIkSZIkSZIkSZIkSZIkSZIkSZIkSZIkSZIkSZIkSZIkSZIkSZIkSZIkSZIkSZIkSZIkSZIkSZIkSZIkSZIkSZIkSZIkSZIkSZKkzv0/5hxqzKl1xLwAAAAASUVORK5CYII=;" parent="Qdo3hB_uDaMukJDxGay6-1" vertex="1">
          <mxGeometry x="640" y="149" width="52" height="35" as="geometry" />
        </mxCell>
        <mxCell id="Qdo3hB_uDaMukJDxGay6-3" value="Pressure Releif &#xa;Valve" style="shape=image;verticalLabelPosition=bottom;verticalAlign=top;imageAspect=0;image=data:image/png,iVBORw0KGgoAAAANSUhEUgAAAMgAAADICAYAAACtWK6eAAAABHNCSVQICAgIfAhkiAAAAAFzUkdCAK7OHOkAAAAEZ0FNQQAAsY8L/GEFAAAACXBIWXMAAAsTAAALEwEAmpwYAAAMa0lEQVR4Xu3dedAcRRnH8W8uEhJIkIQjEYmgpCKnKKHQQgOSAuRQSDygOIoSREQES5AiohBERIFSEAEFRFBRBBQMICAiyH0UIoFwCkLkzIEYCSSQZPzDHnx56pnemd2Z3Z3d36fqKatme3rW0L93d2d6ekBEREREREREREREREREREREREREREREREREmjHUbhAR2BC4CVgBzAcOtw1E+tUQ4BEgMfVp21CkH01xwpEAV9iG0hmD7QZpqzF2Q7C63SCdoYCIRCggIhEKSL0MAfYAzgBmAmvbBiK9ZJrzAz0B/mTarQEcBTxt2r0ArG/aivSMRgGZBJwFvOq0Sesc06dIz8gKyGPANcBK5zVbN9hOpTz6DdKdJgG7AIPsC4677QaRXpH1CZK37gZG205FesGHw9coO+jz1F3AXuGslkjPGAbsA9zjDPpG9SZwCbCN7VSk7sYB3wCecwZ+o1oEnAysZzsVqbtNgfOB152B36jmAgcDq9pORepsELA7cKMz6PPWrbZTkV6wNfCoM+CLlr2SLlJ7q4U7Au1gj9ViZ1uegIzUNaz20D9yeaYCa9mNGW4BZhS8czA9A3YXsAR4OUxYFKmFHZxPgoG1DLgI2HLAPlkXCgd+gqwVzoA977RLgP0GtBXpWsOAh50B/BIwC1jH7tAgIJsDP81xBuxq26lIt5oA/AqYB9wGHAAMt40GyArIMmdbVv3WdirSK7ICUqR2tp1KefQjvbPWsBsK+AfwWeA6+4JI3e0AzA6LxdlPhEZ1c7jtVn/cpKeMAA4E5jiDvlEtBX4GbGE7Fam78cC3gQXOwG9ULwLHa3EG6UVbAb8E3nAGfqN6AdgfWMV2KlJ3M4DbnUFfpBpNNRGppZ84g72ZUkCk52ziDPRYPRruFbHbGwVkO+BbwJcia/uKdJ3pzkD36nrg4+G+kawLhTYgI4CDnDNgz4Sr9yJdb8PIdY3Xwtevjc0+jQIyATipwRmwM02fIl3rWDN4/wkcA6xpGwZZAZkb5nTlOQNmP21EutoWwKHAbjmeO5gVkCJ1iu1UpFe0GpC5wFjbqUgv2Bi41Bn0eeoR4JDw412kZwwCdg0LTttB36hWAteG6e151uwVqY1RwGFh1XY78BvVkvCIg8m2U5G6mwicBvzLGfiNah5wNPAO26lI3X0k3Aq73Bn4eerOHGfARGpnM+BeZ8AXLV3bkJ4zsonFqZc62xSQLqLbNssztcC8qDnh7sIZ9gXpLgpIeVbYDcbKcB/6x8LV9gvC8j4ifWE48JTzdWkxcDrwHrtD5Eq6vmJJT9oQ+EMIxUPAVxo8Q1ABEYlQQLqcfoOIRCggIhEKiEiEAiISoYCIRCgg0qoJYfmil4Fnw9OwdL+KlKLOp3lHhEUqXnXe/9dsY5Fm1DUgMzJmDaT1kN2hrvQVS4rYHLgJuBzYwL44wDi7oa4UEMljHPBj4K9h6dO+oYBIzLAwn+wJ4AvAENug1ykgkmXncN/KD1p8lmKtKSBiTQKuCUsM9f1KKgqIpMYA3w9noHaxLzoWA9+1G0XK1A2neQcDBwPznffh1QrgvPDcxHWd15PwbEWRlnU6IFOB+53jZ9UtwJYD9ldApFKdCshE4DLnuFn1DPAZ24kCIlVrd0BGhUdSv+4c06slwHHAqrajQAGRSrUrIIOAfcNkQnusrLoYWM92ZCggUql2BGQKcIdzjKy6B/iQ7SSDAiKVqjIg44GLwnpctn+vXgAOKDhVXQGRSlURkOHATOA/Tr9eLQVOBla3HeWggEilyg7IdOBJp7+suiKs5dUsBUQqVVZANgNudPrJqjlhCdRWKSBSqVYDMjY8fSrvc0gWhifwljUrVwGRSjUbkKHAEeE+cLuvV28CZ1TwtCoFRCrVTEB2Ah529smq64D32U5KooBIpYoEZCPgaqdtVj0O7GY7KZkCIpXKE5Ax4UGgbzjtvPo3cBSwyoA+qqKASKViARkMfB54yXndq4HT0NtFAZFKZQXk8bBAgt2eVXYaersoIFKprIDkraxp6O3S8wEpMu9GyjcNuMFuzOE14HvAqWHqeqesG+ZwWfMzHjnXLVZ0+N9NcmrmEyTPNPR2yfoEqUM90m9rfNXR9s5/uKwqMg29XeockCSsK5z30d3SAb93/qPZamYaervUPSBJWBAvk5b96ZxpwCfsRsdq4d6OdlzX6EfL7QbpvCFh/Sn71yxWTwJ72o46rO6fIAsbLbTdjR/b/eAw4Ey7Mac/h/VyH7QvdEDWWawknGnrVsuB+4CvAg/YF6Wz1gQWOX/NitRy4Oww3b2Tsj5BeuY6iLTfj5wB1Wy9DBwepr93ggIipdqkwM1NRWousKM9WBsoIFKqG5zBlIQruweG/7WvFamrwrT4dlFApDSfdAZSWueHNuc5rxWtZWEKymhz/CooIFKKVYC/OwMpCfdvpFPU1wZecdok4XEDFxf4lHkJOKjia10KiJTiaGcQpXWUaXuk0yatY4EPArc5r2XVfcC25hhlUUCkZeuEv/52ECXhvg97hXwY8JjTNjFzh/YC5jltsuo3wPrmWK1SQKRlFzgDKK3dbeNgV6dtWr8Y0G5VYFa4KGfbefUacAIwckAfrVBApCVbRdbGvc42Nq519klCf9uYtu8CLnHaZtU8YG/TRzMUEGnJ7c7gScI6VY2W4pkc2tl9E+DujGlC24bfHLZ9Vt0WftM0SwGRpu3tDJy0fmgbZzjd2Tet/W3jYHC4pvKis49XK8LXwHVsRzkoINKUkZEf0AsLrHC4BrDA6SMBngtT4bOMBk4J10Xsvl4tDmfb7EmDGAVEmnKCM2jSOtQ2buAQp4+0vmMbO94LzHb2zaonwkXNPBQQKWz9yFmlOU0sHD0Y+JvTVxKe7bGB3SHDjmHOlu0jq/4Y5o7FKCBSWOxsUrOPHNjO6Sut39nGEUOBLxdc9PrMyFdCBUQK2dYZLGldYRsXdLnTZ1pFgzcWOKvAzOJF4SYv++mngEhugyOnWJe2+CQnwleprMc3N/PVDWDTsMyp7S+rHgR2GLC/AiK5HeQMlLROto2bdJLTd1pftI0L2KPgo9uuDAvDKSCSy+jIItPPNzgdW8SocHrXHiMJp4OzfivkMRw4psDDP5cB5zrbEwVErFOdQZLWAbZxi/ZzjpHWGbZxE8YDF0amyOQpBUTeslHkYtw9GVNCWjEIuNM5VpJzCkteU4A7nGPkKQVE3nKVM0DSqmqp0K0jf+Gvt41btA/wrHOcWCkgAuF5gXZwpHWxbVyynzvHTCtrGn2zRgEnRs6i2VJAhKGRh2m+CrzT7lCyCZEf1N6NWGWYCFzqHM+Wt5ic9JnDnYGR1jdt44p83Tl2WvZW3jJ9FLjfOWZaWq2wz42NTNd4Ghhhd6jIcOAp5z0kZjGIKqTPUJzvHPsQ21j6y9nOoEir3Y9Em+68h7TS5YSqNCZcCH00fKocbBtIf9ksMofpL7Zxm9zovJck3Az1AdtYpEqxwfh+27hNYqG91TYWqcqezgBM61zbuM3Ocd5TWnvZxiJlGx6Z0PdKxT+I8xgXOXEwLywRJFKZmc7AS+tI27hDjnDeW1rH28YiZRkfuSj3WFgNsRvELl4uCetniZTuQmfApbWrbdxhOzrvMa1f28YirZoSmRh4rW3cJWITKKtayFr6UKOp5ZPtDl0iNgX/voofiSB9ZF9ngKV1um3cZU5z3nNan7ONRYoaFbkPYkFY9bCbxW4DfhFY3e4gUsSJzsBKq5UFEtoptpDEKbaxSF4TIzcHPdDkEjudEFuKaFlYllSksMucAZXW9rZxl4stZjfbNpa3K3tBgV4wFbjZbgyWAFfbjTWwS+Q3x05hHV6RhmILRfdqza3RV0bpsNhV6F6u3ew/hPyPLhi93bvthj7Rr/+/G1JA3i5dKK3f3G43iGSZGe4OtF9DerFWAsfZfwD5P53F8m0Qnv461L5Qsk8BM+zG8CyRIg/GacabwL1hVRSRrjTL+auehO3SBfQbRCRCARGJUEBEIhQQkQgFRCRCARGJUEBEIhQQkQgFRCRCARGJUEBEIhQQkQgFRCRCARGJUEBEIhQQkQgFRCRCARGJUEBEIhQQkQgFRCRCARGJUEBEIhQQkQgFRCRCARGJUEBEIhQQkQgFRCRCARGJUEBEIhQQkQgFRCRCARGJUEBEIhQQkQgFRCRCAemsxG4IsrZLmykgnbXAbggW2Q0i/WgcMN88I30hsLZtKNKvJgNXAk8Bs4GNbQMRERERERHpD/8FMu8Lc9sKz5EAAAAASUVORK5CYII=;" parent="Qdo3hB_uDaMukJDxGay6-1" vertex="1">
          <mxGeometry x="743.98" y="320" width="60" height="60" as="geometry" />
        </mxCell>
        <mxCell id="Qdo3hB_uDaMukJDxGay6-4" style="edgeStyle=orthogonalEdgeStyle;rounded=1;orthogonalLoop=1;jettySize=auto;html=1;entryX=1;entryY=0.5;entryDx=0;entryDy=0;endArrow=none;startFill=0;fillColor=#d80073;strokeColor=light-dark(#A50040, #f5005e);strokeWidth=5;curved=0;" parent="Qdo3hB_uDaMukJDxGay6-1" source="Qdo3hB_uDaMukJDxGay6-5" target="Qdo3hB_uDaMukJDxGay6-11" edge="1">
          <mxGeometry relative="1" as="geometry" />
        </mxCell>
        <mxCell id="Qdo3hB_uDaMukJDxGay6-5" value="" style="rounded=1;whiteSpace=wrap;html=1;fillColor=#6a00ff;fontColor=#ffffff;strokeColor=#3700CC;" parent="Qdo3hB_uDaMukJDxGay6-1" vertex="1">
          <mxGeometry x="920" y="565.24" width="70" height="140" as="geometry" />
        </mxCell>
        <mxCell id="Qdo3hB_uDaMukJDxGay6-6" value="" style="verticalLabelPosition=bottom;aspect=fixed;html=1;verticalAlign=top;fillColor=strokeColor;align=center;outlineConnect=0;shape=mxgraph.fluid_power.x11820;points=[[0.5,1,0]];rotation=90;" parent="Qdo3hB_uDaMukJDxGay6-1" vertex="1">
          <mxGeometry x="1010" y="414.76" width="39.84" height="59.85" as="geometry" />
        </mxCell>
        <mxCell id="Qdo3hB_uDaMukJDxGay6-7" value="Flow Control&amp;nbsp; &amp;nbsp; &amp;nbsp; &amp;nbsp; &amp;nbsp; &amp;nbsp;&lt;div&gt;Valve 1&amp;nbsp; &amp;nbsp; &amp;nbsp; &amp;nbsp; &amp;nbsp; &amp;nbsp; &amp;nbsp; &amp;nbsp; &amp;nbsp;&lt;/div&gt;" style="verticalLabelPosition=bottom;aspect=fixed;html=1;verticalAlign=top;fillColor=strokeColor;align=right;outlineConnect=0;shape=mxgraph.fluid_power.x10630;points=[[0.36,0,0],[0.36,1,0]]" parent="Qdo3hB_uDaMukJDxGay6-1" vertex="1">
          <mxGeometry x="820" y="760" width="33.98" height="75.14" as="geometry" />
        </mxCell>
        <mxCell id="Qdo3hB_uDaMukJDxGay6-8" value="Chamber" style="rounded=1;whiteSpace=wrap;html=1;" parent="Qdo3hB_uDaMukJDxGay6-1" vertex="1">
          <mxGeometry x="612" y="1430" width="80" height="180" as="geometry" />
        </mxCell>
        <mxCell id="Qdo3hB_uDaMukJDxGay6-9" style="edgeStyle=orthogonalEdgeStyle;rounded=1;orthogonalLoop=1;jettySize=auto;html=1;exitX=0;exitY=0.5;exitDx=0;exitDy=0;entryX=0.5;entryY=1;entryDx=0;entryDy=0;entryPerimeter=0;endArrow=none;startFill=0;fillColor=#d80073;strokeColor=light-dark(#A50040, #f5005e);strokeWidth=5;curved=0;" parent="Qdo3hB_uDaMukJDxGay6-1" source="Qdo3hB_uDaMukJDxGay6-11" target="Qdo3hB_uDaMukJDxGay6-6" edge="1">
          <mxGeometry relative="1" as="geometry">
            <mxPoint x="990" y="445.24" as="targetPoint" />
            <Array as="points">
              <mxPoint x="955" y="444.24" />
            </Array>
          </mxGeometry>
        </mxCell>
        <mxCell id="Qdo3hB_uDaMukJDxGay6-10" style="edgeStyle=orthogonalEdgeStyle;rounded=1;orthogonalLoop=1;jettySize=auto;html=1;exitX=0;exitY=0.5;exitDx=0;exitDy=0;entryX=1;entryY=0.5;entryDx=0;entryDy=0;endArrow=none;startFill=0;fillColor=#d80073;strokeColor=light-dark(#A50040, #f5005e);strokeWidth=5;curved=0;" parent="Qdo3hB_uDaMukJDxGay6-1" source="Qdo3hB_uDaMukJDxGay6-11" target="Qdo3hB_uDaMukJDxGay6-18" edge="1">
          <mxGeometry relative="1" as="geometry" />
        </mxCell>
        <mxCell id="Qdo3hB_uDaMukJDxGay6-11" value="" style="shape=image;verticalLabelPosition=bottom;verticalAlign=top;imageAspect=0;image=data:image/png,iVBORw0KGgoAAAANSUhEUgAAAMgAAADICAYAAACtWK6eAAAABHNCSVQICAgIfAhkiAAAAAlwSFlzAAALEwAACxMBAJqcGAAAChVJREFUeJzt3XnsHGUdx/E3pZSrLUdLQUQEEUUNRIWIBIFGkUgkcmggIhGjwQuNGomiYgyJBGI0gLdGPJAjGjV4IAZSDzwRrwByiAcip0BtLS1HW+ofX1aWX38z+8zOzjMz3fcredKk+e3MM7Pz2Wd35jlAkiRJkiRJkiRJkiRJkiRJkiRJkiRJkiRJkiRJkiRJkiRJkiRJkiRJkiRJkiRJkiRJkiRJkiRJkiRJkiRJkiRJkiRJkiRJkiRJkiRJm5TN2q5AB80FTgEOBbZouS5t2wDcCpwP3NtyXdQR3yQuDMsT5XZgUZ2Tqk3DfrR/MXa1nF7jvPbWnLYr0DFPa7sCHTaV58aAPNm1wMNtV6Kjft52BdQNJwEP0f5Xmi6VLzOlN3Sm8qAT7AwcCMxrYd/nA7vO8v/vAu7KXJfHgFuAP2fer1ToZmb/FN+nzUpNK3+DSCUMiFTCgEglDIhUwoBIJQyIVMKASCUMiFTCgEglDIhUwoBIJQyIVGJu2xXIYAGwNbCK6Mau5swFdiR6AS9//F91zELgrcAVxJs03CP2DmLM+Ql0d0KGvvXmPQj4NHAjsI4n6vsI8HvgLGDv1mqn/9scOA1YQdogoNuBE1upabm+BGRf4Keknev1wIXATm1UVLAYuJrxRstdQnwF64o+BOQUooWoeq7vAQ5uob5TbRHRvNcZUnoTMYKwC7ockB2JD5Q653oNcFjuik+rOcAyJjPueh1wDrBl1iPYWFcDcjRwN5M51w8Au+et/nR6G6PfjNXAnaR/JbgBOCDnQczQtYDsAFxUUKfZyv2k/Q78Yc6DmEZbEt9pi96AZcAhPPGsZx7wKuD6ktcMylrgo7QzaUOXAnIUMVHEqPO1grhBsvPQa58JnMeT72zNLIfkOIhpdQLFJ/58imds2Qq4uOS1w+U64AWNHcHsuhCQ7YCvFtRjZrmZ8tu4rwQeLXjtxY3UXkDxRX4NaT0EjgfuK9jGzNbkTPI9N2k7IEcSz4tGnZf1wLmk3QH8cME2VmBvjsb8hdlP+rEVtrEE+HbBdmaWPxJz9zatrYAsBC4o2PfM8leqfT1aQNy9artlnCpFsx/uMMa2TiTurIy6MB4lPg2b7KLTRkCOIB6cjjr+x4BPAduMsY+i51RH1Ky7ChS9iePaBfhuyXaHy++A59XYV5mcAVkAfLFgfzPL34GlNfZ1WcF2j66xTZWYdEAGTmLjPlyzlUeADxJdXCYpV0BeBtxWsK+ZrcZngPk191cUkGNqblcFmgoIwFOAH5TsY7j8FnjOhPYLzQdkPvBZ4sIfdWy3AS+d0H4NSGZNBmTgDaQ99HoYeB+TaU2aDMhS4qtSSvC/QHwFmxQDklmOgAA8leg6n3JR/Rp4ds39NRGQbYku6Smtxu3Ay2vsq4gBySxXQAbeBKws2e+gPAS8l/Hv7086IIcQt2VTAv4l4nZvEwxIZrkDArEM2ZUl+x4uv2C8gUKTCsg2RFePlFbjDuAVY9S1CgOSWRsBGXgz8N+SOgzKamLhmyoLFU0iIAdT/CB1ZvkKsH2FbY/LgGTWZkAAnk56V/ufAc9I3G6dgGwFfILoBjKqTncR/aRyMSCZtR0QiJbh7cCDJfUZlAeBdzC6NRk3IC8uee3M8nXG63FQhwHJrAsBGdiT9PHZPwb2KNlW1YBsCXyM8m7lg3IP7T25NiCZdSkgEC3DO4nfHaMu1FXEzCuzqRKQF5E+3PgSYnhyWwxIZl0LyMBexJriKRftlWw89DQlIPOAs0lrNe4FjpvsIY7FgGTW1YBAPAN5D8VdvIfLSmKWkIFRAdmftFGRG4g5wBY3c4iVGZDMuhyQgWcBvyTtYr4C2I3igOxHDANem7Ct+4gBYV1iQDLrQ0AgWpPTKB6/MlxWUPx8JWW8xgZiANiSLEdWjQHJrC8BGdgH+A1pF/k45QHgtdmOpjoDklnfAgLR2/f9RO/fSYbjMmLAV5cZkMz6GJCB5wLXUj8Yy4kBXn1gQDLrc0AgxrV/iPHmuN0AfJ8Y2NUXBiSzvgdkYF9imYDUYPwHOLmVmtbTy4A4J1H/rCdmV5FK9b0F2Zx6X7G+Rb/W2+hlC9JnfQ7IpH6k/xt4Tea6j8uAZNbHgGwOnE7abd6VpHdf/wbd6VJSxIBk1reAVHlQeBXRibFqp8Qq067mZkAy60tAqnQ1WQW8ZZZtVO3WvmNjRzM+A5JZHwKyN+mdFZdRPpBqMDAqZTjt3cRaKF1iQDLrckDmAO8mrbv7g8Sw3dSJHQ4i/bfJheQfWlvEgGTW1YDsRfqKuz8hhutWVWVyhjvJOzlDEQOSWdcCUmXI7erH/7bKdECzqTq9z3Y191eHAcmsSwHZk2gNUi7Uq4lWZlK2Jn2CuH/R/ARxRQxIZl0IyGbESrurSuozKGuI3yVNde85lG5MMVrEgGTWdkB2J55XpFyQ405DWtW2xApQKa3JP4HDM9RpwIBk1mZATiFt6tG6E1mPaynpyxx8nvqL46QwIJm1EZDdgB+V7Hu4TGIphDrmA58jrTX5B5NbKKeIAcksd0DeSP7FdCbhcOLr1Kh6D5Za27ahehiQzHIFZFfg8pL9DZdrmOxybJNSZbHOvwGHNVAHA5JZjoC8nhjBN+qiegT4AN1pNYpUWe75k4y33HMRA5JZkwHZBfheyT6Gy7U0tyR0ExYCF5B2bLcCL5nQfg1IZk0F5HXEHFMprcYZxOQLfXQksbLUqONcD5xLPJCsw4BkNumALAG+U7Ld4fIHYrKFvtse+Bppx3wL0VFyXEUBaWs5hk1e0VjucfobnUDMZzvqInkU+Aj9bTWKHEWsOJXSmnyc6CxZVdGM90fUrLsKFHWrqDIOYjExA3rKJ+ifgOdPqO5dtANwEWnn4ibgwArbXkBx1/9JrP+uWVzK7Cf8V6Q9uT6OGKY66mJYC5wJbDHZ6nfWMcRKVKPOyzrgHGIg1yhnFGxjBU491ZgTKX7zzqO4K/lWxBp9KZ+U1wEvbOwIumsRxR9AM8v1lC9QeiTx1XS2117cTPUFcaGXtQBXEbco5wz9/bGkLT6zDjiLmDRhmr2amFpo1PlaTvRUHl7ibQ9iUFfZhBOTuoWsAqcy+s1bQ4zRTll4ZgNwA3BAzoPouJ1I/532GHGu70/428tzHsS0mkP6QKWUVuNs0r5TT6PjSbvTl1KWE+vMK4PFxF2VOm/YjcTUOiq3hFjBqs65XkN0x1dGOxGDksZ5wy6l/lPiaXMqxT+8y8o9xDh6tWAusXrTStLerLuIzogaz/6kzxS5nnhi36fJtjdZ2xMzhixj47HiDxCdEE9mvKfB2thSYoz7zBGMa4mHq2cTq/32Ut1pZ/pgEdFtexXxYErN2Zo43+uJH/Tr2q2OJEmSJEmSJEmSJEmSJEmSJEmSJEmSJEmSJEmSJEmSJEmSJEmSJEmSJEmSJEmSJEmSJEmSJEmSJElSBv8DhZGUYnvjcPsAAAAASUVORK5CYII=;rotation=90;" parent="Qdo3hB_uDaMukJDxGay6-1" vertex="1">
          <mxGeometry x="920" y="465.24" width="70" height="70" as="geometry" />
        </mxCell>
        <mxCell id="Qdo3hB_uDaMukJDxGay6-12" style="edgeStyle=orthogonalEdgeStyle;rounded=0;orthogonalLoop=1;jettySize=auto;html=1;entryX=1;entryY=0.5;entryDx=0;entryDy=0;endArrow=none;startFill=0;fillColor=#60a917;strokeColor=light-dark(#2D7600, #65ff05);strokeWidth=5;" parent="Qdo3hB_uDaMukJDxGay6-1" source="Qdo3hB_uDaMukJDxGay6-14" target="Qdo3hB_uDaMukJDxGay6-2" edge="1">
          <mxGeometry relative="1" as="geometry" />
        </mxCell>
        <mxCell id="Qdo3hB_uDaMukJDxGay6-13" style="edgeStyle=orthogonalEdgeStyle;rounded=1;orthogonalLoop=1;jettySize=auto;html=1;entryX=1;entryY=0.5;entryDx=0;entryDy=0;endArrow=none;startFill=0;strokeWidth=5;strokeColor=light-dark(#A50040, #ff0062);fillColor=#d80073;curved=0;" parent="Qdo3hB_uDaMukJDxGay6-1" source="Qdo3hB_uDaMukJDxGay6-14" target="Qdo3hB_uDaMukJDxGay6-3" edge="1">
          <mxGeometry relative="1" as="geometry">
            <mxPoint x="840" y="360" as="targetPoint" />
            <Array as="points">
              <mxPoint x="830" y="165" />
              <mxPoint x="830" y="350" />
            </Array>
          </mxGeometry>
        </mxCell>
        <mxCell id="Qdo3hB_uDaMukJDxGay6-14" value="Solenoid&lt;div&gt;valve 1&lt;/div&gt;" style="verticalLabelPosition=bottom;align=center;html=1;verticalAlign=top;pointerEvents=1;shape=mxgraph.pid2valves.valve;valveType=gate;actuator=solenoid;" parent="Qdo3hB_uDaMukJDxGay6-1" vertex="1">
          <mxGeometry x="890" y="150" width="30" height="30" as="geometry" />
        </mxCell>
        <mxCell id="Qdo3hB_uDaMukJDxGay6-15" value="" style="verticalLabelPosition=bottom;aspect=fixed;html=1;verticalAlign=top;fillColor=strokeColor;align=center;outlineConnect=0;shape=mxgraph.fluid_power.x11820;points=[[0.5,1,0]];rotation=90;" parent="Qdo3hB_uDaMukJDxGay6-1" vertex="1">
          <mxGeometry x="1010" y="294.76" width="39.84" height="59.85" as="geometry" />
        </mxCell>
        <mxCell id="Qdo3hB_uDaMukJDxGay6-16" style="edgeStyle=orthogonalEdgeStyle;rounded=1;orthogonalLoop=1;jettySize=auto;html=1;exitX=0;exitY=0.5;exitDx=0;exitDy=0;entryX=0.5;entryY=1;entryDx=0;entryDy=0;entryPerimeter=0;endArrow=none;startFill=0;fillColor=#d80073;strokeColor=light-dark(#A50040, #f5005e);strokeWidth=5;curved=0;" parent="Qdo3hB_uDaMukJDxGay6-1" source="Qdo3hB_uDaMukJDxGay6-18" target="Qdo3hB_uDaMukJDxGay6-15" edge="1">
          <mxGeometry relative="1" as="geometry">
            <mxPoint x="990" y="325.24" as="targetPoint" />
            <Array as="points">
              <mxPoint x="955" y="324.24" />
            </Array>
          </mxGeometry>
        </mxCell>
        <mxCell id="Qdo3hB_uDaMukJDxGay6-17" style="edgeStyle=orthogonalEdgeStyle;rounded=1;orthogonalLoop=1;jettySize=auto;html=1;endArrow=none;startFill=0;entryX=1.006;entryY=0.67;entryDx=0;entryDy=0;entryPerimeter=0;fillColor=#d80073;strokeColor=light-dark(#A50040, #ff0062);strokeWidth=5;curved=0;" parent="Qdo3hB_uDaMukJDxGay6-1" source="Qdo3hB_uDaMukJDxGay6-18" target="Qdo3hB_uDaMukJDxGay6-14" edge="1">
          <mxGeometry relative="1" as="geometry">
            <mxPoint x="955" y="180" as="targetPoint" />
            <Array as="points">
              <mxPoint x="955" y="170" />
            </Array>
          </mxGeometry>
        </mxCell>
        <mxCell id="Qdo3hB_uDaMukJDxGay6-18" value="" style="shape=image;verticalLabelPosition=bottom;verticalAlign=top;imageAspect=0;image=data:image/png,iVBORw0KGgoAAAANSUhEUgAAAMgAAADICAYAAACtWK6eAAAABHNCSVQICAgIfAhkiAAAAAlwSFlzAAALEwAACxMBAJqcGAAAChVJREFUeJzt3XnsHGUdx/E3pZSrLUdLQUQEEUUNRIWIBIFGkUgkcmggIhGjwQuNGomiYgyJBGI0gLdGPJAjGjV4IAZSDzwRrwByiAcip0BtLS1HW+ofX1aWX38z+8zOzjMz3fcredKk+e3MM7Pz2Wd35jlAkiRJkiRJkiRJkiRJkiRJkiRJkiRJkiRJkiRJkiRJkiRJkiRJkiRJkiRJkiRJkiRJkiRJkiRJkiRJkiRJkiRJkiRJkiRJkiRJkiRJm5TN2q5AB80FTgEOBbZouS5t2wDcCpwP3NtyXdQR3yQuDMsT5XZgUZ2Tqk3DfrR/MXa1nF7jvPbWnLYr0DFPa7sCHTaV58aAPNm1wMNtV6Kjft52BdQNJwEP0f5Xmi6VLzOlN3Sm8qAT7AwcCMxrYd/nA7vO8v/vAu7KXJfHgFuAP2fer1ToZmb/FN+nzUpNK3+DSCUMiFTCgEglDIhUwoBIJQyIVMKASCUMiFTCgEglDIhUwoBIJQyIVGJu2xXIYAGwNbCK6Mau5swFdiR6AS9//F91zELgrcAVxJs03CP2DmLM+Ql0d0KGvvXmPQj4NHAjsI4n6vsI8HvgLGDv1mqn/9scOA1YQdogoNuBE1upabm+BGRf4Keknev1wIXATm1UVLAYuJrxRstdQnwF64o+BOQUooWoeq7vAQ5uob5TbRHRvNcZUnoTMYKwC7ockB2JD5Q653oNcFjuik+rOcAyJjPueh1wDrBl1iPYWFcDcjRwN5M51w8Au+et/nR6G6PfjNXAnaR/JbgBOCDnQczQtYDsAFxUUKfZyv2k/Q78Yc6DmEZbEt9pi96AZcAhPPGsZx7wKuD6ktcMylrgo7QzaUOXAnIUMVHEqPO1grhBsvPQa58JnMeT72zNLIfkOIhpdQLFJ/58imds2Qq4uOS1w+U64AWNHcHsuhCQ7YCvFtRjZrmZ8tu4rwQeLXjtxY3UXkDxRX4NaT0EjgfuK9jGzNbkTPI9N2k7IEcSz4tGnZf1wLmk3QH8cME2VmBvjsb8hdlP+rEVtrEE+HbBdmaWPxJz9zatrYAsBC4o2PfM8leqfT1aQNy9artlnCpFsx/uMMa2TiTurIy6MB4lPg2b7KLTRkCOIB6cjjr+x4BPAduMsY+i51RH1Ky7ChS9iePaBfhuyXaHy++A59XYV5mcAVkAfLFgfzPL34GlNfZ1WcF2j66xTZWYdEAGTmLjPlyzlUeADxJdXCYpV0BeBtxWsK+ZrcZngPk191cUkGNqblcFmgoIwFOAH5TsY7j8FnjOhPYLzQdkPvBZ4sIfdWy3AS+d0H4NSGZNBmTgDaQ99HoYeB+TaU2aDMhS4qtSSvC/QHwFmxQDklmOgAA8leg6n3JR/Rp4ds39NRGQbYku6Smtxu3Ay2vsq4gBySxXQAbeBKws2e+gPAS8l/Hv7086IIcQt2VTAv4l4nZvEwxIZrkDArEM2ZUl+x4uv2C8gUKTCsg2RFePlFbjDuAVY9S1CgOSWRsBGXgz8N+SOgzKamLhmyoLFU0iIAdT/CB1ZvkKsH2FbY/LgGTWZkAAnk56V/ufAc9I3G6dgGwFfILoBjKqTncR/aRyMSCZtR0QiJbh7cCDJfUZlAeBdzC6NRk3IC8uee3M8nXG63FQhwHJrAsBGdiT9PHZPwb2KNlW1YBsCXyM8m7lg3IP7T25NiCZdSkgEC3DO4nfHaMu1FXEzCuzqRKQF5E+3PgSYnhyWwxIZl0LyMBexJriKRftlWw89DQlIPOAs0lrNe4FjpvsIY7FgGTW1YBAPAN5D8VdvIfLSmKWkIFRAdmftFGRG4g5wBY3c4iVGZDMuhyQgWcBvyTtYr4C2I3igOxHDANem7Ct+4gBYV1iQDLrQ0AgWpPTKB6/MlxWUPx8JWW8xgZiANiSLEdWjQHJrC8BGdgH+A1pF/k45QHgtdmOpjoDklnfAgLR2/f9RO/fSYbjMmLAV5cZkMz6GJCB5wLXUj8Yy4kBXn1gQDLrc0AgxrV/iPHmuN0AfJ8Y2NUXBiSzvgdkYF9imYDUYPwHOLmVmtbTy4A4J1H/rCdmV5FK9b0F2Zx6X7G+Rb/W2+hlC9JnfQ7IpH6k/xt4Tea6j8uAZNbHgGwOnE7abd6VpHdf/wbd6VJSxIBk1reAVHlQeBXRibFqp8Qq067mZkAy60tAqnQ1WQW8ZZZtVO3WvmNjRzM+A5JZHwKyN+mdFZdRPpBqMDAqZTjt3cRaKF1iQDLrckDmAO8mrbv7g8Sw3dSJHQ4i/bfJheQfWlvEgGTW1YDsRfqKuz8hhutWVWVyhjvJOzlDEQOSWdcCUmXI7erH/7bKdECzqTq9z3Y191eHAcmsSwHZk2gNUi7Uq4lWZlK2Jn2CuH/R/ARxRQxIZl0IyGbESrurSuozKGuI3yVNde85lG5MMVrEgGTWdkB2J55XpFyQ405DWtW2xApQKa3JP4HDM9RpwIBk1mZATiFt6tG6E1mPaynpyxx8nvqL46QwIJm1EZDdgB+V7Hu4TGIphDrmA58jrTX5B5NbKKeIAcksd0DeSP7FdCbhcOLr1Kh6D5Za27ahehiQzHIFZFfg8pL9DZdrmOxybJNSZbHOvwGHNVAHA5JZjoC8nhjBN+qiegT4AN1pNYpUWe75k4y33HMRA5JZkwHZBfheyT6Gy7U0tyR0ExYCF5B2bLcCL5nQfg1IZk0F5HXEHFMprcYZxOQLfXQksbLUqONcD5xLPJCsw4BkNumALAG+U7Ld4fIHYrKFvtse+Bppx3wL0VFyXEUBaWs5hk1e0VjucfobnUDMZzvqInkU+Aj9bTWKHEWsOJXSmnyc6CxZVdGM90fUrLsKFHWrqDIOYjExA3rKJ+ifgOdPqO5dtANwEWnn4ibgwArbXkBx1/9JrP+uWVzK7Cf8V6Q9uT6OGKY66mJYC5wJbDHZ6nfWMcRKVKPOyzrgHGIg1yhnFGxjBU491ZgTKX7zzqO4K/lWxBp9KZ+U1wEvbOwIumsRxR9AM8v1lC9QeiTx1XS2117cTPUFcaGXtQBXEbco5wz9/bGkLT6zDjiLmDRhmr2amFpo1PlaTvRUHl7ibQ9iUFfZhBOTuoWsAqcy+s1bQ4zRTll4ZgNwA3BAzoPouJ1I/532GHGu70/428tzHsS0mkP6QKWUVuNs0r5TT6PjSbvTl1KWE+vMK4PFxF2VOm/YjcTUOiq3hFjBqs65XkN0x1dGOxGDksZ5wy6l/lPiaXMqxT+8y8o9xDh6tWAusXrTStLerLuIzogaz/6kzxS5nnhi36fJtjdZ2xMzhixj47HiDxCdEE9mvKfB2thSYoz7zBGMa4mHq2cTq/32Ut1pZ/pgEdFtexXxYErN2Zo43+uJH/Tr2q2OJEmSJEmSJEmSJEmSJEmSJEmSJEmSJEmSJEmSJEmSJEmSJEmSJEmSJEmSJEmSJEmSJEmSJEmSJElSBv8DhZGUYnvjcPsAAAAASUVORK5CYII=;rotation=90;" parent="Qdo3hB_uDaMukJDxGay6-1" vertex="1">
          <mxGeometry x="920" y="345.24" width="70" height="70" as="geometry" />
        </mxCell>
        <mxCell id="Qdo3hB_uDaMukJDxGay6-19" style="edgeStyle=orthogonalEdgeStyle;rounded=1;orthogonalLoop=1;jettySize=auto;html=1;exitX=1;exitY=0.5;exitDx=0;exitDy=0;endArrow=none;startFill=0;entryX=0.36;entryY=0;entryDx=0;entryDy=0;entryPerimeter=0;curved=0;fillColor=#d80073;strokeColor=light-dark(#A50040, #fa0060);strokeWidth=6;" parent="Qdo3hB_uDaMukJDxGay6-1" source="Qdo3hB_uDaMukJDxGay6-3" target="Qdo3hB_uDaMukJDxGay6-7" edge="1">
          <mxGeometry relative="1" as="geometry">
            <mxPoint x="850" y="480" as="targetPoint" />
            <Array as="points">
              <mxPoint x="832" y="350" />
            </Array>
          </mxGeometry>
        </mxCell>
        <mxCell id="Qdo3hB_uDaMukJDxGay6-20" value="CV 5" style="shape=image;verticalLabelPosition=bottom;verticalAlign=top;imageAspect=0;image=data:image/png,iVBORw0KGgoAAAANSUhEUgAAAgAAAAFVCAYAAACZ01cjAAAABmJLR0QA/wD/AP+gvaeTAAAaBklEQVR4nO3deZQdZZ3G8W9CSNhCWBLCEnYQZN8XQTYJyiI7jGcg0KMox+UA47ig4xxg9CAoyjbqgCIYGDdUGMERERBBZBEEFMOmsgiDsjvskNDzx5uWTtvp7ntvVf3qrfp+zqkjeMi9z73pvvXc9633LZAkSZIkSZIkSZIkSZIkSZIkSZIkSZIkSZIkSZIkSZIkSZIkSZIkSZIkSZIkSZIkSZIkSZIkSZIkSZIkSZIkSZIkSZIkSZIkSZIkSZIkSZIkSZIkSZIkSZIkSZIkSZIkSZIkSZIkSZIkSZIkSZIkSZIkSZIkSRWYEB1AktQc46IDaAGrAjsDmwIbAusDywBLA4sArwN/nX/MAe4CbgWuBp4OyCtJkrq0AXAa8ADQ3+UxF7gR+BCpMEiSpJraE7iO7k/6CzteBM4BZlT3UiRJ0mh2BG6h+BP/cEXgFGDxal6WJEkaznLAeaR5/LJP/oOPu4GtKnh9kiRpiG2Bh6j2xD/4eBU4uvRXKUmS/uYo4BXiTv6Djy8C48t9uZIk6RTiT/pDj29gCZAkqTQfJf5kv7Dj9BJftyRJrTWL6i/26/Q4rrRXL0lSC21CWoIXfYIf7XiVtCRRkiT1aDJwP/En97EeDwFLlfJOSJJqbZHoAA1zMrBPdIgOTJn/v9eEppAkKWPrk4bVo7/Vd3q8AqxVwvshSVIr/Ij4k3m3xwXFvx2SJDXfZsSfxHs55gLrFv6uSJJqa0J0gIb4SHSAHi0CvBf4WHQQSdlbBji0oMe6iLSqSqqlZanPVr+9HH8BFi34vZHUPutT3OfStIqzt4pbwvbuQGBidIgCrADsHh1CUvb6owNobCwAvTskOkCB9ooOICl7FoBMWAB6MxF4a3SIAu0ZHUCSVA0LQG+2BpaIDlGgtYHp0SEkZc0RgExYAHqzZXSAEmwSHUBS1iwAmbAA9KaJa+ctAJJ6YQHIhAWgN+tEByjBjOgAkqTyWQB608Q1ql4DIKkXjgBkwgLQmyWjA5Rg+egAkrJmAciEBaA3TVoBMMCfCUlqAT/se/NydIAS2N4l9cLPkExYAHrzfHSAEqxO2hZYkrphAciEBaA3j0cHKMGbgDuAXaODSMqSBSATFoDe3B0doCQrAVcDZ9KMGx1Jqo4FIBMWgN7MiQ5QonHAMcAVwMrBWSRJBbMA9Obn0QEqsCup6DTproeSyuMIgFrjUdIPfNOPecDJwIRi3jZJDTWD4j53mrjZWm04AtC7b0cHqMh44BPATTRzC2RJxXAEQK2xBfHfzqs+ngT2KeLNk9Q4K+MIgFrk58SflCOO2TRzN0RJ3VsJC4Ba5ADiT8ZRx83AGj2/g5KawgKg1rmO+JNx1PF/wGG9v4WSGmBFLABqmW2A14g/GUceZwOTen0jJWVtOhYAtdDHiD8JRx93Axv3+kZKytYKWADUQuOBK4k/CUcfLwLH9vheSsrTNCwAaqkZwCPEn4TrcJwDLN7b2ykpMxYAtdo6wF+IPwHX4bgH2LS3t1NSRqZiAVDL7QQ8T/wJuA7Hc8ARvb2dkjJhAZCAjYCHiD8B1+X4AbBMT++opLpbHguABMBqpP3zo0++c4FPAvcF55hDKkaSmmk5LADS3ywKXEDsyf/d87NMBv4rMEs/aZXAUV2/m5LqbFksANIC+og52f6a4dflHwQ8G5Rp4LiU9G1BUnMsgwVAWkAf1Z5cHwU+zMjL8DYCfldxrqHHfcDmY30TJdWeBUAaoo/yT6avk+5MeCRj35J3SeD8CrKNdLwEfHCMeSXV2xQsANIC+ijv5HkF8CF6uyvfLNJyvcgi8D1cJSDlzgIgDdFHsSfLs4G9Sd/gi7I+cGfBOTs9/ghsXeBrklStpbEASAvoo9gT5aol5ZwAnAjMKzhvJ8fc+RnGl/QaJZVnMhYAaQF95FEABrwTeLLgzJ0eVwMrlfw6JRVrKSwAWfAblhbmMmBb4LbADLuRNlHaITCDJDWSBUAj+QOwHXASaYVBhNWA64EzSRsqSaq3/ugAUt30kdcUwFBvAx4rKHu3x03AmmW/UEk9WQKnALLgCIDG6mrSbX2vDMywLXA7cEhgBkkjcwQgExYAdeJxYC/SlMC8oAxTgO8C5zD2zY4kVccCIA3RR95TAEPtQtpuOHJK4DZg3ZJfp6TOLIZTAFlwBEDduhbYDPhxYIYtSCXg8MAMkhbkCEAmLADqxROk3QiPA14LyjAZuBCYTVp/LCmWBUAaoo9mTQEMtQ1pG9/IKYF7SKMSkuJMxCmALDgCoKLcQtrD//LADOuRlgoeC4wLzCG1mSMAmbAAqEhPAfuSpgReDcowCTgDuARYLiiD1GYWgExYAFS0ftKufTuQdhKMsh9wB7BjYAapjSwAmbAAqCy3kq7S/05ghlWBn5HuLLhIYA5JUov10eyLAEdyBPAisRcIXgOsXPYLlcR4vAgwC44AqAqzSVMC9wdm2JU0JbBXYAapDZwCyIQFQFW5HdgS+GZghmmkVQpnkpYqSZJUuj7aOwUw1BHA88ROCdwCrF32C5VayimADDgCoAizSXsG/DYww9bAr4F3BWaQpDAWAEW5m3R733MDMywNfItUSJYIzCE1jdcBSIP04RTAwhwBPEfslMAcYOOyX6jUEvNwCqD2HAFQHcwGtgLuDMzwZuBm0jbCktR4FgDVxb3AdsBZgRkWJ20j/D1gmcAcUu6cApAG6cMpgLE6EHiG2CmBB4HtS36dUlO9hlMAtecIgOroB6Tb+t4UmGF14DrSNsL+nkiSutaHIwCdmkTatOd1YkcDrgRWLPm1Sk3yKo4A1J7fbFRnr5AuyjsAeDowx0zSNsJ7BGaQctIfHUCjswAoB/9NmhK4ITDDdOAK0ojEooE5pBxYADJgAVAu/gTsApxEmhKIMA44BrgKmBGUQZKUmT68BqAouwN/Jva6gCeBd5b9QqVMvYTXANSeIwDK0VWkjYOuD8ywPGlq4kzSxYqS3uAUQAYsAMrVI8CupCmBeUEZBqYEfgmsG5RBqiMLQAYsAMrZPNI6/ZnAY4E5tgBuAw4PzCBJHbEAqAl+Rlol8JPADJOBC0n3NVgqMIdUB44AZMACoKZ4HNgTOI60DWmUWcCtpEIitZUFIAMWADVJP+mivN2BRwNzrAfciHcWlFRjFgA10XWkb+D/E5hhMdKdBS8BlgvMIUVwBCADFgA11ZPAPqQpgVcDc+wP3A7sEJhBqpoFIAMWADXZwJTAjsAfA3OsBlyLdxZUe1gAMuCHkdrgV6SlehcHZpgAnAD8FFgpMIckARYAtcdfgUOBo0l3GYyyG3AnacWC1FSOAGTAAqC2ORd4C/D7wAzTgB/hnQXVXBaADFgA1Ea/Jk0JfCsww8A2wjcAawXmkNRSFgC11XPAYcCHiV0lsDVwE7BXYAapaI4AZMACoDbrB04HNgfuCswxMCUwG1giMIdUFAtABiwAEswBtgcuCs4xi7RiYePgHFKvLAAZsABIyfOkE/CRwAuBOTYAbsZthCWVzAIgLWg2sBXwm8AMi5O2Ef4esExgDqlbjgBkwAIg/b17gG2Bs4JzHATcQZqekHJiAciABUAa3sukYfiDgWcDc6xOurnRifj7KqlAfqBII/s+aTTg9sAMA9sI/wRYMTCHNFaOAGTAAiCN7j7SMHz0lMDupG2E3x6cQxqNBSADFgBpbF4hTQkcADwTmGMF4Me4jbDqzQKQAQuA1JlLgc2AGwMzDGwj/AtgzcAckjJmAZA69zCwE3AS8Hpgjm1I1yYcGphBGo4jABmwAEjdmUu6Mn9/4KnAHFOA7+A2wqoXC0AGLABSby4jTQn8IjjHLOAWYKPgHBJYALJgAZB69wiwK/FTAhuSSoDbCEtSjfSRWnFRx6qVptdY7QY8RrF/190cF+M2worzMMX8HE+rOnibOAIgFesaYFPgyuAcB5MuENwuOIfaySmADFgApOI9DrwDOB6YF5hjDdxGWJLC9eEUQBvtAjxK/JTAlbiNsKrzIE4B1J7fCqRyXUtaJfDj4BwzSXcW3CM4h9rBKYAMWACk8j0B7A0cB7wWmGM6biOsalgAMmABkKrRTzrx7gg8EJhjPGkb4etwG2Gp1SwAUrVuAbYGLg/OsR1plcAhwTnUTI4AZMACIFXvKWA/4FOkLYWjTAG+DZyCUwKDebvl3lkApEH6cBWA/t5WwO+JXyVwG/Cmkl9rDmaR3o89o4NkrqifaVcBqBH6sABoeEuTvolHl4DnSCfAtlqP9B70k7Z3XjY2TtbuxwIg/U0fFgCN7AjgReKLwGxgqZJfa91MBG5lwffhvNBEebsPC0Dtjevxz2+CQ2VjtSXFXnC1GvCnAh9P9bAd8C3SLn6R7gLeBfwuOEdVPkvauXGwftK+CVdVHyd791LMlNKdxF4nk7MXgZ3KfIJ3E/9tpa2HIwDNNRm4iPifsZdJdxbs9YtC3e1LuovjcO/BozgV0I17if/5bfvx3Gh/Sa4CkOrnOeBw4EjghcAck4AzgEuB5QNzlGll4GssvOSsDHyxujiN0R8dQKOzAEj1NZu0Z8Bvg3PsS9pGuNThxACLAN9k9HnmPmD/0tM0iwUgAxYAqd7uBrYFzgrOMYN0q+MTSSfOJjge2HmM/+2XgeVKzNI0FoAW8BqAuMNrANpnFm8sU4s8rgVWKfellm4H0n0ZOnnds0OS5mkO8T+nbT+8BkBqkAtJGwfdEZxj5/kZ9gnO0a3lSfsuTOjwz80CDiw+TiP1RwfQ6CwAUl7uBbYnfkpgKvBD0g2OJgVn6dS5pCmNbnwJpwLGwgKQAQuAlJ+B5XkHAs8G5hhHurPgL4F1A3N04v309i1+ReLLl1QIC4CUr0uAzYCbgnNsQbqXwOHBOUazKcUs6TsMOKiAx2kyRwAyYAGQ8vYQaXneqcR+6E4mXaNQ122ElyAt+VusoMf7CrBCQY/VRBaADFgApPy9RlrStj/wdHCWWaQ99TcLzjHUGcAGBT7eNNL1DxqeBSADFgCpOX5IOvHeEJxjPdK0RF22Ef5H4L0lPO67gINLeFypEhYAqVn+BOwCnETa3z7KwDbClxB71fyapE18yvIVYHqJj58rRwAyYAGQmmcuace+twN/jo3CfqQ9A94a8NwTge8AU0p8jqnA2SU+fq4sABmwAEjNdRVp46DrgnOsSsw2wv9OupdC2Q4BDq3geaRCWQCkZnsU2I00JTAvMMcE4ATgp6Q77JVtJvDRCp5nwJdwKmAwRwAyYAGQmm8e6dv3TOCx2CjsCtwJ7F3ic6wEXES1n29TgXMqfL66swBkwAIgtcfPSJvhXBGcYypwGWkZ3cSCH3s8cAExa/T3I60MkAUgCxYAqV2eAPYCjiPtHxBlYBvhG4B1CnzcfwH2KPDxOvUfpO2Cpdrr9G5YQz0AXFxEkIZblLRJi1QH/aRv33NIu/dFzl1vBdwMvAe4tMfH2hz4dM+JerM86b39h+Ac0YocATgbuL7Ax2uLudEBlEyh+Hs9r1rpK1BTTQUuJ/7e5f2kbYSX7PJ1TAH+UIPXMHAc1uXraIpbKO69rPs9JqQRWQBUZ+NIu/a9QvyJ827SdQqd+m4Nsg8+ngFW6eJ1NIUFQJrPAqAcbE09vkW/RCokY/WeGmQe7risg9fQNDdjAZAAC4DyMYW0e170ybOfsW0j/GbghRpkXdgxa5T8TXUTFgAJsAAoP+8DXib+BPoQsONCMi4O/LYGGUc6ngVmjPZmN9CNWABqz2WAkoZzLvAW4PfBOVYj7V9wIn//efV5YKOqA3VoCvCf0SEkxXEEQLmaDHyT+G/S/cDVvLGN8AE1yNPJ0dfJm94Av8QRAAmwAChv40gbB9VhlcAjpDX2j9cgSyfHk7Rrg6AbsADUnlMAkkbTD5xB2mjnruAsqwDfBqYF5+jU8qR9DsZFB6lIf3QAjc4CIGms5gDbAF+NDpKpmcA/RYeQBlgAJHXiJdIKgSNJy+/UmdNJFzY2nSMAGbAAVMNfBjXNbNI+/r+JDpKZpYGv0/ypAD/zMmABkNSte4BtgbOig2TmbcBR0SEkC4CkXrxM2rb3YNKmNxqb02j2VIAjABmwAEgqwvdJFwjeHh0kE0sD59PcqQALQAYsAJKKcj+wPWlKwBPA6HYjXVDZRP79Z8ACIKlIr5CmBA4k3RJXI/sCsHZ0CLWTBUBSGS4FNiNtCauFW5K0r0LTpgIcAciABUBSWR4GdgZOAl4PzlJnuwLvjw5RMAtABiwAkso0l3Qnv/2Ap2Kj1NrngHWiQ6hdLACSqnA5aUrg+uggNbUkcAHN+Ux2BCADTflhk1R/j5CufHdKYHg7AB+IDlEQC0AGLADV8JdBSgamBGYCj8VGqaVTgXWjQxTAz7wMWAAkRbiGNCVwZXSQmlmCZk0FqMb8IZMU5XFgb9K3Xr3hLcDR0SF65AhABiwAkiLNBf4SHaKGTiPvqQALQAYsAJIibQx8NjpEDS0BfANYJDpIlywAGbAASIoyEZgNTIoOUlPbA8dEh1BzWQAkRTmBdCGgFu5kYIPoEF1wBCADFgBJEXYCjo8OkYHFgPPIbyrAApABC4Ckqk0GzsfPn7HaDvjn6BBqHn8BJVXtNGCt6BCZ+QywYXSIDjgCkAELgKQq7QO8LzpEhiaR11SABSADFgBJVZlOOompO9sCH4kOMUYWgAxYAKrhL4ME5wArRIfI3EnARtEh1AwWAElVOALYLzpEA0wibRC0aHSQUfilJwMWAEllWx04KzpEg2xB/acCLAAZsABIKtMiwIXAlOggDXMCaRtlqWsWAEllOhZ4a3SIBqr7VIAjABmwAEgqy8akrWxVjs2Bj0eHWAgLQAYsAJLK4I1+qvFvwCbRIYZhAciABUBSGbzRTzUmUu+pANWYBUBS0bzRT7U2Az4RHWIIRwAyYAGQVKTJwAX42VK1fwO2jA4xiAUgA/6SSirSacCa0SFaaAJpm+WJ0UGUDwuApKJ4o59YmwKfjA4xnyMAGbAAVMNfBjXddODr0SHEvwJbRYfAz7wsWAAkFeEcYFp0CDGBtCpgseAcFoAMWAAk9cob/dTLBqSRAGlEFgBJvfBGP/V0PLB14PM7ApABC4Ckbi0CXIQ3+qmj6KkAC0AGLACSunUssGN0CC3Um0n7A0SwAGTAAiCpG5vgjX5y8DFgm+gQqicLgKRODew/741+6i9qKsARgAxYACR16kS80U9O1if9nVXJApABC4CkTuxEfe9Br4X7KF6voSEsAJLGyhv95Gs88DVg8YqezxGADPiLLGms1gfuA16KDqKurAd8qqLnsgBkwAJQDX8Z1AS/At5BGgnYCjgJuA14PTKUOnI81UwF+JmXAQuApE7NI534TyQVgRWBQ4Fzgf+Ni6UxqHoqQDVmAZDUqyeAi4GjgVVJpeB44Crg1cBcGt56wGdKfg5HADJgAZBUpNdJowOnAjOB5YB9SaMDDwXm0oKOI63oKIsFIAMWAEllegG4jDQ6sAaw9vx/vhx4OS5W640HzgeWig6iOBYASVX6I2k04J2k0YGZpNGC2yJDtdRawKdLemxHADIwITqApNZ6iXSdwFXz/30NYA9gd1IxWCYmVqscA1wK/Lzgx7UAZMARAEl18SBpdOBQYCouNaxCWVMBFoAMWAAk1ZFLDauzJt7ZsZUsAJJyMHip4SrARrjUsEgfBHYp8PEcAciABUBSjn7HgksNZwJn4VLDbg1MBUwu6PEsABmwAFTDXwapPC+QRgKOZcGlhhcDz8fFys4awGcLeiw/8zJgAZDUNANLDQ8FVsClhp34AGklhlrAZYCSmmzoUsMVSSe4fXCp4XDGkcrTxsBzPTyOIwAZcARAUpv8GZjNgksNjwduwKWGA1YHPtfjY1gAMmABkNRWA0sNTyXdInc6LjUccDTw9ugQKpcFQJKSJ3Gp4YBxwHl0P0XiCEAGLACSNLy2LzVche6nAiwAGbAASNLo2rrU8Chgzy7+nAUgAxYASercSEsNm3TyGwd8FVg2OoiKZwGQpN4MLDU8nrSqYGXgSNLowLOBuYqyCvD5Dv9Mk0pQY1kAJKlYTVxq+B46mwqwAGTAAiBJ5RlpqeGjgbm68TWcCmgUC0A1bMOSYMGlhjPIa6nhysAXx/jf+pknzbcY6ReiyGPVSl+BpLItCewOnAk8SPGfGUUd+4/htZxe4PMdPobnUxccAZCkehhpqWEv+/IX7cukfRFG4ghABiwAklRPg5caTqc+Sw1XIn3DlzQGTgFIKtKKwBHAd4FniJkKOGCEfF8o8HmcAiiJIwCSlJ86LDX8EgufCnAKIAMWAEnKW9RSw5VI90aQNAKnACRF2RD4OPBT4BWK/yw6aJjn/HyBj+8UgLJmAZBUB4OXGj5AMZ9Fj5PuhzDY5wp6bAtAiZwCkKT2GLzUcE2KWWo4DThjyP/nNQDSfI4ASKq7xUijA6cAt5IuJuzkM+ngQY91aod/1hEANdYkLACS8jJ4qeHTjP6Z9ARvTAWcMob/3gIQzCkASdJwBi81nMboSw2nAmfP/2enAKT5HAGQ1CRTgUOAc4BHWPCz6RDgZIr7rHMEQFmzAEhqssFLDR8FzsMCIAEWAEntMZU0dWABqDmvAZAkFelJ4OHoEBqdBUCSpBayAEiSiuYqgAxYACRJRbMAZMACIEkqmgUgAxYASZJayAIgSSqaIwAZmBAdoCXmkrbQLNKzBT+eJKlFxkUHkCQ1zuKkuwsW4QXg1YIeS5IkSZIkSZIkSZIkSZIkSZIkSZIkSZIkSZIkSZIkSZIkSZIkSZIkSZIkSZIkSZIkSZIkSZIkSZIkSZIkSZIkSZIkSZIkSZIkSZIkSZIkSZIkSZIkSZIkSZIkSZIkSZIkSZIkSZIkSZIkSZIkSZIkSZIkSZIkSZIkSZIkSZIkSZIkSZIkSZIkSZIkSZIkSZIkSZKkzv0/5hxqzKl1xLwAAAAASUVORK5CYII=;rotation=90;" parent="Qdo3hB_uDaMukJDxGay6-1" vertex="1">
          <mxGeometry x="803.98" y="1080" width="52" height="35" as="geometry" />
        </mxCell>
        <mxCell id="Qdo3hB_uDaMukJDxGay6-21" style="edgeStyle=orthogonalEdgeStyle;rounded=1;orthogonalLoop=1;jettySize=auto;html=1;entryX=0;entryY=0.5;entryDx=0;entryDy=0;endArrow=none;startFill=0;fillColor=#d80073;strokeColor=light-dark(#A50040, #fa0060);curved=0;strokeWidth=6;" parent="Qdo3hB_uDaMukJDxGay6-1" source="Qdo3hB_uDaMukJDxGay6-22" target="Qdo3hB_uDaMukJDxGay6-20" edge="1">
          <mxGeometry relative="1" as="geometry" />
        </mxCell>
        <mxCell id="Qdo3hB_uDaMukJDxGay6-22" value="flow&lt;div&gt;sensor&lt;/div&gt;" style="verticalLabelPosition=bottom;sketch=0;html=1;fillColor=#A153A0;strokeColor=#ffffff;verticalAlign=top;align=center;points=[[0,0.5,0],[0.125,0.25,0],[0.25,0,0],[0.5,0,0],[0.75,0,0],[0.875,0.25,0],[1,0.5,0],[0.875,0.75,0],[0.75,1,0],[0.5,1,0],[0.125,0.75,0]];pointerEvents=1;shape=mxgraph.cisco_safe.compositeIcon;bgIcon=mxgraph.cisco_safe.design.blank_device;resIcon=mxgraph.cisco_safe.design.flow_sensor;rotation=90;" parent="Qdo3hB_uDaMukJDxGay6-1" vertex="1">
          <mxGeometry x="809.98" y="960" width="40" height="36" as="geometry" />
        </mxCell>
        <mxCell id="Qdo3hB_uDaMukJDxGay6-23" style="edgeStyle=orthogonalEdgeStyle;rounded=1;orthogonalLoop=1;jettySize=auto;html=1;entryX=0.36;entryY=1;entryDx=0;entryDy=0;entryPerimeter=0;endArrow=none;startFill=0;fillColor=#d80073;strokeColor=light-dark(#A50040, #fa0060);curved=0;strokeWidth=6;" parent="Qdo3hB_uDaMukJDxGay6-1" source="Qdo3hB_uDaMukJDxGay6-22" target="Qdo3hB_uDaMukJDxGay6-7" edge="1">
          <mxGeometry relative="1" as="geometry">
            <Array as="points">
              <mxPoint x="832" y="840" />
            </Array>
          </mxGeometry>
        </mxCell>
        <mxCell id="Qdo3hB_uDaMukJDxGay6-24" style="edgeStyle=orthogonalEdgeStyle;rounded=1;orthogonalLoop=1;jettySize=auto;html=1;exitX=0;exitY=0.5;exitDx=0;exitDy=0;exitPerimeter=0;entryX=0.75;entryY=0;entryDx=0;entryDy=0;endArrow=none;startFill=0;fillColor=#d80073;strokeColor=light-dark(#A50040, #fa0060);curved=0;strokeWidth=6;" parent="Qdo3hB_uDaMukJDxGay6-1" source="Qdo3hB_uDaMukJDxGay6-25" target="Qdo3hB_uDaMukJDxGay6-8" edge="1">
          <mxGeometry relative="1" as="geometry">
            <Array as="points">
              <mxPoint x="830" y="1284" />
              <mxPoint x="830" y="1330" />
              <mxPoint x="672" y="1330" />
            </Array>
          </mxGeometry>
        </mxCell>
        <mxCell id="Qdo3hB_uDaMukJDxGay6-25" value="Pressure&amp;nbsp;&lt;div&gt;sensor&lt;/div&gt;" style="verticalLabelPosition=bottom;aspect=fixed;html=1;verticalAlign=top;fillColor=strokeColor;align=center;outlineConnect=0;shape=mxgraph.fluid_power.x11770;points=[[0,0.5,0]]" parent="Qdo3hB_uDaMukJDxGay6-1" vertex="1">
          <mxGeometry x="849.98" y="1270" width="46.82" height="27.96" as="geometry" />
        </mxCell>
        <mxCell id="Qdo3hB_uDaMukJDxGay6-26" style="edgeStyle=orthogonalEdgeStyle;rounded=1;orthogonalLoop=1;jettySize=auto;html=1;exitX=1;exitY=0.5;exitDx=0;exitDy=0;entryX=0;entryY=0.5;entryDx=0;entryDy=0;entryPerimeter=0;endArrow=none;startFill=0;fillColor=#d80073;strokeColor=light-dark(#A50040, #fa0060);curved=0;strokeWidth=6;" parent="Qdo3hB_uDaMukJDxGay6-1" source="Qdo3hB_uDaMukJDxGay6-20" target="Qdo3hB_uDaMukJDxGay6-25" edge="1">
          <mxGeometry relative="1" as="geometry" />
        </mxCell>
        <mxCell id="Qdo3hB_uDaMukJDxGay6-27" style="edgeStyle=orthogonalEdgeStyle;rounded=1;orthogonalLoop=1;jettySize=auto;html=1;entryX=1;entryY=0.5;entryDx=0;entryDy=0;endArrow=none;startFill=0;fillColor=#60a917;strokeColor=light-dark(#2D7600, #61f505);strokeWidth=5;curved=0;" parent="Qdo3hB_uDaMukJDxGay6-1" source="Qdo3hB_uDaMukJDxGay6-28" target="Qdo3hB_uDaMukJDxGay6-32" edge="1">
          <mxGeometry relative="1" as="geometry" />
        </mxCell>
        <mxCell id="Qdo3hB_uDaMukJDxGay6-28" value="" style="rounded=1;whiteSpace=wrap;html=1;fillColor=#60a917;fontColor=#ffffff;strokeColor=#2D7600;" parent="Qdo3hB_uDaMukJDxGay6-1" vertex="1">
          <mxGeometry y="565.24" width="70" height="140" as="geometry" />
        </mxCell>
        <mxCell id="Qdo3hB_uDaMukJDxGay6-29" value="" style="verticalLabelPosition=bottom;aspect=fixed;html=1;verticalAlign=top;fillColor=strokeColor;align=center;outlineConnect=0;shape=mxgraph.fluid_power.x11820;points=[[0.5,1,0]];rotation=90;" parent="Qdo3hB_uDaMukJDxGay6-1" vertex="1">
          <mxGeometry x="90" y="414.76" width="39.84" height="59.85" as="geometry" />
        </mxCell>
        <mxCell id="Qdo3hB_uDaMukJDxGay6-30" style="edgeStyle=orthogonalEdgeStyle;rounded=1;orthogonalLoop=1;jettySize=auto;html=1;exitX=0;exitY=0.5;exitDx=0;exitDy=0;entryX=0.5;entryY=1;entryDx=0;entryDy=0;entryPerimeter=0;endArrow=none;startFill=0;fillColor=#60a917;strokeColor=light-dark(#2D7600, #61f505);strokeWidth=5;curved=0;" parent="Qdo3hB_uDaMukJDxGay6-1" source="Qdo3hB_uDaMukJDxGay6-32" target="Qdo3hB_uDaMukJDxGay6-29" edge="1">
          <mxGeometry relative="1" as="geometry">
            <mxPoint x="70" y="445.24" as="targetPoint" />
            <Array as="points">
              <mxPoint x="35" y="444.24" />
            </Array>
          </mxGeometry>
        </mxCell>
        <mxCell id="Qdo3hB_uDaMukJDxGay6-31" style="edgeStyle=orthogonalEdgeStyle;rounded=1;orthogonalLoop=1;jettySize=auto;html=1;exitX=0;exitY=0.5;exitDx=0;exitDy=0;entryX=1;entryY=0.5;entryDx=0;entryDy=0;endArrow=none;startFill=0;fillColor=#60a917;strokeColor=light-dark(#2D7600, #61f505);strokeWidth=5;curved=0;" parent="Qdo3hB_uDaMukJDxGay6-1" source="Qdo3hB_uDaMukJDxGay6-32" target="Qdo3hB_uDaMukJDxGay6-35" edge="1">
          <mxGeometry relative="1" as="geometry" />
        </mxCell>
        <mxCell id="Qdo3hB_uDaMukJDxGay6-32" value="" style="shape=image;verticalLabelPosition=bottom;verticalAlign=top;imageAspect=0;image=data:image/png,iVBORw0KGgoAAAANSUhEUgAAAMgAAADICAYAAACtWK6eAAAABHNCSVQICAgIfAhkiAAAAAlwSFlzAAALEwAACxMBAJqcGAAAChVJREFUeJzt3XnsHGUdx/E3pZSrLUdLQUQEEUUNRIWIBIFGkUgkcmggIhGjwQuNGomiYgyJBGI0gLdGPJAjGjV4IAZSDzwRrwByiAcip0BtLS1HW+ofX1aWX38z+8zOzjMz3fcredKk+e3MM7Pz2Wd35jlAkiRJkiRJkiRJkiRJkiRJkiRJkiRJkiRJkiRJkiRJkiRJkiRJkiRJkiRJkiRJkiRJkiRJkiRJkiRJkiRJkiRJkiRJkiRJkiRJkiRJm5TN2q5AB80FTgEOBbZouS5t2wDcCpwP3NtyXdQR3yQuDMsT5XZgUZ2Tqk3DfrR/MXa1nF7jvPbWnLYr0DFPa7sCHTaV58aAPNm1wMNtV6Kjft52BdQNJwEP0f5Xmi6VLzOlN3Sm8qAT7AwcCMxrYd/nA7vO8v/vAu7KXJfHgFuAP2fer1ToZmb/FN+nzUpNK3+DSCUMiFTCgEglDIhUwoBIJQyIVMKASCUMiFTCgEglDIhUwoBIJQyIVGJu2xXIYAGwNbCK6Mau5swFdiR6AS9//F91zELgrcAVxJs03CP2DmLM+Ql0d0KGvvXmPQj4NHAjsI4n6vsI8HvgLGDv1mqn/9scOA1YQdogoNuBE1upabm+BGRf4Keknev1wIXATm1UVLAYuJrxRstdQnwF64o+BOQUooWoeq7vAQ5uob5TbRHRvNcZUnoTMYKwC7ockB2JD5Q653oNcFjuik+rOcAyJjPueh1wDrBl1iPYWFcDcjRwN5M51w8Au+et/nR6G6PfjNXAnaR/JbgBOCDnQczQtYDsAFxUUKfZyv2k/Q78Yc6DmEZbEt9pi96AZcAhPPGsZx7wKuD6ktcMylrgo7QzaUOXAnIUMVHEqPO1grhBsvPQa58JnMeT72zNLIfkOIhpdQLFJ/58imds2Qq4uOS1w+U64AWNHcHsuhCQ7YCvFtRjZrmZ8tu4rwQeLXjtxY3UXkDxRX4NaT0EjgfuK9jGzNbkTPI9N2k7IEcSz4tGnZf1wLmk3QH8cME2VmBvjsb8hdlP+rEVtrEE+HbBdmaWPxJz9zatrYAsBC4o2PfM8leqfT1aQNy9artlnCpFsx/uMMa2TiTurIy6MB4lPg2b7KLTRkCOIB6cjjr+x4BPAduMsY+i51RH1Ky7ChS9iePaBfhuyXaHy++A59XYV5mcAVkAfLFgfzPL34GlNfZ1WcF2j66xTZWYdEAGTmLjPlyzlUeADxJdXCYpV0BeBtxWsK+ZrcZngPk191cUkGNqblcFmgoIwFOAH5TsY7j8FnjOhPYLzQdkPvBZ4sIfdWy3AS+d0H4NSGZNBmTgDaQ99HoYeB+TaU2aDMhS4qtSSvC/QHwFmxQDklmOgAA8leg6n3JR/Rp4ds39NRGQbYku6Smtxu3Ay2vsq4gBySxXQAbeBKws2e+gPAS8l/Hv7086IIcQt2VTAv4l4nZvEwxIZrkDArEM2ZUl+x4uv2C8gUKTCsg2RFePlFbjDuAVY9S1CgOSWRsBGXgz8N+SOgzKamLhmyoLFU0iIAdT/CB1ZvkKsH2FbY/LgGTWZkAAnk56V/ufAc9I3G6dgGwFfILoBjKqTncR/aRyMSCZtR0QiJbh7cCDJfUZlAeBdzC6NRk3IC8uee3M8nXG63FQhwHJrAsBGdiT9PHZPwb2KNlW1YBsCXyM8m7lg3IP7T25NiCZdSkgEC3DO4nfHaMu1FXEzCuzqRKQF5E+3PgSYnhyWwxIZl0LyMBexJriKRftlWw89DQlIPOAs0lrNe4FjpvsIY7FgGTW1YBAPAN5D8VdvIfLSmKWkIFRAdmftFGRG4g5wBY3c4iVGZDMuhyQgWcBvyTtYr4C2I3igOxHDANem7Ct+4gBYV1iQDLrQ0AgWpPTKB6/MlxWUPx8JWW8xgZiANiSLEdWjQHJrC8BGdgH+A1pF/k45QHgtdmOpjoDklnfAgLR2/f9RO/fSYbjMmLAV5cZkMz6GJCB5wLXUj8Yy4kBXn1gQDLrc0AgxrV/iPHmuN0AfJ8Y2NUXBiSzvgdkYF9imYDUYPwHOLmVmtbTy4A4J1H/rCdmV5FK9b0F2Zx6X7G+Rb/W2+hlC9JnfQ7IpH6k/xt4Tea6j8uAZNbHgGwOnE7abd6VpHdf/wbd6VJSxIBk1reAVHlQeBXRibFqp8Qq067mZkAy60tAqnQ1WQW8ZZZtVO3WvmNjRzM+A5JZHwKyN+mdFZdRPpBqMDAqZTjt3cRaKF1iQDLrckDmAO8mrbv7g8Sw3dSJHQ4i/bfJheQfWlvEgGTW1YDsRfqKuz8hhutWVWVyhjvJOzlDEQOSWdcCUmXI7erH/7bKdECzqTq9z3Y191eHAcmsSwHZk2gNUi7Uq4lWZlK2Jn2CuH/R/ARxRQxIZl0IyGbESrurSuozKGuI3yVNde85lG5MMVrEgGTWdkB2J55XpFyQ405DWtW2xApQKa3JP4HDM9RpwIBk1mZATiFt6tG6E1mPaynpyxx8nvqL46QwIJm1EZDdgB+V7Hu4TGIphDrmA58jrTX5B5NbKKeIAcksd0DeSP7FdCbhcOLr1Kh6D5Za27ahehiQzHIFZFfg8pL9DZdrmOxybJNSZbHOvwGHNVAHA5JZjoC8nhjBN+qiegT4AN1pNYpUWe75k4y33HMRA5JZkwHZBfheyT6Gy7U0tyR0ExYCF5B2bLcCL5nQfg1IZk0F5HXEHFMprcYZxOQLfXQksbLUqONcD5xLPJCsw4BkNumALAG+U7Ld4fIHYrKFvtse+Bppx3wL0VFyXEUBaWs5hk1e0VjucfobnUDMZzvqInkU+Aj9bTWKHEWsOJXSmnyc6CxZVdGM90fUrLsKFHWrqDIOYjExA3rKJ+ifgOdPqO5dtANwEWnn4ibgwArbXkBx1/9JrP+uWVzK7Cf8V6Q9uT6OGKY66mJYC5wJbDHZ6nfWMcRKVKPOyzrgHGIg1yhnFGxjBU491ZgTKX7zzqO4K/lWxBp9KZ+U1wEvbOwIumsRxR9AM8v1lC9QeiTx1XS2117cTPUFcaGXtQBXEbco5wz9/bGkLT6zDjiLmDRhmr2amFpo1PlaTvRUHl7ibQ9iUFfZhBOTuoWsAqcy+s1bQ4zRTll4ZgNwA3BAzoPouJ1I/532GHGu70/428tzHsS0mkP6QKWUVuNs0r5TT6PjSbvTl1KWE+vMK4PFxF2VOm/YjcTUOiq3hFjBqs65XkN0x1dGOxGDksZ5wy6l/lPiaXMqxT+8y8o9xDh6tWAusXrTStLerLuIzogaz/6kzxS5nnhi36fJtjdZ2xMzhixj47HiDxCdEE9mvKfB2thSYoz7zBGMa4mHq2cTq/32Ut1pZ/pgEdFtexXxYErN2Zo43+uJH/Tr2q2OJEmSJEmSJEmSJEmSJEmSJEmSJEmSJEmSJEmSJEmSJEmSJEmSJEmSJEmSJEmSJEmSJEmSJEmSJElSBv8DhZGUYnvjcPsAAAAASUVORK5CYII=;rotation=90;" parent="Qdo3hB_uDaMukJDxGay6-1" vertex="1">
          <mxGeometry y="465.24" width="70" height="70" as="geometry" />
        </mxCell>
        <mxCell id="Qdo3hB_uDaMukJDxGay6-33" value="" style="verticalLabelPosition=bottom;aspect=fixed;html=1;verticalAlign=top;fillColor=strokeColor;align=center;outlineConnect=0;shape=mxgraph.fluid_power.x11820;points=[[0.5,1,0]];rotation=90;" parent="Qdo3hB_uDaMukJDxGay6-1" vertex="1">
          <mxGeometry x="90" y="294.76" width="39.84" height="59.85" as="geometry" />
        </mxCell>
        <mxCell id="Qdo3hB_uDaMukJDxGay6-34" style="edgeStyle=orthogonalEdgeStyle;rounded=1;orthogonalLoop=1;jettySize=auto;html=1;exitX=0;exitY=0.5;exitDx=0;exitDy=0;entryX=0.5;entryY=1;entryDx=0;entryDy=0;entryPerimeter=0;endArrow=none;startFill=0;fillColor=#60a917;strokeColor=light-dark(#2D7600, #61f505);strokeWidth=5;curved=0;" parent="Qdo3hB_uDaMukJDxGay6-1" source="Qdo3hB_uDaMukJDxGay6-35" target="Qdo3hB_uDaMukJDxGay6-33" edge="1">
          <mxGeometry relative="1" as="geometry">
            <mxPoint x="70" y="325.24" as="targetPoint" />
            <Array as="points">
              <mxPoint x="35" y="324.24" />
            </Array>
          </mxGeometry>
        </mxCell>
        <mxCell id="Qdo3hB_uDaMukJDxGay6-35" value="" style="shape=image;verticalLabelPosition=bottom;verticalAlign=top;imageAspect=0;image=data:image/png,iVBORw0KGgoAAAANSUhEUgAAAMgAAADICAYAAACtWK6eAAAABHNCSVQICAgIfAhkiAAAAAlwSFlzAAALEwAACxMBAJqcGAAAChVJREFUeJzt3XnsHGUdx/E3pZSrLUdLQUQEEUUNRIWIBIFGkUgkcmggIhGjwQuNGomiYgyJBGI0gLdGPJAjGjV4IAZSDzwRrwByiAcip0BtLS1HW+ofX1aWX38z+8zOzjMz3fcredKk+e3MM7Pz2Wd35jlAkiRJkiRJkiRJkiRJkiRJkiRJkiRJkiRJkiRJkiRJkiRJkiRJkiRJkiRJkiRJkiRJkiRJkiRJkiRJkiRJkiRJkiRJkiRJkiRJkiRJm5TN2q5AB80FTgEOBbZouS5t2wDcCpwP3NtyXdQR3yQuDMsT5XZgUZ2Tqk3DfrR/MXa1nF7jvPbWnLYr0DFPa7sCHTaV58aAPNm1wMNtV6Kjft52BdQNJwEP0f5Xmi6VLzOlN3Sm8qAT7AwcCMxrYd/nA7vO8v/vAu7KXJfHgFuAP2fer1ToZmb/FN+nzUpNK3+DSCUMiFTCgEglDIhUwoBIJQyIVMKASCUMiFTCgEglDIhUwoBIJQyIVGJu2xXIYAGwNbCK6Mau5swFdiR6AS9//F91zELgrcAVxJs03CP2DmLM+Ql0d0KGvvXmPQj4NHAjsI4n6vsI8HvgLGDv1mqn/9scOA1YQdogoNuBE1upabm+BGRf4Keknev1wIXATm1UVLAYuJrxRstdQnwF64o+BOQUooWoeq7vAQ5uob5TbRHRvNcZUnoTMYKwC7ockB2JD5Q653oNcFjuik+rOcAyJjPueh1wDrBl1iPYWFcDcjRwN5M51w8Au+et/nR6G6PfjNXAnaR/JbgBOCDnQczQtYDsAFxUUKfZyv2k/Q78Yc6DmEZbEt9pi96AZcAhPPGsZx7wKuD6ktcMylrgo7QzaUOXAnIUMVHEqPO1grhBsvPQa58JnMeT72zNLIfkOIhpdQLFJ/58imds2Qq4uOS1w+U64AWNHcHsuhCQ7YCvFtRjZrmZ8tu4rwQeLXjtxY3UXkDxRX4NaT0EjgfuK9jGzNbkTPI9N2k7IEcSz4tGnZf1wLmk3QH8cME2VmBvjsb8hdlP+rEVtrEE+HbBdmaWPxJz9zatrYAsBC4o2PfM8leqfT1aQNy9artlnCpFsx/uMMa2TiTurIy6MB4lPg2b7KLTRkCOIB6cjjr+x4BPAduMsY+i51RH1Ky7ChS9iePaBfhuyXaHy++A59XYV5mcAVkAfLFgfzPL34GlNfZ1WcF2j66xTZWYdEAGTmLjPlyzlUeADxJdXCYpV0BeBtxWsK+ZrcZngPk191cUkGNqblcFmgoIwFOAH5TsY7j8FnjOhPYLzQdkPvBZ4sIfdWy3AS+d0H4NSGZNBmTgDaQ99HoYeB+TaU2aDMhS4qtSSvC/QHwFmxQDklmOgAA8leg6n3JR/Rp4ds39NRGQbYku6Smtxu3Ay2vsq4gBySxXQAbeBKws2e+gPAS8l/Hv7086IIcQt2VTAv4l4nZvEwxIZrkDArEM2ZUl+x4uv2C8gUKTCsg2RFePlFbjDuAVY9S1CgOSWRsBGXgz8N+SOgzKamLhmyoLFU0iIAdT/CB1ZvkKsH2FbY/LgGTWZkAAnk56V/ufAc9I3G6dgGwFfILoBjKqTncR/aRyMSCZtR0QiJbh7cCDJfUZlAeBdzC6NRk3IC8uee3M8nXG63FQhwHJrAsBGdiT9PHZPwb2KNlW1YBsCXyM8m7lg3IP7T25NiCZdSkgEC3DO4nfHaMu1FXEzCuzqRKQF5E+3PgSYnhyWwxIZl0LyMBexJriKRftlWw89DQlIPOAs0lrNe4FjpvsIY7FgGTW1YBAPAN5D8VdvIfLSmKWkIFRAdmftFGRG4g5wBY3c4iVGZDMuhyQgWcBvyTtYr4C2I3igOxHDANem7Ct+4gBYV1iQDLrQ0AgWpPTKB6/MlxWUPx8JWW8xgZiANiSLEdWjQHJrC8BGdgH+A1pF/k45QHgtdmOpjoDklnfAgLR2/f9RO/fSYbjMmLAV5cZkMz6GJCB5wLXUj8Yy4kBXn1gQDLrc0AgxrV/iPHmuN0AfJ8Y2NUXBiSzvgdkYF9imYDUYPwHOLmVmtbTy4A4J1H/rCdmV5FK9b0F2Zx6X7G+Rb/W2+hlC9JnfQ7IpH6k/xt4Tea6j8uAZNbHgGwOnE7abd6VpHdf/wbd6VJSxIBk1reAVHlQeBXRibFqp8Qq067mZkAy60tAqnQ1WQW8ZZZtVO3WvmNjRzM+A5JZHwKyN+mdFZdRPpBqMDAqZTjt3cRaKF1iQDLrckDmAO8mrbv7g8Sw3dSJHQ4i/bfJheQfWlvEgGTW1YDsRfqKuz8hhutWVWVyhjvJOzlDEQOSWdcCUmXI7erH/7bKdECzqTq9z3Y191eHAcmsSwHZk2gNUi7Uq4lWZlK2Jn2CuH/R/ARxRQxIZl0IyGbESrurSuozKGuI3yVNde85lG5MMVrEgGTWdkB2J55XpFyQ405DWtW2xApQKa3JP4HDM9RpwIBk1mZATiFt6tG6E1mPaynpyxx8nvqL46QwIJm1EZDdgB+V7Hu4TGIphDrmA58jrTX5B5NbKKeIAcksd0DeSP7FdCbhcOLr1Kh6D5Za27ahehiQzHIFZFfg8pL9DZdrmOxybJNSZbHOvwGHNVAHA5JZjoC8nhjBN+qiegT4AN1pNYpUWe75k4y33HMRA5JZkwHZBfheyT6Gy7U0tyR0ExYCF5B2bLcCL5nQfg1IZk0F5HXEHFMprcYZxOQLfXQksbLUqONcD5xLPJCsw4BkNumALAG+U7Ld4fIHYrKFvtse+Bppx3wL0VFyXEUBaWs5hk1e0VjucfobnUDMZzvqInkU+Aj9bTWKHEWsOJXSmnyc6CxZVdGM90fUrLsKFHWrqDIOYjExA3rKJ+ifgOdPqO5dtANwEWnn4ibgwArbXkBx1/9JrP+uWVzK7Cf8V6Q9uT6OGKY66mJYC5wJbDHZ6nfWMcRKVKPOyzrgHGIg1yhnFGxjBU491ZgTKX7zzqO4K/lWxBp9KZ+U1wEvbOwIumsRxR9AM8v1lC9QeiTx1XS2117cTPUFcaGXtQBXEbco5wz9/bGkLT6zDjiLmDRhmr2amFpo1PlaTvRUHl7ibQ9iUFfZhBOTuoWsAqcy+s1bQ4zRTll4ZgNwA3BAzoPouJ1I/532GHGu70/428tzHsS0mkP6QKWUVuNs0r5TT6PjSbvTl1KWE+vMK4PFxF2VOm/YjcTUOiq3hFjBqs65XkN0x1dGOxGDksZ5wy6l/lPiaXMqxT+8y8o9xDh6tWAusXrTStLerLuIzogaz/6kzxS5nnhi36fJtjdZ2xMzhixj47HiDxCdEE9mvKfB2thSYoz7zBGMa4mHq2cTq/32Ut1pZ/pgEdFtexXxYErN2Zo43+uJH/Tr2q2OJEmSJEmSJEmSJEmSJEmSJEmSJEmSJEmSJEmSJEmSJEmSJEmSJEmSJEmSJEmSJEmSJEmSJEmSJElSBv8DhZGUYnvjcPsAAAAASUVORK5CYII=;rotation=90;" parent="Qdo3hB_uDaMukJDxGay6-1" vertex="1">
          <mxGeometry y="345.24" width="70" height="70" as="geometry" />
        </mxCell>
        <mxCell id="Qdo3hB_uDaMukJDxGay6-36" style="edgeStyle=orthogonalEdgeStyle;rounded=1;orthogonalLoop=1;jettySize=auto;html=1;exitX=1;exitY=0.5;exitDx=0;exitDy=0;entryX=1;entryY=0.5;entryDx=0;entryDy=0;endArrow=none;startFill=0;strokeWidth=5;fillColor=#60a917;strokeColor=light-dark(#2D7600, #63fb04);curved=0;" parent="Qdo3hB_uDaMukJDxGay6-1" source="Qdo3hB_uDaMukJDxGay6-37" target="Qdo3hB_uDaMukJDxGay6-47" edge="1">
          <mxGeometry relative="1" as="geometry" />
        </mxCell>
        <mxCell id="Qdo3hB_uDaMukJDxGay6-37" value="" style="shape=image;verticalLabelPosition=bottom;verticalAlign=top;imageAspect=0;image=data:image/png,iVBORw0KGgoAAAANSUhEUgAAAgAAAAFVCAYAAACZ01cjAAAABmJLR0QA/wD/AP+gvaeTAAAaBklEQVR4nO3deZQdZZ3G8W9CSNhCWBLCEnYQZN8XQTYJyiI7jGcg0KMox+UA47ig4xxg9CAoyjbqgCIYGDdUGMERERBBZBEEFMOmsgiDsjvskNDzx5uWTtvp7ntvVf3qrfp+zqkjeMi9z73pvvXc9633LZAkSZIkSZIkSZIkSZIkSZIkSZIkSZIkSZIkSZIkSZIkSZIkSZIkSZIkSZIkSZIkSZIkSZIkSZIkSZIkSZIkSZIkSZIkSZIkSZIkSZIkSZIkSZIkSZIkSZIkSZIkSZIkSZIkSZIkSZIkSZIkSZIkSZIkSZIkSRWYEB1AktQc46IDaAGrAjsDmwIbAusDywBLA4sArwN/nX/MAe4CbgWuBp4OyCtJkrq0AXAa8ADQ3+UxF7gR+BCpMEiSpJraE7iO7k/6CzteBM4BZlT3UiRJ0mh2BG6h+BP/cEXgFGDxal6WJEkaznLAeaR5/LJP/oOPu4GtKnh9kiRpiG2Bh6j2xD/4eBU4uvRXKUmS/uYo4BXiTv6Djy8C48t9uZIk6RTiT/pDj29gCZAkqTQfJf5kv7Dj9BJftyRJrTWL6i/26/Q4rrRXL0lSC21CWoIXfYIf7XiVtCRRkiT1aDJwP/En97EeDwFLlfJOSJJqbZHoAA1zMrBPdIgOTJn/v9eEppAkKWPrk4bVo7/Vd3q8AqxVwvshSVIr/Ij4k3m3xwXFvx2SJDXfZsSfxHs55gLrFv6uSJJqa0J0gIb4SHSAHi0CvBf4WHQQSdlbBji0oMe6iLSqSqqlZanPVr+9HH8BFi34vZHUPutT3OfStIqzt4pbwvbuQGBidIgCrADsHh1CUvb6owNobCwAvTskOkCB9ooOICl7FoBMWAB6MxF4a3SIAu0ZHUCSVA0LQG+2BpaIDlGgtYHp0SEkZc0RgExYAHqzZXSAEmwSHUBS1iwAmbAA9KaJa+ctAJJ6YQHIhAWgN+tEByjBjOgAkqTyWQB608Q1ql4DIKkXjgBkwgLQmyWjA5Rg+egAkrJmAciEBaA3TVoBMMCfCUlqAT/se/NydIAS2N4l9cLPkExYAHrzfHSAEqxO2hZYkrphAciEBaA3j0cHKMGbgDuAXaODSMqSBSATFoDe3B0doCQrAVcDZ9KMGx1Jqo4FIBMWgN7MiQ5QonHAMcAVwMrBWSRJBbMA9Obn0QEqsCup6DTproeSyuMIgFrjUdIPfNOPecDJwIRi3jZJDTWD4j53mrjZWm04AtC7b0cHqMh44BPATTRzC2RJxXAEQK2xBfHfzqs+ngT2KeLNk9Q4K+MIgFrk58SflCOO2TRzN0RJ3VsJC4Ba5ADiT8ZRx83AGj2/g5KawgKg1rmO+JNx1PF/wGG9v4WSGmBFLABqmW2A14g/GUceZwOTen0jJWVtOhYAtdDHiD8JRx93Axv3+kZKytYKWADUQuOBK4k/CUcfLwLH9vheSsrTNCwAaqkZwCPEn4TrcJwDLN7b2ykpMxYAtdo6wF+IPwHX4bgH2LS3t1NSRqZiAVDL7QQ8T/wJuA7Hc8ARvb2dkjJhAZCAjYCHiD8B1+X4AbBMT++opLpbHguABMBqpP3zo0++c4FPAvcF55hDKkaSmmk5LADS3ywKXEDsyf/d87NMBv4rMEs/aZXAUV2/m5LqbFksANIC+og52f6a4dflHwQ8G5Rp4LiU9G1BUnMsgwVAWkAf1Z5cHwU+zMjL8DYCfldxrqHHfcDmY30TJdWeBUAaoo/yT6avk+5MeCRj35J3SeD8CrKNdLwEfHCMeSXV2xQsANIC+ijv5HkF8CF6uyvfLNJyvcgi8D1cJSDlzgIgDdFHsSfLs4G9Sd/gi7I+cGfBOTs9/ghsXeBrklStpbEASAvoo9gT5aol5ZwAnAjMKzhvJ8fc+RnGl/QaJZVnMhYAaQF95FEABrwTeLLgzJ0eVwMrlfw6JRVrKSwAWfAblhbmMmBb4LbADLuRNlHaITCDJDWSBUAj+QOwHXASaYVBhNWA64EzSRsqSaq3/ugAUt30kdcUwFBvAx4rKHu3x03AmmW/UEk9WQKnALLgCIDG6mrSbX2vDMywLXA7cEhgBkkjcwQgExYAdeJxYC/SlMC8oAxTgO8C5zD2zY4kVccCIA3RR95TAEPtQtpuOHJK4DZg3ZJfp6TOLIZTAFlwBEDduhbYDPhxYIYtSCXg8MAMkhbkCEAmLADqxROk3QiPA14LyjAZuBCYTVp/LCmWBUAaoo9mTQEMtQ1pG9/IKYF7SKMSkuJMxCmALDgCoKLcQtrD//LADOuRlgoeC4wLzCG1mSMAmbAAqEhPAfuSpgReDcowCTgDuARYLiiD1GYWgExYAFS0ftKufTuQdhKMsh9wB7BjYAapjSwAmbAAqCy3kq7S/05ghlWBn5HuLLhIYA5JUov10eyLAEdyBPAisRcIXgOsXPYLlcR4vAgwC44AqAqzSVMC9wdm2JU0JbBXYAapDZwCyIQFQFW5HdgS+GZghmmkVQpnkpYqSZJUuj7aOwUw1BHA88ROCdwCrF32C5VayimADDgCoAizSXsG/DYww9bAr4F3BWaQpDAWAEW5m3R733MDMywNfItUSJYIzCE1jdcBSIP04RTAwhwBPEfslMAcYOOyX6jUEvNwCqD2HAFQHcwGtgLuDMzwZuBm0jbCktR4FgDVxb3AdsBZgRkWJ20j/D1gmcAcUu6cApAG6cMpgLE6EHiG2CmBB4HtS36dUlO9hlMAtecIgOroB6Tb+t4UmGF14DrSNsL+nkiSutaHIwCdmkTatOd1YkcDrgRWLPm1Sk3yKo4A1J7fbFRnr5AuyjsAeDowx0zSNsJ7BGaQctIfHUCjswAoB/9NmhK4ITDDdOAK0ojEooE5pBxYADJgAVAu/gTsApxEmhKIMA44BrgKmBGUQZKUmT68BqAouwN/Jva6gCeBd5b9QqVMvYTXANSeIwDK0VWkjYOuD8ywPGlq4kzSxYqS3uAUQAYsAMrVI8CupCmBeUEZBqYEfgmsG5RBqiMLQAYsAMrZPNI6/ZnAY4E5tgBuAw4PzCBJHbEAqAl+Rlol8JPADJOBC0n3NVgqMIdUB44AZMACoKZ4HNgTOI60DWmUWcCtpEIitZUFIAMWADVJP+mivN2BRwNzrAfciHcWlFRjFgA10XWkb+D/E5hhMdKdBS8BlgvMIUVwBCADFgA11ZPAPqQpgVcDc+wP3A7sEJhBqpoFIAMWADXZwJTAjsAfA3OsBlyLdxZUe1gAMuCHkdrgV6SlehcHZpgAnAD8FFgpMIckARYAtcdfgUOBo0l3GYyyG3AnacWC1FSOAGTAAqC2ORd4C/D7wAzTgB/hnQXVXBaADFgA1Ea/Jk0JfCsww8A2wjcAawXmkNRSFgC11XPAYcCHiV0lsDVwE7BXYAapaI4AZMACoDbrB04HNgfuCswxMCUwG1giMIdUFAtABiwAEswBtgcuCs4xi7RiYePgHFKvLAAZsABIyfOkE/CRwAuBOTYAbsZthCWVzAIgLWg2sBXwm8AMi5O2Ef4esExgDqlbjgBkwAIg/b17gG2Bs4JzHATcQZqekHJiAciABUAa3sukYfiDgWcDc6xOurnRifj7KqlAfqBII/s+aTTg9sAMA9sI/wRYMTCHNFaOAGTAAiCN7j7SMHz0lMDupG2E3x6cQxqNBSADFgBpbF4hTQkcADwTmGMF4Me4jbDqzQKQAQuA1JlLgc2AGwMzDGwj/AtgzcAckjJmAZA69zCwE3AS8Hpgjm1I1yYcGphBGo4jABmwAEjdmUu6Mn9/4KnAHFOA7+A2wqoXC0AGLABSby4jTQn8IjjHLOAWYKPgHBJYALJgAZB69wiwK/FTAhuSSoDbCEtSjfSRWnFRx6qVptdY7QY8RrF/190cF+M2worzMMX8HE+rOnibOAIgFesaYFPgyuAcB5MuENwuOIfaySmADFgApOI9DrwDOB6YF5hjDdxGWJLC9eEUQBvtAjxK/JTAlbiNsKrzIE4B1J7fCqRyXUtaJfDj4BwzSXcW3CM4h9rBKYAMWACk8j0B7A0cB7wWmGM6biOsalgAMmABkKrRTzrx7gg8EJhjPGkb4etwG2Gp1SwAUrVuAbYGLg/OsR1plcAhwTnUTI4AZMACIFXvKWA/4FOkLYWjTAG+DZyCUwKDebvl3lkApEH6cBWA/t5WwO+JXyVwG/Cmkl9rDmaR3o89o4NkrqifaVcBqBH6sABoeEuTvolHl4DnSCfAtlqP9B70k7Z3XjY2TtbuxwIg/U0fFgCN7AjgReKLwGxgqZJfa91MBG5lwffhvNBEebsPC0Dtjevxz2+CQ2VjtSXFXnC1GvCnAh9P9bAd8C3SLn6R7gLeBfwuOEdVPkvauXGwftK+CVdVHyd791LMlNKdxF4nk7MXgZ3KfIJ3E/9tpa2HIwDNNRm4iPifsZdJdxbs9YtC3e1LuovjcO/BozgV0I17if/5bfvx3Gh/Sa4CkOrnOeBw4EjghcAck4AzgEuB5QNzlGll4GssvOSsDHyxujiN0R8dQKOzAEj1NZu0Z8Bvg3PsS9pGuNThxACLAN9k9HnmPmD/0tM0iwUgAxYAqd7uBrYFzgrOMYN0q+MTSSfOJjge2HmM/+2XgeVKzNI0FoAW8BqAuMNrANpnFm8sU4s8rgVWKfellm4H0n0ZOnnds0OS5mkO8T+nbT+8BkBqkAtJGwfdEZxj5/kZ9gnO0a3lSfsuTOjwz80CDiw+TiP1RwfQ6CwAUl7uBbYnfkpgKvBD0g2OJgVn6dS5pCmNbnwJpwLGwgKQAQuAlJ+B5XkHAs8G5hhHurPgL4F1A3N04v309i1+ReLLl1QIC4CUr0uAzYCbgnNsQbqXwOHBOUazKcUs6TsMOKiAx2kyRwAyYAGQ8vYQaXneqcR+6E4mXaNQ122ElyAt+VusoMf7CrBCQY/VRBaADFgApPy9RlrStj/wdHCWWaQ99TcLzjHUGcAGBT7eNNL1DxqeBSADFgCpOX5IOvHeEJxjPdK0RF22Ef5H4L0lPO67gINLeFypEhYAqVn+BOwCnETa3z7KwDbClxB71fyapE18yvIVYHqJj58rRwAyYAGQmmcuace+twN/jo3CfqQ9A94a8NwTge8AU0p8jqnA2SU+fq4sABmwAEjNdRVp46DrgnOsSsw2wv9OupdC2Q4BDq3geaRCWQCkZnsU2I00JTAvMMcE4ATgp6Q77JVtJvDRCp5nwJdwKmAwRwAyYAGQmm8e6dv3TOCx2CjsCtwJ7F3ic6wEXES1n29TgXMqfL66swBkwAIgtcfPSJvhXBGcYypwGWkZ3cSCH3s8cAExa/T3I60MkAUgCxYAqV2eAPYCjiPtHxBlYBvhG4B1CnzcfwH2KPDxOvUfpO2Cpdrr9G5YQz0AXFxEkIZblLRJi1QH/aRv33NIu/dFzl1vBdwMvAe4tMfH2hz4dM+JerM86b39h+Ac0YocATgbuL7Ax2uLudEBlEyh+Hs9r1rpK1BTTQUuJ/7e5f2kbYSX7PJ1TAH+UIPXMHAc1uXraIpbKO69rPs9JqQRWQBUZ+NIu/a9QvyJ827SdQqd+m4Nsg8+ngFW6eJ1NIUFQJrPAqAcbE09vkW/RCokY/WeGmQe7risg9fQNDdjAZAAC4DyMYW0e170ybOfsW0j/GbghRpkXdgxa5T8TXUTFgAJsAAoP+8DXib+BPoQsONCMi4O/LYGGUc6ngVmjPZmN9CNWABqz2WAkoZzLvAW4PfBOVYj7V9wIn//efV5YKOqA3VoCvCf0SEkxXEEQLmaDHyT+G/S/cDVvLGN8AE1yNPJ0dfJm94Av8QRAAmwAChv40gbB9VhlcAjpDX2j9cgSyfHk7Rrg6AbsADUnlMAkkbTD5xB2mjnruAsqwDfBqYF5+jU8qR9DsZFB6lIf3QAjc4CIGms5gDbAF+NDpKpmcA/RYeQBlgAJHXiJdIKgSNJy+/UmdNJFzY2nSMAGbAAVMNfBjXNbNI+/r+JDpKZpYGv0/ypAD/zMmABkNSte4BtgbOig2TmbcBR0SEkC4CkXrxM2rb3YNKmNxqb02j2VIAjABmwAEgqwvdJFwjeHh0kE0sD59PcqQALQAYsAJKKcj+wPWlKwBPA6HYjXVDZRP79Z8ACIKlIr5CmBA4k3RJXI/sCsHZ0CLWTBUBSGS4FNiNtCauFW5K0r0LTpgIcAciABUBSWR4GdgZOAl4PzlJnuwLvjw5RMAtABiwAkso0l3Qnv/2Ap2Kj1NrngHWiQ6hdLACSqnA5aUrg+uggNbUkcAHN+Ux2BCADTflhk1R/j5CufHdKYHg7AB+IDlEQC0AGLADV8JdBSgamBGYCj8VGqaVTgXWjQxTAz7wMWAAkRbiGNCVwZXSQmlmCZk0FqMb8IZMU5XFgb9K3Xr3hLcDR0SF65AhABiwAkiLNBf4SHaKGTiPvqQALQAYsAJIibQx8NjpEDS0BfANYJDpIlywAGbAASIoyEZgNTIoOUlPbA8dEh1BzWQAkRTmBdCGgFu5kYIPoEF1wBCADFgBJEXYCjo8OkYHFgPPIbyrAApABC4Ckqk0GzsfPn7HaDvjn6BBqHn8BJVXtNGCt6BCZ+QywYXSIDjgCkAELgKQq7QO8LzpEhiaR11SABSADFgBJVZlOOompO9sCH4kOMUYWgAxYAKrhL4ME5wArRIfI3EnARtEh1AwWAElVOALYLzpEA0wibRC0aHSQUfilJwMWAEllWx04KzpEg2xB/acCLAAZsABIKtMiwIXAlOggDXMCaRtlqWsWAEllOhZ4a3SIBqr7VIAjABmwAEgqy8akrWxVjs2Bj0eHWAgLQAYsAJLK4I1+qvFvwCbRIYZhAciABUBSGbzRTzUmUu+pANWYBUBS0bzRT7U2Az4RHWIIRwAyYAGQVKTJwAX42VK1fwO2jA4xiAUgA/6SSirSacCa0SFaaAJpm+WJ0UGUDwuApKJ4o59YmwKfjA4xnyMAGbAAVMNfBjXddODr0SHEvwJbRYfAz7wsWAAkFeEcYFp0CDGBtCpgseAcFoAMWAAk9cob/dTLBqSRAGlEFgBJvfBGP/V0PLB14PM7ApABC4Ckbi0CXIQ3+qmj6KkAC0AGLACSunUssGN0CC3Um0n7A0SwAGTAAiCpG5vgjX5y8DFgm+gQqicLgKRODew/741+6i9qKsARgAxYACR16kS80U9O1if9nVXJApABC4CkTuxEfe9Br4X7KF6voSEsAJLGyhv95Gs88DVg8YqezxGADPiLLGms1gfuA16KDqKurAd8qqLnsgBkwAJQDX8Z1AS/At5BGgnYCjgJuA14PTKUOnI81UwF+JmXAQuApE7NI534TyQVgRWBQ4Fzgf+Ni6UxqHoqQDVmAZDUqyeAi4GjgVVJpeB44Crg1cBcGt56wGdKfg5HADJgAZBUpNdJowOnAjOB5YB9SaMDDwXm0oKOI63oKIsFIAMWAEllegG4jDQ6sAaw9vx/vhx4OS5W640HzgeWig6iOBYASVX6I2k04J2k0YGZpNGC2yJDtdRawKdLemxHADIwITqApNZ6iXSdwFXz/30NYA9gd1IxWCYmVqscA1wK/Lzgx7UAZMARAEl18SBpdOBQYCouNaxCWVMBFoAMWAAk1ZFLDauzJt7ZsZUsAJJyMHip4SrARrjUsEgfBHYp8PEcAciABUBSjn7HgksNZwJn4VLDbg1MBUwu6PEsABmwAFTDXwapPC+QRgKOZcGlhhcDz8fFys4awGcLeiw/8zJgAZDUNANLDQ8FVsClhp34AGklhlrAZYCSmmzoUsMVSSe4fXCp4XDGkcrTxsBzPTyOIwAZcARAUpv8GZjNgksNjwduwKWGA1YHPtfjY1gAMmABkNRWA0sNTyXdInc6LjUccDTw9ugQKpcFQJKSJ3Gp4YBxwHl0P0XiCEAGLACSNLy2LzVche6nAiwAGbAASNLo2rrU8Chgzy7+nAUgAxYASercSEsNm3TyGwd8FVg2OoiKZwGQpN4MLDU8nrSqYGXgSNLowLOBuYqyCvD5Dv9Mk0pQY1kAJKlYTVxq+B46mwqwAGTAAiBJ5RlpqeGjgbm68TWcCmgUC0A1bMOSYMGlhjPIa6nhysAXx/jf+pknzbcY6ReiyGPVSl+BpLItCewOnAk8SPGfGUUd+4/htZxe4PMdPobnUxccAZCkehhpqWEv+/IX7cukfRFG4ghABiwAklRPg5caTqc+Sw1XIn3DlzQGTgFIKtKKwBHAd4FniJkKOGCEfF8o8HmcAiiJIwCSlJ86LDX8EgufCnAKIAMWAEnKW9RSw5VI90aQNAKnACRF2RD4OPBT4BWK/yw6aJjn/HyBj+8UgLJmAZBUB4OXGj5AMZ9Fj5PuhzDY5wp6bAtAiZwCkKT2GLzUcE2KWWo4DThjyP/nNQDSfI4ASKq7xUijA6cAt5IuJuzkM+ngQY91aod/1hEANdYkLACS8jJ4qeHTjP6Z9ARvTAWcMob/3gIQzCkASdJwBi81nMboSw2nAmfP/2enAKT5HAGQ1CRTgUOAc4BHWPCz6RDgZIr7rHMEQFmzAEhqssFLDR8FzsMCIAEWAEntMZU0dWABqDmvAZAkFelJ4OHoEBqdBUCSpBayAEiSiuYqgAxYACRJRbMAZMACIEkqmgUgAxYASZJayAIgSSqaIwAZmBAdoCXmkrbQLNKzBT+eJKlFxkUHkCQ1zuKkuwsW4QXg1YIeS5IkSZIkSZIkSZIkSZIkSZIkSZIkSZIkSZIkSZIkSZIkSZIkSZIkSZIkSZIkSZIkSZIkSZIkSZIkSZIkSZIkSZIkSZIkSZIkSZIkSZIkSZIkSZIkSZIkSZIkSZIkSZIkSZIkSZIkSZIkSZIkSZIkSZIkSZIkSZIkSZIkSZIkSZIkSZIkSZIkSZIkSZIkSZIkSZKkzv0/5hxqzKl1xLwAAAAASUVORK5CYII=;rotation=90;" parent="Qdo3hB_uDaMukJDxGay6-1" vertex="1">
          <mxGeometry x="400" y="70" width="52" height="35" as="geometry" />
        </mxCell>
        <mxCell id="Qdo3hB_uDaMukJDxGay6-38" style="edgeStyle=orthogonalEdgeStyle;rounded=1;orthogonalLoop=1;jettySize=auto;html=1;entryX=0;entryY=0.5;entryDx=0;entryDy=0;endArrow=none;startFill=0;strokeWidth=5;fillColor=#60a917;strokeColor=light-dark(#2D7600, #63fb04);curved=0;" parent="Qdo3hB_uDaMukJDxGay6-1" source="Qdo3hB_uDaMukJDxGay6-39" target="Qdo3hB_uDaMukJDxGay6-2" edge="1">
          <mxGeometry relative="1" as="geometry" />
        </mxCell>
        <mxCell id="Qdo3hB_uDaMukJDxGay6-39" value="" style="verticalLabelPosition=bottom;align=center;html=1;verticalAlign=top;pointerEvents=1;shape=mxgraph.pid2valves.valve;valveType=gate;actuator=solenoid;" parent="Qdo3hB_uDaMukJDxGay6-1" vertex="1">
          <mxGeometry x="280" y="149" width="30" height="30" as="geometry" />
        </mxCell>
        <mxCell id="Qdo3hB_uDaMukJDxGay6-40" style="edgeStyle=orthogonalEdgeStyle;rounded=1;orthogonalLoop=1;jettySize=auto;html=1;endArrow=none;startFill=0;strokeWidth=5;curved=0;fillColor=#60a917;strokeColor=light-dark(#2D7600, #5ef401);" parent="Qdo3hB_uDaMukJDxGay6-1" source="Qdo3hB_uDaMukJDxGay6-44" target="Qdo3hB_uDaMukJDxGay6-37" edge="1">
          <mxGeometry relative="1" as="geometry" />
        </mxCell>
        <mxCell id="Qdo3hB_uDaMukJDxGay6-41" style="edgeStyle=orthogonalEdgeStyle;rounded=1;orthogonalLoop=1;jettySize=auto;html=1;endArrow=none;startFill=0;strokeWidth=5;fillColor=#60a917;strokeColor=light-dark(#2D7600, #63fb04);curved=0;" parent="Qdo3hB_uDaMukJDxGay6-1" source="Qdo3hB_uDaMukJDxGay6-44" target="Qdo3hB_uDaMukJDxGay6-35" edge="1">
          <mxGeometry relative="1" as="geometry" />
        </mxCell>
        <mxCell id="Qdo3hB_uDaMukJDxGay6-42" style="edgeStyle=orthogonalEdgeStyle;rounded=1;orthogonalLoop=1;jettySize=auto;html=1;strokeWidth=5;entryX=0;entryY=0.5;entryDx=0;entryDy=0;endArrow=none;startFill=0;curved=0;fillColor=#60a917;strokeColor=light-dark(#2D7600, #63fb04);" parent="Qdo3hB_uDaMukJDxGay6-1" source="Qdo3hB_uDaMukJDxGay6-44" target="Qdo3hB_uDaMukJDxGay6-46" edge="1">
          <mxGeometry relative="1" as="geometry">
            <mxPoint x="189.99999999999997" y="950.9412339154412" as="targetPoint" />
            <Array as="points">
              <mxPoint x="189.99999999999997" y="15" />
              <mxPoint x="189.99999999999997" y="1296" />
              <mxPoint x="470" y="1296" />
            </Array>
          </mxGeometry>
        </mxCell>
        <mxCell id="Qdo3hB_uDaMukJDxGay6-43" style="edgeStyle=orthogonalEdgeStyle;rounded=1;orthogonalLoop=1;jettySize=auto;html=1;entryX=-0.016;entryY=0.708;entryDx=0;entryDy=0;entryPerimeter=0;endArrow=none;startFill=0;strokeWidth=5;curved=0;fillColor=#60a917;strokeColor=light-dark(#2D7600, #63fb04);" parent="Qdo3hB_uDaMukJDxGay6-1" source="Qdo3hB_uDaMukJDxGay6-44" target="Qdo3hB_uDaMukJDxGay6-39" edge="1">
          <mxGeometry relative="1" as="geometry">
            <mxPoint x="249.99999999999997" y="190" as="targetPoint" />
            <Array as="points">
              <mxPoint x="189.99999999999997" y="15" />
              <mxPoint x="189.99999999999997" y="170" />
            </Array>
          </mxGeometry>
        </mxCell>
        <mxCell id="Qdo3hB_uDaMukJDxGay6-44" value="" style="verticalLabelPosition=bottom;align=center;html=1;verticalAlign=top;pointerEvents=1;shape=mxgraph.pid2valves.valve;valveType=gate;actuator=solenoid;" parent="Qdo3hB_uDaMukJDxGay6-1" vertex="1">
          <mxGeometry x="280" width="30" height="30" as="geometry" />
        </mxCell>
        <mxCell id="Qdo3hB_uDaMukJDxGay6-45" style="edgeStyle=orthogonalEdgeStyle;rounded=1;orthogonalLoop=1;jettySize=auto;html=1;entryX=0.25;entryY=0;entryDx=0;entryDy=0;endArrow=none;startFill=0;strokeWidth=5;curved=0;fillColor=#e3c800;strokeColor=light-dark(#B09500, #f0cd05);" parent="Qdo3hB_uDaMukJDxGay6-1" source="Qdo3hB_uDaMukJDxGay6-46" target="Qdo3hB_uDaMukJDxGay6-8" edge="1">
          <mxGeometry relative="1" as="geometry" />
        </mxCell>
        <mxCell id="Qdo3hB_uDaMukJDxGay6-46" value="" style="shape=image;verticalLabelPosition=bottom;verticalAlign=top;imageAspect=0;image=data:image/png,iVBORw0KGgoAAAANSUhEUgAAAgAAAAFVCAYAAACZ01cjAAAABmJLR0QA/wD/AP+gvaeTAAAaBklEQVR4nO3deZQdZZ3G8W9CSNhCWBLCEnYQZN8XQTYJyiI7jGcg0KMox+UA47ig4xxg9CAoyjbqgCIYGDdUGMERERBBZBEEFMOmsgiDsjvskNDzx5uWTtvp7ntvVf3qrfp+zqkjeMi9z73pvvXc9633LZAkSZIkSZIkSZIkSZIkSZIkSZIkSZIkSZIkSZIkSZIkSZIkSZIkSZIkSZIkSZIkSZIkSZIkSZIkSZIkSZIkSZIkSZIkSZIkSZIkSZIkSZIkSZIkSZIkSZIkSZIkSZIkSZIkSZIkSZIkSZIkSZIkSZIkSZIkSRWYEB1AktQc46IDaAGrAjsDmwIbAusDywBLA4sArwN/nX/MAe4CbgWuBp4OyCtJkrq0AXAa8ADQ3+UxF7gR+BCpMEiSpJraE7iO7k/6CzteBM4BZlT3UiRJ0mh2BG6h+BP/cEXgFGDxal6WJEkaznLAeaR5/LJP/oOPu4GtKnh9kiRpiG2Bh6j2xD/4eBU4uvRXKUmS/uYo4BXiTv6Djy8C48t9uZIk6RTiT/pDj29gCZAkqTQfJf5kv7Dj9BJftyRJrTWL6i/26/Q4rrRXL0lSC21CWoIXfYIf7XiVtCRRkiT1aDJwP/En97EeDwFLlfJOSJJqbZHoAA1zMrBPdIgOTJn/v9eEppAkKWPrk4bVo7/Vd3q8AqxVwvshSVIr/Ij4k3m3xwXFvx2SJDXfZsSfxHs55gLrFv6uSJJqa0J0gIb4SHSAHi0CvBf4WHQQSdlbBji0oMe6iLSqSqqlZanPVr+9HH8BFi34vZHUPutT3OfStIqzt4pbwvbuQGBidIgCrADsHh1CUvb6owNobCwAvTskOkCB9ooOICl7FoBMWAB6MxF4a3SIAu0ZHUCSVA0LQG+2BpaIDlGgtYHp0SEkZc0RgExYAHqzZXSAEmwSHUBS1iwAmbAA9KaJa+ctAJJ6YQHIhAWgN+tEByjBjOgAkqTyWQB608Q1ql4DIKkXjgBkwgLQmyWjA5Rg+egAkrJmAciEBaA3TVoBMMCfCUlqAT/se/NydIAS2N4l9cLPkExYAHrzfHSAEqxO2hZYkrphAciEBaA3j0cHKMGbgDuAXaODSMqSBSATFoDe3B0doCQrAVcDZ9KMGx1Jqo4FIBMWgN7MiQ5QonHAMcAVwMrBWSRJBbMA9Obn0QEqsCup6DTproeSyuMIgFrjUdIPfNOPecDJwIRi3jZJDTWD4j53mrjZWm04AtC7b0cHqMh44BPATTRzC2RJxXAEQK2xBfHfzqs+ngT2KeLNk9Q4K+MIgFrk58SflCOO2TRzN0RJ3VsJC4Ba5ADiT8ZRx83AGj2/g5KawgKg1rmO+JNx1PF/wGG9v4WSGmBFLABqmW2A14g/GUceZwOTen0jJWVtOhYAtdDHiD8JRx93Axv3+kZKytYKWADUQuOBK4k/CUcfLwLH9vheSsrTNCwAaqkZwCPEn4TrcJwDLN7b2ykpMxYAtdo6wF+IPwHX4bgH2LS3t1NSRqZiAVDL7QQ8T/wJuA7Hc8ARvb2dkjJhAZCAjYCHiD8B1+X4AbBMT++opLpbHguABMBqpP3zo0++c4FPAvcF55hDKkaSmmk5LADS3ywKXEDsyf/d87NMBv4rMEs/aZXAUV2/m5LqbFksANIC+og52f6a4dflHwQ8G5Rp4LiU9G1BUnMsgwVAWkAf1Z5cHwU+zMjL8DYCfldxrqHHfcDmY30TJdWeBUAaoo/yT6avk+5MeCRj35J3SeD8CrKNdLwEfHCMeSXV2xQsANIC+ijv5HkF8CF6uyvfLNJyvcgi8D1cJSDlzgIgDdFHsSfLs4G9Sd/gi7I+cGfBOTs9/ghsXeBrklStpbEASAvoo9gT5aol5ZwAnAjMKzhvJ8fc+RnGl/QaJZVnMhYAaQF95FEABrwTeLLgzJ0eVwMrlfw6JRVrKSwAWfAblhbmMmBb4LbADLuRNlHaITCDJDWSBUAj+QOwHXASaYVBhNWA64EzSRsqSaq3/ugAUt30kdcUwFBvAx4rKHu3x03AmmW/UEk9WQKnALLgCIDG6mrSbX2vDMywLXA7cEhgBkkjcwQgExYAdeJxYC/SlMC8oAxTgO8C5zD2zY4kVccCIA3RR95TAEPtQtpuOHJK4DZg3ZJfp6TOLIZTAFlwBEDduhbYDPhxYIYtSCXg8MAMkhbkCEAmLADqxROk3QiPA14LyjAZuBCYTVp/LCmWBUAaoo9mTQEMtQ1pG9/IKYF7SKMSkuJMxCmALDgCoKLcQtrD//LADOuRlgoeC4wLzCG1mSMAmbAAqEhPAfuSpgReDcowCTgDuARYLiiD1GYWgExYAFS0ftKufTuQdhKMsh9wB7BjYAapjSwAmbAAqCy3kq7S/05ghlWBn5HuLLhIYA5JUov10eyLAEdyBPAisRcIXgOsXPYLlcR4vAgwC44AqAqzSVMC9wdm2JU0JbBXYAapDZwCyIQFQFW5HdgS+GZghmmkVQpnkpYqSZJUuj7aOwUw1BHA88ROCdwCrF32C5VayimADDgCoAizSXsG/DYww9bAr4F3BWaQpDAWAEW5m3R733MDMywNfItUSJYIzCE1jdcBSIP04RTAwhwBPEfslMAcYOOyX6jUEvNwCqD2HAFQHcwGtgLuDMzwZuBm0jbCktR4FgDVxb3AdsBZgRkWJ20j/D1gmcAcUu6cApAG6cMpgLE6EHiG2CmBB4HtS36dUlO9hlMAtecIgOroB6Tb+t4UmGF14DrSNsL+nkiSutaHIwCdmkTatOd1YkcDrgRWLPm1Sk3yKo4A1J7fbFRnr5AuyjsAeDowx0zSNsJ7BGaQctIfHUCjswAoB/9NmhK4ITDDdOAK0ojEooE5pBxYADJgAVAu/gTsApxEmhKIMA44BrgKmBGUQZKUmT68BqAouwN/Jva6gCeBd5b9QqVMvYTXANSeIwDK0VWkjYOuD8ywPGlq4kzSxYqS3uAUQAYsAMrVI8CupCmBeUEZBqYEfgmsG5RBqiMLQAYsAMrZPNI6/ZnAY4E5tgBuAw4PzCBJHbEAqAl+Rlol8JPADJOBC0n3NVgqMIdUB44AZMACoKZ4HNgTOI60DWmUWcCtpEIitZUFIAMWADVJP+mivN2BRwNzrAfciHcWlFRjFgA10XWkb+D/E5hhMdKdBS8BlgvMIUVwBCADFgA11ZPAPqQpgVcDc+wP3A7sEJhBqpoFIAMWADXZwJTAjsAfA3OsBlyLdxZUe1gAMuCHkdrgV6SlehcHZpgAnAD8FFgpMIckARYAtcdfgUOBo0l3GYyyG3AnacWC1FSOAGTAAqC2ORd4C/D7wAzTgB/hnQXVXBaADFgA1Ea/Jk0JfCsww8A2wjcAawXmkNRSFgC11XPAYcCHiV0lsDVwE7BXYAapaI4AZMACoDbrB04HNgfuCswxMCUwG1giMIdUFAtABiwAEswBtgcuCs4xi7RiYePgHFKvLAAZsABIyfOkE/CRwAuBOTYAbsZthCWVzAIgLWg2sBXwm8AMi5O2Ef4esExgDqlbjgBkwAIg/b17gG2Bs4JzHATcQZqekHJiAciABUAa3sukYfiDgWcDc6xOurnRifj7KqlAfqBII/s+aTTg9sAMA9sI/wRYMTCHNFaOAGTAAiCN7j7SMHz0lMDupG2E3x6cQxqNBSADFgBpbF4hTQkcADwTmGMF4Me4jbDqzQKQAQuA1JlLgc2AGwMzDGwj/AtgzcAckjJmAZA69zCwE3AS8Hpgjm1I1yYcGphBGo4jABmwAEjdmUu6Mn9/4KnAHFOA7+A2wqoXC0AGLABSby4jTQn8IjjHLOAWYKPgHBJYALJgAZB69wiwK/FTAhuSSoDbCEtSjfSRWnFRx6qVptdY7QY8RrF/190cF+M2worzMMX8HE+rOnibOAIgFesaYFPgyuAcB5MuENwuOIfaySmADFgApOI9DrwDOB6YF5hjDdxGWJLC9eEUQBvtAjxK/JTAlbiNsKrzIE4B1J7fCqRyXUtaJfDj4BwzSXcW3CM4h9rBKYAMWACk8j0B7A0cB7wWmGM6biOsalgAMmABkKrRTzrx7gg8EJhjPGkb4etwG2Gp1SwAUrVuAbYGLg/OsR1plcAhwTnUTI4AZMACIFXvKWA/4FOkLYWjTAG+DZyCUwKDebvl3lkApEH6cBWA/t5WwO+JXyVwG/Cmkl9rDmaR3o89o4NkrqifaVcBqBH6sABoeEuTvolHl4DnSCfAtlqP9B70k7Z3XjY2TtbuxwIg/U0fFgCN7AjgReKLwGxgqZJfa91MBG5lwffhvNBEebsPC0Dtjevxz2+CQ2VjtSXFXnC1GvCnAh9P9bAd8C3SLn6R7gLeBfwuOEdVPkvauXGwftK+CVdVHyd791LMlNKdxF4nk7MXgZ3KfIJ3E/9tpa2HIwDNNRm4iPifsZdJdxbs9YtC3e1LuovjcO/BozgV0I17if/5bfvx3Gh/Sa4CkOrnOeBw4EjghcAck4AzgEuB5QNzlGll4GssvOSsDHyxujiN0R8dQKOzAEj1NZu0Z8Bvg3PsS9pGuNThxACLAN9k9HnmPmD/0tM0iwUgAxYAqd7uBrYFzgrOMYN0q+MTSSfOJjge2HmM/+2XgeVKzNI0FoAW8BqAuMNrANpnFm8sU4s8rgVWKfellm4H0n0ZOnnds0OS5mkO8T+nbT+8BkBqkAtJGwfdEZxj5/kZ9gnO0a3lSfsuTOjwz80CDiw+TiP1RwfQ6CwAUl7uBbYnfkpgKvBD0g2OJgVn6dS5pCmNbnwJpwLGwgKQAQuAlJ+B5XkHAs8G5hhHurPgL4F1A3N04v309i1+ReLLl1QIC4CUr0uAzYCbgnNsQbqXwOHBOUazKcUs6TsMOKiAx2kyRwAyYAGQ8vYQaXneqcR+6E4mXaNQ122ElyAt+VusoMf7CrBCQY/VRBaADFgApPy9RlrStj/wdHCWWaQ99TcLzjHUGcAGBT7eNNL1DxqeBSADFgCpOX5IOvHeEJxjPdK0RF22Ef5H4L0lPO67gINLeFypEhYAqVn+BOwCnETa3z7KwDbClxB71fyapE18yvIVYHqJj58rRwAyYAGQmmcuace+twN/jo3CfqQ9A94a8NwTge8AU0p8jqnA2SU+fq4sABmwAEjNdRVp46DrgnOsSsw2wv9OupdC2Q4BDq3geaRCWQCkZnsU2I00JTAvMMcE4ATgp6Q77JVtJvDRCp5nwJdwKmAwRwAyYAGQmm8e6dv3TOCx2CjsCtwJ7F3ic6wEXES1n29TgXMqfL66swBkwAIgtcfPSJvhXBGcYypwGWkZ3cSCH3s8cAExa/T3I60MkAUgCxYAqV2eAPYCjiPtHxBlYBvhG4B1CnzcfwH2KPDxOvUfpO2Cpdrr9G5YQz0AXFxEkIZblLRJi1QH/aRv33NIu/dFzl1vBdwMvAe4tMfH2hz4dM+JerM86b39h+Ac0YocATgbuL7Ax2uLudEBlEyh+Hs9r1rpK1BTTQUuJ/7e5f2kbYSX7PJ1TAH+UIPXMHAc1uXraIpbKO69rPs9JqQRWQBUZ+NIu/a9QvyJ827SdQqd+m4Nsg8+ngFW6eJ1NIUFQJrPAqAcbE09vkW/RCokY/WeGmQe7risg9fQNDdjAZAAC4DyMYW0e170ybOfsW0j/GbghRpkXdgxa5T8TXUTFgAJsAAoP+8DXib+BPoQsONCMi4O/LYGGUc6ngVmjPZmN9CNWABqz2WAkoZzLvAW4PfBOVYj7V9wIn//efV5YKOqA3VoCvCf0SEkxXEEQLmaDHyT+G/S/cDVvLGN8AE1yNPJ0dfJm94Av8QRAAmwAChv40gbB9VhlcAjpDX2j9cgSyfHk7Rrg6AbsADUnlMAkkbTD5xB2mjnruAsqwDfBqYF5+jU8qR9DsZFB6lIf3QAjc4CIGms5gDbAF+NDpKpmcA/RYeQBlgAJHXiJdIKgSNJy+/UmdNJFzY2nSMAGbAAVMNfBjXNbNI+/r+JDpKZpYGv0/ypAD/zMmABkNSte4BtgbOig2TmbcBR0SEkC4CkXrxM2rb3YNKmNxqb02j2VIAjABmwAEgqwvdJFwjeHh0kE0sD59PcqQALQAYsAJKKcj+wPWlKwBPA6HYjXVDZRP79Z8ACIKlIr5CmBA4k3RJXI/sCsHZ0CLWTBUBSGS4FNiNtCauFW5K0r0LTpgIcAciABUBSWR4GdgZOAl4PzlJnuwLvjw5RMAtABiwAkso0l3Qnv/2Ap2Kj1NrngHWiQ6hdLACSqnA5aUrg+uggNbUkcAHN+Ux2BCADTflhk1R/j5CufHdKYHg7AB+IDlEQC0AGLADV8JdBSgamBGYCj8VGqaVTgXWjQxTAz7wMWAAkRbiGNCVwZXSQmlmCZk0FqMb8IZMU5XFgb9K3Xr3hLcDR0SF65AhABiwAkiLNBf4SHaKGTiPvqQALQAYsAJIibQx8NjpEDS0BfANYJDpIlywAGbAASIoyEZgNTIoOUlPbA8dEh1BzWQAkRTmBdCGgFu5kYIPoEF1wBCADFgBJEXYCjo8OkYHFgPPIbyrAApABC4Ckqk0GzsfPn7HaDvjn6BBqHn8BJVXtNGCt6BCZ+QywYXSIDjgCkAELgKQq7QO8LzpEhiaR11SABSADFgBJVZlOOompO9sCH4kOMUYWgAxYAKrhL4ME5wArRIfI3EnARtEh1AwWAElVOALYLzpEA0wibRC0aHSQUfilJwMWAEllWx04KzpEg2xB/acCLAAZsABIKtMiwIXAlOggDXMCaRtlqWsWAEllOhZ4a3SIBqr7VIAjABmwAEgqy8akrWxVjs2Bj0eHWAgLQAYsAJLK4I1+qvFvwCbRIYZhAciABUBSGbzRTzUmUu+pANWYBUBS0bzRT7U2Az4RHWIIRwAyYAGQVKTJwAX42VK1fwO2jA4xiAUgA/6SSirSacCa0SFaaAJpm+WJ0UGUDwuApKJ4o59YmwKfjA4xnyMAGbAAVMNfBjXddODr0SHEvwJbRYfAz7wsWAAkFeEcYFp0CDGBtCpgseAcFoAMWAAk9cob/dTLBqSRAGlEFgBJvfBGP/V0PLB14PM7ApABC4Ckbi0CXIQ3+qmj6KkAC0AGLACSunUssGN0CC3Um0n7A0SwAGTAAiCpG5vgjX5y8DFgm+gQqicLgKRODew/741+6i9qKsARgAxYACR16kS80U9O1if9nVXJApABC4CkTuxEfe9Br4X7KF6voSEsAJLGyhv95Gs88DVg8YqezxGADPiLLGms1gfuA16KDqKurAd8qqLnsgBkwAJQDX8Z1AS/At5BGgnYCjgJuA14PTKUOnI81UwF+JmXAQuApE7NI534TyQVgRWBQ4Fzgf+Ni6UxqHoqQDVmAZDUqyeAi4GjgVVJpeB44Crg1cBcGt56wGdKfg5HADJgAZBUpNdJowOnAjOB5YB9SaMDDwXm0oKOI63oKIsFIAMWAEllegG4jDQ6sAaw9vx/vhx4OS5W640HzgeWig6iOBYASVX6I2k04J2k0YGZpNGC2yJDtdRawKdLemxHADIwITqApNZ6iXSdwFXz/30NYA9gd1IxWCYmVqscA1wK/Lzgx7UAZMARAEl18SBpdOBQYCouNaxCWVMBFoAMWAAk1ZFLDauzJt7ZsZUsAJJyMHip4SrARrjUsEgfBHYp8PEcAciABUBSjn7HgksNZwJn4VLDbg1MBUwu6PEsABmwAFTDXwapPC+QRgKOZcGlhhcDz8fFys4awGcLeiw/8zJgAZDUNANLDQ8FVsClhp34AGklhlrAZYCSmmzoUsMVSSe4fXCp4XDGkcrTxsBzPTyOIwAZcARAUpv8GZjNgksNjwduwKWGA1YHPtfjY1gAMmABkNRWA0sNTyXdInc6LjUccDTw9ugQKpcFQJKSJ3Gp4YBxwHl0P0XiCEAGLACSNLy2LzVche6nAiwAGbAASNLo2rrU8Chgzy7+nAUgAxYASercSEsNm3TyGwd8FVg2OoiKZwGQpN4MLDU8nrSqYGXgSNLowLOBuYqyCvD5Dv9Mk0pQY1kAJKlYTVxq+B46mwqwAGTAAiBJ5RlpqeGjgbm68TWcCmgUC0A1bMOSYMGlhjPIa6nhysAXx/jf+pknzbcY6ReiyGPVSl+BpLItCewOnAk8SPGfGUUd+4/htZxe4PMdPobnUxccAZCkehhpqWEv+/IX7cukfRFG4ghABiwAklRPg5caTqc+Sw1XIn3DlzQGTgFIKtKKwBHAd4FniJkKOGCEfF8o8HmcAiiJIwCSlJ86LDX8EgufCnAKIAMWAEnKW9RSw5VI90aQNAKnACRF2RD4OPBT4BWK/yw6aJjn/HyBj+8UgLJmAZBUB4OXGj5AMZ9Fj5PuhzDY5wp6bAtAiZwCkKT2GLzUcE2KWWo4DThjyP/nNQDSfI4ASKq7xUijA6cAt5IuJuzkM+ngQY91aod/1hEANdYkLACS8jJ4qeHTjP6Z9ARvTAWcMob/3gIQzCkASdJwBi81nMboSw2nAmfP/2enAKT5HAGQ1CRTgUOAc4BHWPCz6RDgZIr7rHMEQFmzAEhqssFLDR8FzsMCIAEWAEntMZU0dWABqDmvAZAkFelJ4OHoEBqdBUCSpBayAEiSiuYqgAxYACRJRbMAZMACIEkqmgUgAxYASZJayAIgSSqaIwAZmBAdoCXmkrbQLNKzBT+eJKlFxkUHkCQ1zuKkuwsW4QXg1YIeS5IkSZIkSZIkSZIkSZIkSZIkSZIkSZIkSZIkSZIkSZIkSZIkSZIkSZIkSZIkSZIkSZIkSZIkSZIkSZIkSZIkSZIkSZIkSZIkSZIkSZIkSZIkSZIkSZIkSZIkSZIkSZIkSZIkSZIkSZIkSZIkSZIkSZIkSZIkSZIkSZIkSZIkSZIkSZIkSZIkSZIkSZIkSZIkSZKkzv0/5hxqzKl1xLwAAAAASUVORK5CYII=;rotation=0;" parent="Qdo3hB_uDaMukJDxGay6-1" vertex="1">
          <mxGeometry x="470" y="1280" width="52" height="35" as="geometry" />
        </mxCell>
        <mxCell id="Qdo3hB_uDaMukJDxGay6-47" value="" style="shape=image;verticalLabelPosition=bottom;verticalAlign=top;imageAspect=0;image=data:image/png,iVBORw0KGgoAAAANSUhEUgAAAMgAAADICAYAAACtWK6eAAAABHNCSVQICAgIfAhkiAAAAAFzUkdCAK7OHOkAAAAEZ0FNQQAAsY8L/GEFAAAACXBIWXMAAAsTAAALEwEAmpwYAAAMa0lEQVR4Xu3dedAcRRnH8W8uEhJIkIQjEYmgpCKnKKHQQgOSAuRQSDygOIoSREQES5AiohBERIFSEAEFRFBRBBQMICAiyH0UIoFwCkLkzIEYCSSQZPzDHnx56pnemd2Z3Z3d36fqKatme3rW0L93d2d6ekBEREREREREREREREREREREREREREREREREmjHUbhAR2BC4CVgBzAcOtw1E+tUQ4BEgMfVp21CkH01xwpEAV9iG0hmD7QZpqzF2Q7C63SCdoYCIRCggIhEKSL0MAfYAzgBmAmvbBiK9ZJrzAz0B/mTarQEcBTxt2r0ArG/aivSMRgGZBJwFvOq0Sesc06dIz8gKyGPANcBK5zVbN9hOpTz6DdKdJgG7AIPsC4677QaRXpH1CZK37gZG205FesGHw9coO+jz1F3AXuGslkjPGAbsA9zjDPpG9SZwCbCN7VSk7sYB3wCecwZ+o1oEnAysZzsVqbtNgfOB152B36jmAgcDq9pORepsELA7cKMz6PPWrbZTkV6wNfCoM+CLlr2SLlJ7q4U7Au1gj9ViZ1uegIzUNaz20D9yeaYCa9mNGW4BZhS8czA9A3YXsAR4OUxYFKmFHZxPgoG1DLgI2HLAPlkXCgd+gqwVzoA977RLgP0GtBXpWsOAh50B/BIwC1jH7tAgIJsDP81xBuxq26lIt5oA/AqYB9wGHAAMt40GyArIMmdbVv3WdirSK7ICUqR2tp1KefQjvbPWsBsK+AfwWeA6+4JI3e0AzA6LxdlPhEZ1c7jtVn/cpKeMAA4E5jiDvlEtBX4GbGE7Fam78cC3gQXOwG9ULwLHa3EG6UVbAb8E3nAGfqN6AdgfWMV2KlJ3M4DbnUFfpBpNNRGppZ84g72ZUkCk52ziDPRYPRruFbHbGwVkO+BbwJcia/uKdJ3pzkD36nrg4+G+kawLhTYgI4CDnDNgz4Sr9yJdb8PIdY3Xwtevjc0+jQIyATipwRmwM02fIl3rWDN4/wkcA6xpGwZZAZkb5nTlOQNmP21EutoWwKHAbjmeO5gVkCJ1iu1UpFe0GpC5wFjbqUgv2Bi41Bn0eeoR4JDw412kZwwCdg0LTttB36hWAteG6e151uwVqY1RwGFh1XY78BvVkvCIg8m2U5G6mwicBvzLGfiNah5wNPAO26lI3X0k3Aq73Bn4eerOHGfARGpnM+BeZ8AXLV3bkJ4zsonFqZc62xSQLqLbNssztcC8qDnh7sIZ9gXpLgpIeVbYDcbKcB/6x8LV9gvC8j4ifWE48JTzdWkxcDrwHrtD5Eq6vmJJT9oQ+EMIxUPAVxo8Q1ABEYlQQLqcfoOIRCggIhEKiEiEAiISoYCIRCgg0qoJYfmil4Fnw9OwdL+KlKLOp3lHhEUqXnXe/9dsY5Fm1DUgMzJmDaT1kN2hrvQVS4rYHLgJuBzYwL44wDi7oa4UEMljHPBj4K9h6dO+oYBIzLAwn+wJ4AvAENug1ykgkmXncN/KD1p8lmKtKSBiTQKuCUsM9f1KKgqIpMYA3w9noHaxLzoWA9+1G0XK1A2neQcDBwPznffh1QrgvPDcxHWd15PwbEWRlnU6IFOB+53jZ9UtwJYD9ldApFKdCshE4DLnuFn1DPAZ24kCIlVrd0BGhUdSv+4c06slwHHAqrajQAGRSrUrIIOAfcNkQnusrLoYWM92ZCggUql2BGQKcIdzjKy6B/iQ7SSDAiKVqjIg44GLwnpctn+vXgAOKDhVXQGRSlURkOHATOA/Tr9eLQVOBla3HeWggEilyg7IdOBJp7+suiKs5dUsBUQqVVZANgNudPrJqjlhCdRWKSBSqVYDMjY8fSrvc0gWhifwljUrVwGRSjUbkKHAEeE+cLuvV28CZ1TwtCoFRCrVTEB2Ah529smq64D32U5KooBIpYoEZCPgaqdtVj0O7GY7KZkCIpXKE5Ax4UGgbzjtvPo3cBSwyoA+qqKASKViARkMfB54yXndq4HT0NtFAZFKZQXk8bBAgt2eVXYaersoIFKprIDkraxp6O3S8wEpMu9GyjcNuMFuzOE14HvAqWHqeqesG+ZwWfMzHjnXLVZ0+N9NcmrmEyTPNPR2yfoEqUM90m9rfNXR9s5/uKwqMg29XeockCSsK5z30d3SAb93/qPZamYaervUPSBJWBAvk5b96ZxpwCfsRsdq4d6OdlzX6EfL7QbpvCFh/Sn71yxWTwJ72o46rO6fIAsbLbTdjR/b/eAw4Ey7Mac/h/VyH7QvdEDWWawknGnrVsuB+4CvAg/YF6Wz1gQWOX/NitRy4Oww3b2Tsj5BeuY6iLTfj5wB1Wy9DBwepr93ggIipdqkwM1NRWousKM9WBsoIFKqG5zBlIQruweG/7WvFamrwrT4dlFApDSfdAZSWueHNuc5rxWtZWEKymhz/CooIFKKVYC/OwMpCfdvpFPU1wZecdok4XEDFxf4lHkJOKjia10KiJTiaGcQpXWUaXuk0yatY4EPArc5r2XVfcC25hhlUUCkZeuEv/52ECXhvg97hXwY8JjTNjFzh/YC5jltsuo3wPrmWK1SQKRlFzgDKK3dbeNgV6dtWr8Y0G5VYFa4KGfbefUacAIwckAfrVBApCVbRdbGvc42Nq519klCf9uYtu8CLnHaZtU8YG/TRzMUEGnJ7c7gScI6VY2W4pkc2tl9E+DujGlC24bfHLZ9Vt0WftM0SwGRpu3tDJy0fmgbZzjd2Tet/W3jYHC4pvKis49XK8LXwHVsRzkoINKUkZEf0AsLrHC4BrDA6SMBngtT4bOMBk4J10Xsvl4tDmfb7EmDGAVEmnKCM2jSOtQ2buAQp4+0vmMbO94LzHb2zaonwkXNPBQQKWz9yFmlOU0sHD0Y+JvTVxKe7bGB3SHDjmHOlu0jq/4Y5o7FKCBSWOxsUrOPHNjO6Sut39nGEUOBLxdc9PrMyFdCBUQK2dYZLGldYRsXdLnTZ1pFgzcWOKvAzOJF4SYv++mngEhugyOnWJe2+CQnwleprMc3N/PVDWDTsMyp7S+rHgR2GLC/AiK5HeQMlLROto2bdJLTd1pftI0L2KPgo9uuDAvDKSCSy+jIItPPNzgdW8SocHrXHiMJp4OzfivkMRw4psDDP5cB5zrbEwVErFOdQZLWAbZxi/ZzjpHWGbZxE8YDF0amyOQpBUTeslHkYtw9GVNCWjEIuNM5VpJzCkteU4A7nGPkKQVE3nKVM0DSqmqp0K0jf+Gvt41btA/wrHOcWCkgAuF5gXZwpHWxbVyynzvHTCtrGn2zRgEnRs6i2VJAhKGRh2m+CrzT7lCyCZEf1N6NWGWYCFzqHM+Wt5ic9JnDnYGR1jdt44p83Tl2WvZW3jJ9FLjfOWZaWq2wz42NTNd4Ghhhd6jIcOAp5z0kZjGIKqTPUJzvHPsQ21j6y9nOoEir3Y9Em+68h7TS5YSqNCZcCH00fKocbBtIf9ksMofpL7Zxm9zovJck3Az1AdtYpEqxwfh+27hNYqG91TYWqcqezgBM61zbuM3Ocd5TWnvZxiJlGx6Z0PdKxT+I8xgXOXEwLywRJFKZmc7AS+tI27hDjnDeW1rH28YiZRkfuSj3WFgNsRvELl4uCetniZTuQmfApbWrbdxhOzrvMa1f28YirZoSmRh4rW3cJWITKKtayFr6UKOp5ZPtDl0iNgX/voofiSB9ZF9ngKV1um3cZU5z3nNan7ONRYoaFbkPYkFY9bCbxW4DfhFY3e4gUsSJzsBKq5UFEtoptpDEKbaxSF4TIzcHPdDkEjudEFuKaFlYllSksMucAZXW9rZxl4stZjfbNpa3K3tBgV4wFbjZbgyWAFfbjTWwS+Q3x05hHV6RhmILRfdqza3RV0bpsNhV6F6u3ew/hPyPLhi93bvthj7Rr/+/G1JA3i5dKK3f3G43iGSZGe4OtF9DerFWAsfZfwD5P53F8m0Qnv461L5Qsk8BM+zG8CyRIg/GacabwL1hVRSRrjTL+auehO3SBfQbRCRCARGJUEBEIhQQkQgFRCRCARGJUEBEIhQQkQgFRCRCARGJUEBEIhQQkQgFRCRCARGJUEBEIhQQkQgFRCRCARGJUEBEIhQQkQgFRCRCARGJUEBEIhQQkQgFRCRCARGJUEBEIhQQkQgFRCRCARGJUEBEIhQQkQgFRCRCARGJUEBEIhQQkQgFRCRCAemsxG4IsrZLmykgnbXAbggW2Q0i/WgcMN88I30hsLZtKNKvJgNXAk8Bs4GNbQMRERERERHpD/8FMu8Lc9sKz5EAAAAASUVORK5CYII=;rotation=-180;" parent="Qdo3hB_uDaMukJDxGay6-1" vertex="1">
          <mxGeometry x="481" y="320" width="60" height="60" as="geometry" />
        </mxCell>
        <mxCell id="Qdo3hB_uDaMukJDxGay6-48" style="edgeStyle=orthogonalEdgeStyle;rounded=1;orthogonalLoop=1;jettySize=auto;html=1;endArrow=none;startFill=0;strokeWidth=5;fillColor=#60a917;strokeColor=light-dark(#2D7600, #63fb04);curved=0;" parent="Qdo3hB_uDaMukJDxGay6-1" source="Qdo3hB_uDaMukJDxGay6-49" target="Qdo3hB_uDaMukJDxGay6-50" edge="1">
          <mxGeometry relative="1" as="geometry" />
        </mxCell>
        <mxCell id="Qdo3hB_uDaMukJDxGay6-49" value="" style="verticalLabelPosition=bottom;align=center;html=1;verticalAlign=top;pointerEvents=1;shape=mxgraph.pid2valves.valve;valveType=gate;actuator=solenoid;" parent="Qdo3hB_uDaMukJDxGay6-1" vertex="1">
          <mxGeometry x="481" y="250" width="30" height="30" as="geometry" />
        </mxCell>
        <mxCell id="Qdo3hB_uDaMukJDxGay6-50" value="" style="shape=image;verticalLabelPosition=bottom;verticalAlign=top;imageAspect=0;image=data:image/png,iVBORw0KGgoAAAANSUhEUgAAAMgAAADICAYAAACtWK6eAAAABHNCSVQICAgIfAhkiAAAAAlwSFlzAAALEwAACxMBAJqcGAAAChVJREFUeJzt3XnsHGUdx/E3pZSrLUdLQUQEEUUNRIWIBIFGkUgkcmggIhGjwQuNGomiYgyJBGI0gLdGPJAjGjV4IAZSDzwRrwByiAcip0BtLS1HW+ofX1aWX38z+8zOzjMz3fcredKk+e3MM7Pz2Wd35jlAkiRJkiRJkiRJkiRJkiRJkiRJkiRJkiRJkiRJkiRJkiRJkiRJkiRJkiRJkiRJkiRJkiRJkiRJkiRJkiRJkiRJkiRJkiRJkiRJkiRJm5TN2q5AB80FTgEOBbZouS5t2wDcCpwP3NtyXdQR3yQuDMsT5XZgUZ2Tqk3DfrR/MXa1nF7jvPbWnLYr0DFPa7sCHTaV58aAPNm1wMNtV6Kjft52BdQNJwEP0f5Xmi6VLzOlN3Sm8qAT7AwcCMxrYd/nA7vO8v/vAu7KXJfHgFuAP2fer1ToZmb/FN+nzUpNK3+DSCUMiFTCgEglDIhUwoBIJQyIVMKASCUMiFTCgEglDIhUwoBIJQyIVGJu2xXIYAGwNbCK6Mau5swFdiR6AS9//F91zELgrcAVxJs03CP2DmLM+Ql0d0KGvvXmPQj4NHAjsI4n6vsI8HvgLGDv1mqn/9scOA1YQdogoNuBE1upabm+BGRf4Keknev1wIXATm1UVLAYuJrxRstdQnwF64o+BOQUooWoeq7vAQ5uob5TbRHRvNcZUnoTMYKwC7ockB2JD5Q653oNcFjuik+rOcAyJjPueh1wDrBl1iPYWFcDcjRwN5M51w8Au+et/nR6G6PfjNXAnaR/JbgBOCDnQczQtYDsAFxUUKfZyv2k/Q78Yc6DmEZbEt9pi96AZcAhPPGsZx7wKuD6ktcMylrgo7QzaUOXAnIUMVHEqPO1grhBsvPQa58JnMeT72zNLIfkOIhpdQLFJ/58imds2Qq4uOS1w+U64AWNHcHsuhCQ7YCvFtRjZrmZ8tu4rwQeLXjtxY3UXkDxRX4NaT0EjgfuK9jGzNbkTPI9N2k7IEcSz4tGnZf1wLmk3QH8cME2VmBvjsb8hdlP+rEVtrEE+HbBdmaWPxJz9zatrYAsBC4o2PfM8leqfT1aQNy9artlnCpFsx/uMMa2TiTurIy6MB4lPg2b7KLTRkCOIB6cjjr+x4BPAduMsY+i51RH1Ky7ChS9iePaBfhuyXaHy++A59XYV5mcAVkAfLFgfzPL34GlNfZ1WcF2j66xTZWYdEAGTmLjPlyzlUeADxJdXCYpV0BeBtxWsK+ZrcZngPk191cUkGNqblcFmgoIwFOAH5TsY7j8FnjOhPYLzQdkPvBZ4sIfdWy3AS+d0H4NSGZNBmTgDaQ99HoYeB+TaU2aDMhS4qtSSvC/QHwFmxQDklmOgAA8leg6n3JR/Rp4ds39NRGQbYku6Smtxu3Ay2vsq4gBySxXQAbeBKws2e+gPAS8l/Hv7086IIcQt2VTAv4l4nZvEwxIZrkDArEM2ZUl+x4uv2C8gUKTCsg2RFePlFbjDuAVY9S1CgOSWRsBGXgz8N+SOgzKamLhmyoLFU0iIAdT/CB1ZvkKsH2FbY/LgGTWZkAAnk56V/ufAc9I3G6dgGwFfILoBjKqTncR/aRyMSCZtR0QiJbh7cCDJfUZlAeBdzC6NRk3IC8uee3M8nXG63FQhwHJrAsBGdiT9PHZPwb2KNlW1YBsCXyM8m7lg3IP7T25NiCZdSkgEC3DO4nfHaMu1FXEzCuzqRKQF5E+3PgSYnhyWwxIZl0LyMBexJriKRftlWw89DQlIPOAs0lrNe4FjpvsIY7FgGTW1YBAPAN5D8VdvIfLSmKWkIFRAdmftFGRG4g5wBY3c4iVGZDMuhyQgWcBvyTtYr4C2I3igOxHDANem7Ct+4gBYV1iQDLrQ0AgWpPTKB6/MlxWUPx8JWW8xgZiANiSLEdWjQHJrC8BGdgH+A1pF/k45QHgtdmOpjoDklnfAgLR2/f9RO/fSYbjMmLAV5cZkMz6GJCB5wLXUj8Yy4kBXn1gQDLrc0AgxrV/iPHmuN0AfJ8Y2NUXBiSzvgdkYF9imYDUYPwHOLmVmtbTy4A4J1H/rCdmV5FK9b0F2Zx6X7G+Rb/W2+hlC9JnfQ7IpH6k/xt4Tea6j8uAZNbHgGwOnE7abd6VpHdf/wbd6VJSxIBk1reAVHlQeBXRibFqp8Qq067mZkAy60tAqnQ1WQW8ZZZtVO3WvmNjRzM+A5JZHwKyN+mdFZdRPpBqMDAqZTjt3cRaKF1iQDLrckDmAO8mrbv7g8Sw3dSJHQ4i/bfJheQfWlvEgGTW1YDsRfqKuz8hhutWVWVyhjvJOzlDEQOSWdcCUmXI7erH/7bKdECzqTq9z3Y191eHAcmsSwHZk2gNUi7Uq4lWZlK2Jn2CuH/R/ARxRQxIZl0IyGbESrurSuozKGuI3yVNde85lG5MMVrEgGTWdkB2J55XpFyQ405DWtW2xApQKa3JP4HDM9RpwIBk1mZATiFt6tG6E1mPaynpyxx8nvqL46QwIJm1EZDdgB+V7Hu4TGIphDrmA58jrTX5B5NbKKeIAcksd0DeSP7FdCbhcOLr1Kh6D5Za27ahehiQzHIFZFfg8pL9DZdrmOxybJNSZbHOvwGHNVAHA5JZjoC8nhjBN+qiegT4AN1pNYpUWe75k4y33HMRA5JZkwHZBfheyT6Gy7U0tyR0ExYCF5B2bLcCL5nQfg1IZk0F5HXEHFMprcYZxOQLfXQksbLUqONcD5xLPJCsw4BkNumALAG+U7Ld4fIHYrKFvtse+Bppx3wL0VFyXEUBaWs5hk1e0VjucfobnUDMZzvqInkU+Aj9bTWKHEWsOJXSmnyc6CxZVdGM90fUrLsKFHWrqDIOYjExA3rKJ+ifgOdPqO5dtANwEWnn4ibgwArbXkBx1/9JrP+uWVzK7Cf8V6Q9uT6OGKY66mJYC5wJbDHZ6nfWMcRKVKPOyzrgHGIg1yhnFGxjBU491ZgTKX7zzqO4K/lWxBp9KZ+U1wEvbOwIumsRxR9AM8v1lC9QeiTx1XS2117cTPUFcaGXtQBXEbco5wz9/bGkLT6zDjiLmDRhmr2amFpo1PlaTvRUHl7ibQ9iUFfZhBOTuoWsAqcy+s1bQ4zRTll4ZgNwA3BAzoPouJ1I/532GHGu70/428tzHsS0mkP6QKWUVuNs0r5TT6PjSbvTl1KWE+vMK4PFxF2VOm/YjcTUOiq3hFjBqs65XkN0x1dGOxGDksZ5wy6l/lPiaXMqxT+8y8o9xDh6tWAusXrTStLerLuIzogaz/6kzxS5nnhi36fJtjdZ2xMzhixj47HiDxCdEE9mvKfB2thSYoz7zBGMa4mHq2cTq/32Ut1pZ/pgEdFtexXxYErN2Zo43+uJH/Tr2q2OJEmSJEmSJEmSJEmSJEmSJEmSJEmSJEmSJEmSJEmSJEmSJEmSJEmSJEmSJEmSJEmSJEmSJEmSJElSBv8DhZGUYnvjcPsAAAAASUVORK5CYII=;rotation=0;" parent="Qdo3hB_uDaMukJDxGay6-1" vertex="1">
          <mxGeometry x="575" y="235" width="70" height="70" as="geometry" />
        </mxCell>
        <mxCell id="Qdo3hB_uDaMukJDxGay6-51" style="edgeStyle=orthogonalEdgeStyle;rounded=1;orthogonalLoop=1;jettySize=auto;html=1;exitX=1;exitY=0.5;exitDx=0;exitDy=0;entryX=-0.033;entryY=0.692;entryDx=0;entryDy=0;entryPerimeter=0;endArrow=none;startFill=0;strokeWidth=5;fillColor=#60a917;strokeColor=light-dark(#2D7600, #63fb04);curved=0;" parent="Qdo3hB_uDaMukJDxGay6-1" source="Qdo3hB_uDaMukJDxGay6-37" target="Qdo3hB_uDaMukJDxGay6-49" edge="1">
          <mxGeometry relative="1" as="geometry" />
        </mxCell>
        <mxCell id="Qdo3hB_uDaMukJDxGay6-52" style="edgeStyle=orthogonalEdgeStyle;rounded=1;orthogonalLoop=1;jettySize=auto;html=1;entryX=0;entryY=0.5;entryDx=0;entryDy=0;endArrow=none;startFill=0;curved=0;strokeWidth=5;fillColor=#e3c800;strokeColor=light-dark(#B09500, #f0cd05);" parent="Qdo3hB_uDaMukJDxGay6-1" source="Qdo3hB_uDaMukJDxGay6-53" target="Qdo3hB_uDaMukJDxGay6-65" edge="1">
          <mxGeometry relative="1" as="geometry" />
        </mxCell>
        <mxCell id="Qdo3hB_uDaMukJDxGay6-53" value="&lt;font style=&quot;color: rgb(0, 0, 0);&quot;&gt;KEG tank&lt;/font&gt;" style="strokeWidth=2;html=1;shape=mxgraph.flowchart.terminator;whiteSpace=wrap;fillColor=#fad7ac;strokeColor=#b46504;gradientColor=#FF9AE4;" parent="Qdo3hB_uDaMukJDxGay6-1" vertex="1">
          <mxGeometry x="376" y="380" width="100" height="130" as="geometry" />
        </mxCell>
        <mxCell id="Qdo3hB_uDaMukJDxGay6-54" style="edgeStyle=orthogonalEdgeStyle;rounded=1;orthogonalLoop=1;jettySize=auto;html=1;exitX=1;exitY=0.5;exitDx=0;exitDy=0;entryX=0.5;entryY=0;entryDx=0;entryDy=0;entryPerimeter=0;endArrow=none;startFill=0;strokeWidth=5;fillColor=#60a917;strokeColor=light-dark(#2D7600, #63fb04);curved=0;" parent="Qdo3hB_uDaMukJDxGay6-1" source="Qdo3hB_uDaMukJDxGay6-37" target="Qdo3hB_uDaMukJDxGay6-53" edge="1">
          <mxGeometry relative="1" as="geometry" />
        </mxCell>
        <mxCell id="Qdo3hB_uDaMukJDxGay6-55" value="" style="verticalLabelPosition=bottom;aspect=fixed;html=1;verticalAlign=top;fillColor=strokeColor;align=center;outlineConnect=0;shape=mxgraph.fluid_power.x10630;points=[[0.36,0,0],[0.36,1,0]]" parent="Qdo3hB_uDaMukJDxGay6-1" vertex="1">
          <mxGeometry x="414.02" y="760" width="33.98" height="75.14" as="geometry" />
        </mxCell>
        <mxCell id="Qdo3hB_uDaMukJDxGay6-56" style="edgeStyle=orthogonalEdgeStyle;rounded=1;orthogonalLoop=1;jettySize=auto;html=1;exitX=1;exitY=0.5;exitDx=0;exitDy=0;entryX=0;entryY=0.5;entryDx=0;entryDy=0;endArrow=none;startFill=0;curved=0;strokeWidth=5;fillColor=#e3c800;strokeColor=light-dark(#B09500, #f0cd05);" parent="Qdo3hB_uDaMukJDxGay6-1" source="Qdo3hB_uDaMukJDxGay6-57" target="Qdo3hB_uDaMukJDxGay6-46" edge="1">
          <mxGeometry relative="1" as="geometry" />
        </mxCell>
        <mxCell id="Qdo3hB_uDaMukJDxGay6-57" value="" style="shape=image;verticalLabelPosition=bottom;verticalAlign=top;imageAspect=0;image=data:image/png,iVBORw0KGgoAAAANSUhEUgAAAgAAAAFVCAYAAACZ01cjAAAABmJLR0QA/wD/AP+gvaeTAAAaBklEQVR4nO3deZQdZZ3G8W9CSNhCWBLCEnYQZN8XQTYJyiI7jGcg0KMox+UA47ig4xxg9CAoyjbqgCIYGDdUGMERERBBZBEEFMOmsgiDsjvskNDzx5uWTtvp7ntvVf3qrfp+zqkjeMi9z73pvvXc9633LZAkSZIkSZIkSZIkSZIkSZIkSZIkSZIkSZIkSZIkSZIkSZIkSZIkSZIkSZIkSZIkSZIkSZIkSZIkSZIkSZIkSZIkSZIkSZIkSZIkSZIkSZIkSZIkSZIkSZIkSZIkSZIkSZIkSZIkSZIkSZIkSZIkSZIkSZIkSRWYEB1AktQc46IDaAGrAjsDmwIbAusDywBLA4sArwN/nX/MAe4CbgWuBp4OyCtJkrq0AXAa8ADQ3+UxF7gR+BCpMEiSpJraE7iO7k/6CzteBM4BZlT3UiRJ0mh2BG6h+BP/cEXgFGDxal6WJEkaznLAeaR5/LJP/oOPu4GtKnh9kiRpiG2Bh6j2xD/4eBU4uvRXKUmS/uYo4BXiTv6Djy8C48t9uZIk6RTiT/pDj29gCZAkqTQfJf5kv7Dj9BJftyRJrTWL6i/26/Q4rrRXL0lSC21CWoIXfYIf7XiVtCRRkiT1aDJwP/En97EeDwFLlfJOSJJqbZHoAA1zMrBPdIgOTJn/v9eEppAkKWPrk4bVo7/Vd3q8AqxVwvshSVIr/Ij4k3m3xwXFvx2SJDXfZsSfxHs55gLrFv6uSJJqa0J0gIb4SHSAHi0CvBf4WHQQSdlbBji0oMe6iLSqSqqlZanPVr+9HH8BFi34vZHUPutT3OfStIqzt4pbwvbuQGBidIgCrADsHh1CUvb6owNobCwAvTskOkCB9ooOICl7FoBMWAB6MxF4a3SIAu0ZHUCSVA0LQG+2BpaIDlGgtYHp0SEkZc0RgExYAHqzZXSAEmwSHUBS1iwAmbAA9KaJa+ctAJJ6YQHIhAWgN+tEByjBjOgAkqTyWQB608Q1ql4DIKkXjgBkwgLQmyWjA5Rg+egAkrJmAciEBaA3TVoBMMCfCUlqAT/se/NydIAS2N4l9cLPkExYAHrzfHSAEqxO2hZYkrphAciEBaA3j0cHKMGbgDuAXaODSMqSBSATFoDe3B0doCQrAVcDZ9KMGx1Jqo4FIBMWgN7MiQ5QonHAMcAVwMrBWSRJBbMA9Obn0QEqsCup6DTproeSyuMIgFrjUdIPfNOPecDJwIRi3jZJDTWD4j53mrjZWm04AtC7b0cHqMh44BPATTRzC2RJxXAEQK2xBfHfzqs+ngT2KeLNk9Q4K+MIgFrk58SflCOO2TRzN0RJ3VsJC4Ba5ADiT8ZRx83AGj2/g5KawgKg1rmO+JNx1PF/wGG9v4WSGmBFLABqmW2A14g/GUceZwOTen0jJWVtOhYAtdDHiD8JRx93Axv3+kZKytYKWADUQuOBK4k/CUcfLwLH9vheSsrTNCwAaqkZwCPEn4TrcJwDLN7b2ykpMxYAtdo6wF+IPwHX4bgH2LS3t1NSRqZiAVDL7QQ8T/wJuA7Hc8ARvb2dkjJhAZCAjYCHiD8B1+X4AbBMT++opLpbHguABMBqpP3zo0++c4FPAvcF55hDKkaSmmk5LADS3ywKXEDsyf/d87NMBv4rMEs/aZXAUV2/m5LqbFksANIC+og52f6a4dflHwQ8G5Rp4LiU9G1BUnMsgwVAWkAf1Z5cHwU+zMjL8DYCfldxrqHHfcDmY30TJdWeBUAaoo/yT6avk+5MeCRj35J3SeD8CrKNdLwEfHCMeSXV2xQsANIC+ijv5HkF8CF6uyvfLNJyvcgi8D1cJSDlzgIgDdFHsSfLs4G9Sd/gi7I+cGfBOTs9/ghsXeBrklStpbEASAvoo9gT5aol5ZwAnAjMKzhvJ8fc+RnGl/QaJZVnMhYAaQF95FEABrwTeLLgzJ0eVwMrlfw6JRVrKSwAWfAblhbmMmBb4LbADLuRNlHaITCDJDWSBUAj+QOwHXASaYVBhNWA64EzSRsqSaq3/ugAUt30kdcUwFBvAx4rKHu3x03AmmW/UEk9WQKnALLgCIDG6mrSbX2vDMywLXA7cEhgBkkjcwQgExYAdeJxYC/SlMC8oAxTgO8C5zD2zY4kVccCIA3RR95TAEPtQtpuOHJK4DZg3ZJfp6TOLIZTAFlwBEDduhbYDPhxYIYtSCXg8MAMkhbkCEAmLADqxROk3QiPA14LyjAZuBCYTVp/LCmWBUAaoo9mTQEMtQ1pG9/IKYF7SKMSkuJMxCmALDgCoKLcQtrD//LADOuRlgoeC4wLzCG1mSMAmbAAqEhPAfuSpgReDcowCTgDuARYLiiD1GYWgExYAFS0ftKufTuQdhKMsh9wB7BjYAapjSwAmbAAqCy3kq7S/05ghlWBn5HuLLhIYA5JUov10eyLAEdyBPAisRcIXgOsXPYLlcR4vAgwC44AqAqzSVMC9wdm2JU0JbBXYAapDZwCyIQFQFW5HdgS+GZghmmkVQpnkpYqSZJUuj7aOwUw1BHA88ROCdwCrF32C5VayimADDgCoAizSXsG/DYww9bAr4F3BWaQpDAWAEW5m3R733MDMywNfItUSJYIzCE1jdcBSIP04RTAwhwBPEfslMAcYOOyX6jUEvNwCqD2HAFQHcwGtgLuDMzwZuBm0jbCktR4FgDVxb3AdsBZgRkWJ20j/D1gmcAcUu6cApAG6cMpgLE6EHiG2CmBB4HtS36dUlO9hlMAtecIgOroB6Tb+t4UmGF14DrSNsL+nkiSutaHIwCdmkTatOd1YkcDrgRWLPm1Sk3yKo4A1J7fbFRnr5AuyjsAeDowx0zSNsJ7BGaQctIfHUCjswAoB/9NmhK4ITDDdOAK0ojEooE5pBxYADJgAVAu/gTsApxEmhKIMA44BrgKmBGUQZKUmT68BqAouwN/Jva6gCeBd5b9QqVMvYTXANSeIwDK0VWkjYOuD8ywPGlq4kzSxYqS3uAUQAYsAMrVI8CupCmBeUEZBqYEfgmsG5RBqiMLQAYsAMrZPNI6/ZnAY4E5tgBuAw4PzCBJHbEAqAl+Rlol8JPADJOBC0n3NVgqMIdUB44AZMACoKZ4HNgTOI60DWmUWcCtpEIitZUFIAMWADVJP+mivN2BRwNzrAfciHcWlFRjFgA10XWkb+D/E5hhMdKdBS8BlgvMIUVwBCADFgA11ZPAPqQpgVcDc+wP3A7sEJhBqpoFIAMWADXZwJTAjsAfA3OsBlyLdxZUe1gAMuCHkdrgV6SlehcHZpgAnAD8FFgpMIckARYAtcdfgUOBo0l3GYyyG3AnacWC1FSOAGTAAqC2ORd4C/D7wAzTgB/hnQXVXBaADFgA1Ea/Jk0JfCsww8A2wjcAawXmkNRSFgC11XPAYcCHiV0lsDVwE7BXYAapaI4AZMACoDbrB04HNgfuCswxMCUwG1giMIdUFAtABiwAEswBtgcuCs4xi7RiYePgHFKvLAAZsABIyfOkE/CRwAuBOTYAbsZthCWVzAIgLWg2sBXwm8AMi5O2Ef4esExgDqlbjgBkwAIg/b17gG2Bs4JzHATcQZqekHJiAciABUAa3sukYfiDgWcDc6xOurnRifj7KqlAfqBII/s+aTTg9sAMA9sI/wRYMTCHNFaOAGTAAiCN7j7SMHz0lMDupG2E3x6cQxqNBSADFgBpbF4hTQkcADwTmGMF4Me4jbDqzQKQAQuA1JlLgc2AGwMzDGwj/AtgzcAckjJmAZA69zCwE3AS8Hpgjm1I1yYcGphBGo4jABmwAEjdmUu6Mn9/4KnAHFOA7+A2wqoXC0AGLABSby4jTQn8IjjHLOAWYKPgHBJYALJgAZB69wiwK/FTAhuSSoDbCEtSjfSRWnFRx6qVptdY7QY8RrF/190cF+M2worzMMX8HE+rOnibOAIgFesaYFPgyuAcB5MuENwuOIfaySmADFgApOI9DrwDOB6YF5hjDdxGWJLC9eEUQBvtAjxK/JTAlbiNsKrzIE4B1J7fCqRyXUtaJfDj4BwzSXcW3CM4h9rBKYAMWACk8j0B7A0cB7wWmGM6biOsalgAMmABkKrRTzrx7gg8EJhjPGkb4etwG2Gp1SwAUrVuAbYGLg/OsR1plcAhwTnUTI4AZMACIFXvKWA/4FOkLYWjTAG+DZyCUwKDebvl3lkApEH6cBWA/t5WwO+JXyVwG/Cmkl9rDmaR3o89o4NkrqifaVcBqBH6sABoeEuTvolHl4DnSCfAtlqP9B70k7Z3XjY2TtbuxwIg/U0fFgCN7AjgReKLwGxgqZJfa91MBG5lwffhvNBEebsPC0Dtjevxz2+CQ2VjtSXFXnC1GvCnAh9P9bAd8C3SLn6R7gLeBfwuOEdVPkvauXGwftK+CVdVHyd791LMlNKdxF4nk7MXgZ3KfIJ3E/9tpa2HIwDNNRm4iPifsZdJdxbs9YtC3e1LuovjcO/BozgV0I17if/5bfvx3Gh/Sa4CkOrnOeBw4EjghcAck4AzgEuB5QNzlGll4GssvOSsDHyxujiN0R8dQKOzAEj1NZu0Z8Bvg3PsS9pGuNThxACLAN9k9HnmPmD/0tM0iwUgAxYAqd7uBrYFzgrOMYN0q+MTSSfOJjge2HmM/+2XgeVKzNI0FoAW8BqAuMNrANpnFm8sU4s8rgVWKfellm4H0n0ZOnnds0OS5mkO8T+nbT+8BkBqkAtJGwfdEZxj5/kZ9gnO0a3lSfsuTOjwz80CDiw+TiP1RwfQ6CwAUl7uBbYnfkpgKvBD0g2OJgVn6dS5pCmNbnwJpwLGwgKQAQuAlJ+B5XkHAs8G5hhHurPgL4F1A3N04v309i1+ReLLl1QIC4CUr0uAzYCbgnNsQbqXwOHBOUazKcUs6TsMOKiAx2kyRwAyYAGQ8vYQaXneqcR+6E4mXaNQ122ElyAt+VusoMf7CrBCQY/VRBaADFgApPy9RlrStj/wdHCWWaQ99TcLzjHUGcAGBT7eNNL1DxqeBSADFgCpOX5IOvHeEJxjPdK0RF22Ef5H4L0lPO67gINLeFypEhYAqVn+BOwCnETa3z7KwDbClxB71fyapE18yvIVYHqJj58rRwAyYAGQmmcuace+twN/jo3CfqQ9A94a8NwTge8AU0p8jqnA2SU+fq4sABmwAEjNdRVp46DrgnOsSsw2wv9OupdC2Q4BDq3geaRCWQCkZnsU2I00JTAvMMcE4ATgp6Q77JVtJvDRCp5nwJdwKmAwRwAyYAGQmm8e6dv3TOCx2CjsCtwJ7F3ic6wEXES1n29TgXMqfL66swBkwAIgtcfPSJvhXBGcYypwGWkZ3cSCH3s8cAExa/T3I60MkAUgCxYAqV2eAPYCjiPtHxBlYBvhG4B1CnzcfwH2KPDxOvUfpO2Cpdrr9G5YQz0AXFxEkIZblLRJi1QH/aRv33NIu/dFzl1vBdwMvAe4tMfH2hz4dM+JerM86b39h+Ac0YocATgbuL7Ax2uLudEBlEyh+Hs9r1rpK1BTTQUuJ/7e5f2kbYSX7PJ1TAH+UIPXMHAc1uXraIpbKO69rPs9JqQRWQBUZ+NIu/a9QvyJ827SdQqd+m4Nsg8+ngFW6eJ1NIUFQJrPAqAcbE09vkW/RCokY/WeGmQe7risg9fQNDdjAZAAC4DyMYW0e170ybOfsW0j/GbghRpkXdgxa5T8TXUTFgAJsAAoP+8DXib+BPoQsONCMi4O/LYGGUc6ngVmjPZmN9CNWABqz2WAkoZzLvAW4PfBOVYj7V9wIn//efV5YKOqA3VoCvCf0SEkxXEEQLmaDHyT+G/S/cDVvLGN8AE1yNPJ0dfJm94Av8QRAAmwAChv40gbB9VhlcAjpDX2j9cgSyfHk7Rrg6AbsADUnlMAkkbTD5xB2mjnruAsqwDfBqYF5+jU8qR9DsZFB6lIf3QAjc4CIGms5gDbAF+NDpKpmcA/RYeQBlgAJHXiJdIKgSNJy+/UmdNJFzY2nSMAGbAAVMNfBjXNbNI+/r+JDpKZpYGv0/ypAD/zMmABkNSte4BtgbOig2TmbcBR0SEkC4CkXrxM2rb3YNKmNxqb02j2VIAjABmwAEgqwvdJFwjeHh0kE0sD59PcqQALQAYsAJKKcj+wPWlKwBPA6HYjXVDZRP79Z8ACIKlIr5CmBA4k3RJXI/sCsHZ0CLWTBUBSGS4FNiNtCauFW5K0r0LTpgIcAciABUBSWR4GdgZOAl4PzlJnuwLvjw5RMAtABiwAkso0l3Qnv/2Ap2Kj1NrngHWiQ6hdLACSqnA5aUrg+uggNbUkcAHN+Ux2BCADTflhk1R/j5CufHdKYHg7AB+IDlEQC0AGLADV8JdBSgamBGYCj8VGqaVTgXWjQxTAz7wMWAAkRbiGNCVwZXSQmlmCZk0FqMb8IZMU5XFgb9K3Xr3hLcDR0SF65AhABiwAkiLNBf4SHaKGTiPvqQALQAYsAJIibQx8NjpEDS0BfANYJDpIlywAGbAASIoyEZgNTIoOUlPbA8dEh1BzWQAkRTmBdCGgFu5kYIPoEF1wBCADFgBJEXYCjo8OkYHFgPPIbyrAApABC4Ckqk0GzsfPn7HaDvjn6BBqHn8BJVXtNGCt6BCZ+QywYXSIDjgCkAELgKQq7QO8LzpEhiaR11SABSADFgBJVZlOOompO9sCH4kOMUYWgAxYAKrhL4ME5wArRIfI3EnARtEh1AwWAElVOALYLzpEA0wibRC0aHSQUfilJwMWAEllWx04KzpEg2xB/acCLAAZsABIKtMiwIXAlOggDXMCaRtlqWsWAEllOhZ4a3SIBqr7VIAjABmwAEgqy8akrWxVjs2Bj0eHWAgLQAYsAJLK4I1+qvFvwCbRIYZhAciABUBSGbzRTzUmUu+pANWYBUBS0bzRT7U2Az4RHWIIRwAyYAGQVKTJwAX42VK1fwO2jA4xiAUgA/6SSirSacCa0SFaaAJpm+WJ0UGUDwuApKJ4o59YmwKfjA4xnyMAGbAAVMNfBjXddODr0SHEvwJbRYfAz7wsWAAkFeEcYFp0CDGBtCpgseAcFoAMWAAk9cob/dTLBqSRAGlEFgBJvfBGP/V0PLB14PM7ApABC4Ckbi0CXIQ3+qmj6KkAC0AGLACSunUssGN0CC3Um0n7A0SwAGTAAiCpG5vgjX5y8DFgm+gQqicLgKRODew/741+6i9qKsARgAxYACR16kS80U9O1if9nVXJApABC4CkTuxEfe9Br4X7KF6voSEsAJLGyhv95Gs88DVg8YqezxGADPiLLGms1gfuA16KDqKurAd8qqLnsgBkwAJQDX8Z1AS/At5BGgnYCjgJuA14PTKUOnI81UwF+JmXAQuApE7NI534TyQVgRWBQ4Fzgf+Ni6UxqHoqQDVmAZDUqyeAi4GjgVVJpeB44Crg1cBcGt56wGdKfg5HADJgAZBUpNdJowOnAjOB5YB9SaMDDwXm0oKOI63oKIsFIAMWAEllegG4jDQ6sAaw9vx/vhx4OS5W640HzgeWig6iOBYASVX6I2k04J2k0YGZpNGC2yJDtdRawKdLemxHADIwITqApNZ6iXSdwFXz/30NYA9gd1IxWCYmVqscA1wK/Lzgx7UAZMARAEl18SBpdOBQYCouNaxCWVMBFoAMWAAk1ZFLDauzJt7ZsZUsAJJyMHip4SrARrjUsEgfBHYp8PEcAciABUBSjn7HgksNZwJn4VLDbg1MBUwu6PEsABmwAFTDXwapPC+QRgKOZcGlhhcDz8fFys4awGcLeiw/8zJgAZDUNANLDQ8FVsClhp34AGklhlrAZYCSmmzoUsMVSSe4fXCp4XDGkcrTxsBzPTyOIwAZcARAUpv8GZjNgksNjwduwKWGA1YHPtfjY1gAMmABkNRWA0sNTyXdInc6LjUccDTw9ugQKpcFQJKSJ3Gp4YBxwHl0P0XiCEAGLACSNLy2LzVche6nAiwAGbAASNLo2rrU8Chgzy7+nAUgAxYASercSEsNm3TyGwd8FVg2OoiKZwGQpN4MLDU8nrSqYGXgSNLowLOBuYqyCvD5Dv9Mk0pQY1kAJKlYTVxq+B46mwqwAGTAAiBJ5RlpqeGjgbm68TWcCmgUC0A1bMOSYMGlhjPIa6nhysAXx/jf+pknzbcY6ReiyGPVSl+BpLItCewOnAk8SPGfGUUd+4/htZxe4PMdPobnUxccAZCkehhpqWEv+/IX7cukfRFG4ghABiwAklRPg5caTqc+Sw1XIn3DlzQGTgFIKtKKwBHAd4FniJkKOGCEfF8o8HmcAiiJIwCSlJ86LDX8EgufCnAKIAMWAEnKW9RSw5VI90aQNAKnACRF2RD4OPBT4BWK/yw6aJjn/HyBj+8UgLJmAZBUB4OXGj5AMZ9Fj5PuhzDY5wp6bAtAiZwCkKT2GLzUcE2KWWo4DThjyP/nNQDSfI4ASKq7xUijA6cAt5IuJuzkM+ngQY91aod/1hEANdYkLACS8jJ4qeHTjP6Z9ARvTAWcMob/3gIQzCkASdJwBi81nMboSw2nAmfP/2enAKT5HAGQ1CRTgUOAc4BHWPCz6RDgZIr7rHMEQFmzAEhqssFLDR8FzsMCIAEWAEntMZU0dWABqDmvAZAkFelJ4OHoEBqdBUCSpBayAEiSiuYqgAxYACRJRbMAZMACIEkqmgUgAxYASZJayAIgSSqaIwAZmBAdoCXmkrbQLNKzBT+eJKlFxkUHkCQ1zuKkuwsW4QXg1YIeS5IkSZIkSZIkSZIkSZIkSZIkSZIkSZIkSZIkSZIkSZIkSZIkSZIkSZIkSZIkSZIkSZIkSZIkSZIkSZIkSZIkSZIkSZIkSZIkSZIkSZIkSZIkSZIkSZIkSZIkSZIkSZIkSZIkSZIkSZIkSZIkSZIkSZIkSZIkSZIkSZIkSZIkSZIkSZIkSZIkSZIkSZIkSZIkSZKkzv0/5hxqzKl1xLwAAAAASUVORK5CYII=;rotation=90;" parent="Qdo3hB_uDaMukJDxGay6-1" vertex="1">
          <mxGeometry x="396" y="1180" width="52" height="35" as="geometry" />
        </mxCell>
        <mxCell id="Qdo3hB_uDaMukJDxGay6-58" value="" style="verticalLabelPosition=bottom;sketch=0;html=1;fillColor=#A153A0;strokeColor=#ffffff;verticalAlign=top;align=center;points=[[0,0.5,0],[0.125,0.25,0],[0.25,0,0],[0.5,0,0],[0.75,0,0],[0.875,0.25,0],[1,0.5,0],[0.875,0.75,0],[0.75,1,0],[0.5,1,0],[0.125,0.75,0]];pointerEvents=1;shape=mxgraph.cisco_safe.compositeIcon;bgIcon=mxgraph.cisco_safe.design.blank_device;resIcon=mxgraph.cisco_safe.design.flow_sensor;rotation=90;" parent="Qdo3hB_uDaMukJDxGay6-1" vertex="1">
          <mxGeometry x="404" y="890" width="40" height="36" as="geometry" />
        </mxCell>
        <mxCell id="Qdo3hB_uDaMukJDxGay6-59" style="edgeStyle=orthogonalEdgeStyle;rounded=1;orthogonalLoop=1;jettySize=auto;html=1;entryX=0.36;entryY=1;entryDx=0;entryDy=0;entryPerimeter=0;endArrow=none;startFill=0;fillColor=#e3c800;strokeColor=light-dark(#B09500, #f0cd05);curved=0;strokeWidth=5;" parent="Qdo3hB_uDaMukJDxGay6-1" source="Qdo3hB_uDaMukJDxGay6-58" target="Qdo3hB_uDaMukJDxGay6-55" edge="1">
          <mxGeometry relative="1" as="geometry">
            <Array as="points">
              <mxPoint x="424.02" y="840" />
              <mxPoint x="426.02" y="840" />
            </Array>
          </mxGeometry>
        </mxCell>
        <mxCell id="Qdo3hB_uDaMukJDxGay6-60" value="" style="verticalLabelPosition=bottom;align=center;html=1;verticalAlign=top;pointerEvents=1;shape=mxgraph.pid2valves.valve;valveType=gate;actuator=solenoid;rotation=90;" parent="Qdo3hB_uDaMukJDxGay6-1" vertex="1">
          <mxGeometry x="409" y="1060" width="30" height="30" as="geometry" />
        </mxCell>
        <mxCell id="Qdo3hB_uDaMukJDxGay6-61" style="edgeStyle=orthogonalEdgeStyle;rounded=1;orthogonalLoop=1;jettySize=auto;html=1;exitX=0;exitY=0.5;exitDx=0;exitDy=0;entryX=1.064;entryY=0.586;entryDx=0;entryDy=0;entryPerimeter=0;endArrow=none;startFill=0;curved=0;strokeWidth=5;fillColor=#e3c800;strokeColor=light-dark(#B09500, #f0cd05);" parent="Qdo3hB_uDaMukJDxGay6-1" source="Qdo3hB_uDaMukJDxGay6-57" target="Qdo3hB_uDaMukJDxGay6-60" edge="1">
          <mxGeometry relative="1" as="geometry" />
        </mxCell>
        <mxCell id="Qdo3hB_uDaMukJDxGay6-62" style="edgeStyle=orthogonalEdgeStyle;rounded=1;orthogonalLoop=1;jettySize=auto;html=1;exitX=1;exitY=0.5;exitDx=0;exitDy=0;exitPerimeter=0;endArrow=none;startFill=0;entryX=-0.081;entryY=0.527;entryDx=0;entryDy=0;entryPerimeter=0;curved=0;strokeWidth=5;fillColor=#e3c800;strokeColor=light-dark(#B09500, #f0cd05);" parent="Qdo3hB_uDaMukJDxGay6-1" source="Qdo3hB_uDaMukJDxGay6-58" target="Qdo3hB_uDaMukJDxGay6-60" edge="1">
          <mxGeometry relative="1" as="geometry">
            <mxPoint x="424" y="1050" as="targetPoint" />
          </mxGeometry>
        </mxCell>
        <mxCell id="Qdo3hB_uDaMukJDxGay6-63" value="" style="shape=image;verticalLabelPosition=bottom;verticalAlign=top;imageAspect=0;image=data:image/png,iVBORw0KGgoAAAANSUhEUgAAAMgAAADICAYAAACtWK6eAAAABHNCSVQICAgIfAhkiAAAAAlwSFlzAAALEwAACxMBAJqcGAAAChVJREFUeJzt3XnsHGUdx/E3pZSrLUdLQUQEEUUNRIWIBIFGkUgkcmggIhGjwQuNGomiYgyJBGI0gLdGPJAjGjV4IAZSDzwRrwByiAcip0BtLS1HW+ofX1aWX38z+8zOzjMz3fcredKk+e3MM7Pz2Wd35jlAkiRJkiRJkiRJkiRJkiRJkiRJkiRJkiRJkiRJkiRJkiRJkiRJkiRJkiRJkiRJkiRJkiRJkiRJkiRJkiRJkiRJkiRJkiRJkiRJkiRJm5TN2q5AB80FTgEOBbZouS5t2wDcCpwP3NtyXdQR3yQuDMsT5XZgUZ2Tqk3DfrR/MXa1nF7jvPbWnLYr0DFPa7sCHTaV58aAPNm1wMNtV6Kjft52BdQNJwEP0f5Xmi6VLzOlN3Sm8qAT7AwcCMxrYd/nA7vO8v/vAu7KXJfHgFuAP2fer1ToZmb/FN+nzUpNK3+DSCUMiFTCgEglDIhUwoBIJQyIVMKASCUMiFTCgEglDIhUwoBIJQyIVGJu2xXIYAGwNbCK6Mau5swFdiR6AS9//F91zELgrcAVxJs03CP2DmLM+Ql0d0KGvvXmPQj4NHAjsI4n6vsI8HvgLGDv1mqn/9scOA1YQdogoNuBE1upabm+BGRf4Keknev1wIXATm1UVLAYuJrxRstdQnwF64o+BOQUooWoeq7vAQ5uob5TbRHRvNcZUnoTMYKwC7ockB2JD5Q653oNcFjuik+rOcAyJjPueh1wDrBl1iPYWFcDcjRwN5M51w8Au+et/nR6G6PfjNXAnaR/JbgBOCDnQczQtYDsAFxUUKfZyv2k/Q78Yc6DmEZbEt9pi96AZcAhPPGsZx7wKuD6ktcMylrgo7QzaUOXAnIUMVHEqPO1grhBsvPQa58JnMeT72zNLIfkOIhpdQLFJ/58imds2Qq4uOS1w+U64AWNHcHsuhCQ7YCvFtRjZrmZ8tu4rwQeLXjtxY3UXkDxRX4NaT0EjgfuK9jGzNbkTPI9N2k7IEcSz4tGnZf1wLmk3QH8cME2VmBvjsb8hdlP+rEVtrEE+HbBdmaWPxJz9zatrYAsBC4o2PfM8leqfT1aQNy9artlnCpFsx/uMMa2TiTurIy6MB4lPg2b7KLTRkCOIB6cjjr+x4BPAduMsY+i51RH1Ky7ChS9iePaBfhuyXaHy++A59XYV5mcAVkAfLFgfzPL34GlNfZ1WcF2j66xTZWYdEAGTmLjPlyzlUeADxJdXCYpV0BeBtxWsK+ZrcZngPk191cUkGNqblcFmgoIwFOAH5TsY7j8FnjOhPYLzQdkPvBZ4sIfdWy3AS+d0H4NSGZNBmTgDaQ99HoYeB+TaU2aDMhS4qtSSvC/QHwFmxQDklmOgAA8leg6n3JR/Rp4ds39NRGQbYku6Smtxu3Ay2vsq4gBySxXQAbeBKws2e+gPAS8l/Hv7086IIcQt2VTAv4l4nZvEwxIZrkDArEM2ZUl+x4uv2C8gUKTCsg2RFePlFbjDuAVY9S1CgOSWRsBGXgz8N+SOgzKamLhmyoLFU0iIAdT/CB1ZvkKsH2FbY/LgGTWZkAAnk56V/ufAc9I3G6dgGwFfILoBjKqTncR/aRyMSCZtR0QiJbh7cCDJfUZlAeBdzC6NRk3IC8uee3M8nXG63FQhwHJrAsBGdiT9PHZPwb2KNlW1YBsCXyM8m7lg3IP7T25NiCZdSkgEC3DO4nfHaMu1FXEzCuzqRKQF5E+3PgSYnhyWwxIZl0LyMBexJriKRftlWw89DQlIPOAs0lrNe4FjpvsIY7FgGTW1YBAPAN5D8VdvIfLSmKWkIFRAdmftFGRG4g5wBY3c4iVGZDMuhyQgWcBvyTtYr4C2I3igOxHDANem7Ct+4gBYV1iQDLrQ0AgWpPTKB6/MlxWUPx8JWW8xgZiANiSLEdWjQHJrC8BGdgH+A1pF/k45QHgtdmOpjoDklnfAgLR2/f9RO/fSYbjMmLAV5cZkMz6GJCB5wLXUj8Yy4kBXn1gQDLrc0AgxrV/iPHmuN0AfJ8Y2NUXBiSzvgdkYF9imYDUYPwHOLmVmtbTy4A4J1H/rCdmV5FK9b0F2Zx6X7G+Rb/W2+hlC9JnfQ7IpH6k/xt4Tea6j8uAZNbHgGwOnE7abd6VpHdf/wbd6VJSxIBk1reAVHlQeBXRibFqp8Qq067mZkAy60tAqnQ1WQW8ZZZtVO3WvmNjRzM+A5JZHwKyN+mdFZdRPpBqMDAqZTjt3cRaKF1iQDLrckDmAO8mrbv7g8Sw3dSJHQ4i/bfJheQfWlvEgGTW1YDsRfqKuz8hhutWVWVyhjvJOzlDEQOSWdcCUmXI7erH/7bKdECzqTq9z3Y191eHAcmsSwHZk2gNUi7Uq4lWZlK2Jn2CuH/R/ARxRQxIZl0IyGbESrurSuozKGuI3yVNde85lG5MMVrEgGTWdkB2J55XpFyQ405DWtW2xApQKa3JP4HDM9RpwIBk1mZATiFt6tG6E1mPaynpyxx8nvqL46QwIJm1EZDdgB+V7Hu4TGIphDrmA58jrTX5B5NbKKeIAcksd0DeSP7FdCbhcOLr1Kh6D5Za27ahehiQzHIFZFfg8pL9DZdrmOxybJNSZbHOvwGHNVAHA5JZjoC8nhjBN+qiegT4AN1pNYpUWe75k4y33HMRA5JZkwHZBfheyT6Gy7U0tyR0ExYCF5B2bLcCL5nQfg1IZk0F5HXEHFMprcYZxOQLfXQksbLUqONcD5xLPJCsw4BkNumALAG+U7Ld4fIHYrKFvtse+Bppx3wL0VFyXEUBaWs5hk1e0VjucfobnUDMZzvqInkU+Aj9bTWKHEWsOJXSmnyc6CxZVdGM90fUrLsKFHWrqDIOYjExA3rKJ+ifgOdPqO5dtANwEWnn4ibgwArbXkBx1/9JrP+uWVzK7Cf8V6Q9uT6OGKY66mJYC5wJbDHZ6nfWMcRKVKPOyzrgHGIg1yhnFGxjBU491ZgTKX7zzqO4K/lWxBp9KZ+U1wEvbOwIumsRxR9AM8v1lC9QeiTx1XS2117cTPUFcaGXtQBXEbco5wz9/bGkLT6zDjiLmDRhmr2amFpo1PlaTvRUHl7ibQ9iUFfZhBOTuoWsAqcy+s1bQ4zRTll4ZgNwA3BAzoPouJ1I/532GHGu70/428tzHsS0mkP6QKWUVuNs0r5TT6PjSbvTl1KWE+vMK4PFxF2VOm/YjcTUOiq3hFjBqs65XkN0x1dGOxGDksZ5wy6l/lPiaXMqxT+8y8o9xDh6tWAusXrTStLerLuIzogaz/6kzxS5nnhi36fJtjdZ2xMzhixj47HiDxCdEE9mvKfB2thSYoz7zBGMa4mHq2cTq/32Ut1pZ/pgEdFtexXxYErN2Zo43+uJH/Tr2q2OJEmSJEmSJEmSJEmSJEmSJEmSJEmSJEmSJEmSJEmSJEmSJEmSJEmSJEmSJEmSJEmSJEmSJEmSJElSBv8DhZGUYnvjcPsAAAAASUVORK5CYII=;rotation=0;" parent="Qdo3hB_uDaMukJDxGay6-1" vertex="1">
          <mxGeometry x="505" y="620" width="70" height="70" as="geometry" />
        </mxCell>
        <mxCell id="Qdo3hB_uDaMukJDxGay6-64" style="edgeStyle=orthogonalEdgeStyle;rounded=1;orthogonalLoop=1;jettySize=auto;html=1;exitX=1;exitY=0.5;exitDx=0;exitDy=0;entryX=0;entryY=0.5;entryDx=0;entryDy=0;endArrow=none;startFill=0;curved=0;strokeWidth=5;fillColor=#e3c800;strokeColor=light-dark(#B09500, #f0cd05);" parent="Qdo3hB_uDaMukJDxGay6-1" source="Qdo3hB_uDaMukJDxGay6-65" target="Qdo3hB_uDaMukJDxGay6-63" edge="1">
          <mxGeometry relative="1" as="geometry" />
        </mxCell>
        <mxCell id="Qdo3hB_uDaMukJDxGay6-65" value="" style="shape=image;verticalLabelPosition=bottom;verticalAlign=top;imageAspect=0;image=data:image/png,iVBORw0KGgoAAAANSUhEUgAAAMgAAADICAYAAACtWK6eAAAABHNCSVQICAgIfAhkiAAAAAlwSFlzAAALEwAACxMBAJqcGAAAChVJREFUeJzt3XnsHGUdx/E3pZSrLUdLQUQEEUUNRIWIBIFGkUgkcmggIhGjwQuNGomiYgyJBGI0gLdGPJAjGjV4IAZSDzwRrwByiAcip0BtLS1HW+ofX1aWX38z+8zOzjMz3fcredKk+e3MM7Pz2Wd35jlAkiRJkiRJkiRJkiRJkiRJkiRJkiRJkiRJkiRJkiRJkiRJkiRJkiRJkiRJkiRJkiRJkiRJkiRJkiRJkiRJkiRJkiRJkiRJkiRJkiRJm5TN2q5AB80FTgEOBbZouS5t2wDcCpwP3NtyXdQR3yQuDMsT5XZgUZ2Tqk3DfrR/MXa1nF7jvPbWnLYr0DFPa7sCHTaV58aAPNm1wMNtV6Kjft52BdQNJwEP0f5Xmi6VLzOlN3Sm8qAT7AwcCMxrYd/nA7vO8v/vAu7KXJfHgFuAP2fer1ToZmb/FN+nzUpNK3+DSCUMiFTCgEglDIhUwoBIJQyIVMKASCUMiFTCgEglDIhUwoBIJQyIVGJu2xXIYAGwNbCK6Mau5swFdiR6AS9//F91zELgrcAVxJs03CP2DmLM+Ql0d0KGvvXmPQj4NHAjsI4n6vsI8HvgLGDv1mqn/9scOA1YQdogoNuBE1upabm+BGRf4Keknev1wIXATm1UVLAYuJrxRstdQnwF64o+BOQUooWoeq7vAQ5uob5TbRHRvNcZUnoTMYKwC7ockB2JD5Q653oNcFjuik+rOcAyJjPueh1wDrBl1iPYWFcDcjRwN5M51w8Au+et/nR6G6PfjNXAnaR/JbgBOCDnQczQtYDsAFxUUKfZyv2k/Q78Yc6DmEZbEt9pi96AZcAhPPGsZx7wKuD6ktcMylrgo7QzaUOXAnIUMVHEqPO1grhBsvPQa58JnMeT72zNLIfkOIhpdQLFJ/58imds2Qq4uOS1w+U64AWNHcHsuhCQ7YCvFtRjZrmZ8tu4rwQeLXjtxY3UXkDxRX4NaT0EjgfuK9jGzNbkTPI9N2k7IEcSz4tGnZf1wLmk3QH8cME2VmBvjsb8hdlP+rEVtrEE+HbBdmaWPxJz9zatrYAsBC4o2PfM8leqfT1aQNy9artlnCpFsx/uMMa2TiTurIy6MB4lPg2b7KLTRkCOIB6cjjr+x4BPAduMsY+i51RH1Ky7ChS9iePaBfhuyXaHy++A59XYV5mcAVkAfLFgfzPL34GlNfZ1WcF2j66xTZWYdEAGTmLjPlyzlUeADxJdXCYpV0BeBtxWsK+ZrcZngPk191cUkGNqblcFmgoIwFOAH5TsY7j8FnjOhPYLzQdkPvBZ4sIfdWy3AS+d0H4NSGZNBmTgDaQ99HoYeB+TaU2aDMhS4qtSSvC/QHwFmxQDklmOgAA8leg6n3JR/Rp4ds39NRGQbYku6Smtxu3Ay2vsq4gBySxXQAbeBKws2e+gPAS8l/Hv7086IIcQt2VTAv4l4nZvEwxIZrkDArEM2ZUl+x4uv2C8gUKTCsg2RFePlFbjDuAVY9S1CgOSWRsBGXgz8N+SOgzKamLhmyoLFU0iIAdT/CB1ZvkKsH2FbY/LgGTWZkAAnk56V/ufAc9I3G6dgGwFfILoBjKqTncR/aRyMSCZtR0QiJbh7cCDJfUZlAeBdzC6NRk3IC8uee3M8nXG63FQhwHJrAsBGdiT9PHZPwb2KNlW1YBsCXyM8m7lg3IP7T25NiCZdSkgEC3DO4nfHaMu1FXEzCuzqRKQF5E+3PgSYnhyWwxIZl0LyMBexJriKRftlWw89DQlIPOAs0lrNe4FjpvsIY7FgGTW1YBAPAN5D8VdvIfLSmKWkIFRAdmftFGRG4g5wBY3c4iVGZDMuhyQgWcBvyTtYr4C2I3igOxHDANem7Ct+4gBYV1iQDLrQ0AgWpPTKB6/MlxWUPx8JWW8xgZiANiSLEdWjQHJrC8BGdgH+A1pF/k45QHgtdmOpjoDklnfAgLR2/f9RO/fSYbjMmLAV5cZkMz6GJCB5wLXUj8Yy4kBXn1gQDLrc0AgxrV/iPHmuN0AfJ8Y2NUXBiSzvgdkYF9imYDUYPwHOLmVmtbTy4A4J1H/rCdmV5FK9b0F2Zx6X7G+Rb/W2+hlC9JnfQ7IpH6k/xt4Tea6j8uAZNbHgGwOnE7abd6VpHdf/wbd6VJSxIBk1reAVHlQeBXRibFqp8Qq067mZkAy60tAqnQ1WQW8ZZZtVO3WvmNjRzM+A5JZHwKyN+mdFZdRPpBqMDAqZTjt3cRaKF1iQDLrckDmAO8mrbv7g8Sw3dSJHQ4i/bfJheQfWlvEgGTW1YDsRfqKuz8hhutWVWVyhjvJOzlDEQOSWdcCUmXI7erH/7bKdECzqTq9z3Y191eHAcmsSwHZk2gNUi7Uq4lWZlK2Jn2CuH/R/ARxRQxIZl0IyGbESrurSuozKGuI3yVNde85lG5MMVrEgGTWdkB2J55XpFyQ405DWtW2xApQKa3JP4HDM9RpwIBk1mZATiFt6tG6E1mPaynpyxx8nvqL46QwIJm1EZDdgB+V7Hu4TGIphDrmA58jrTX5B5NbKKeIAcksd0DeSP7FdCbhcOLr1Kh6D5Za27ahehiQzHIFZFfg8pL9DZdrmOxybJNSZbHOvwGHNVAHA5JZjoC8nhjBN+qiegT4AN1pNYpUWe75k4y33HMRA5JZkwHZBfheyT6Gy7U0tyR0ExYCF5B2bLcCL5nQfg1IZk0F5HXEHFMprcYZxOQLfXQksbLUqONcD5xLPJCsw4BkNumALAG+U7Ld4fIHYrKFvtse+Bppx3wL0VFyXEUBaWs5hk1e0VjucfobnUDMZzvqInkU+Aj9bTWKHEWsOJXSmnyc6CxZVdGM90fUrLsKFHWrqDIOYjExA3rKJ+ifgOdPqO5dtANwEWnn4ibgwArbXkBx1/9JrP+uWVzK7Cf8V6Q9uT6OGKY66mJYC5wJbDHZ6nfWMcRKVKPOyzrgHGIg1yhnFGxjBU491ZgTKX7zzqO4K/lWxBp9KZ+U1wEvbOwIumsRxR9AM8v1lC9QeiTx1XS2117cTPUFcaGXtQBXEbco5wz9/bGkLT6zDjiLmDRhmr2amFpo1PlaTvRUHl7ibQ9iUFfZhBOTuoWsAqcy+s1bQ4zRTll4ZgNwA3BAzoPouJ1I/532GHGu70/428tzHsS0mkP6QKWUVuNs0r5TT6PjSbvTl1KWE+vMK4PFxF2VOm/YjcTUOiq3hFjBqs65XkN0x1dGOxGDksZ5wy6l/lPiaXMqxT+8y8o9xDh6tWAusXrTStLerLuIzogaz/6kzxS5nnhi36fJtjdZ2xMzhixj47HiDxCdEE9mvKfB2thSYoz7zBGMa4mHq2cTq/32Ut1pZ/pgEdFtexXxYErN2Zo43+uJH/Tr2q2OJEmSJEmSJEmSJEmSJEmSJEmSJEmSJEmSJEmSJEmSJEmSJEmSJEmSJEmSJEmSJEmSJEmSJEmSJElSBv8DhZGUYnvjcPsAAAAASUVORK5CYII=;rotation=90;" parent="Qdo3hB_uDaMukJDxGay6-1" vertex="1">
          <mxGeometry x="391" y="560" width="70" height="70" as="geometry" />
        </mxCell>
        <mxCell id="Qdo3hB_uDaMukJDxGay6-66" style="edgeStyle=orthogonalEdgeStyle;rounded=1;orthogonalLoop=1;jettySize=auto;html=1;exitX=1;exitY=0.5;exitDx=0;exitDy=0;entryX=0.36;entryY=0;entryDx=0;entryDy=0;entryPerimeter=0;endArrow=none;startFill=0;curved=0;strokeWidth=5;fillColor=#e3c800;strokeColor=light-dark(#B09500, #f0cd05);" parent="Qdo3hB_uDaMukJDxGay6-1" source="Qdo3hB_uDaMukJDxGay6-65" target="Qdo3hB_uDaMukJDxGay6-55" edge="1">
          <mxGeometry relative="1" as="geometry" />
        </mxCell>
      </root>
    </mxGraphModel>
  </diagram>
</mxfile>
